<svg width="1560" height="554" viewBox="0 0 1560 554" fill="none" xmlns="http://www.w3.org/2000/svg">
<mask id="mask0_166_1324" style="mask-type:alpha" maskUnits="userSpaceOnUse" x="300" y="0" width="1289" height="554">
<g clip-path="url(#clip0_166_1324)">
<rect width="960" height="960" transform="matrix(0 -1 1 0 300 478)" fill="url(#paint0_radial_166_1324)"/>
</g>
</mask>
<g mask="url(#mask0_166_1324)">
<g clip-path="url(#clip1_166_1324)">
<path d="M360 -240V1200" stroke="#3A3A3A"/>
<path d="M420 -240V1200" stroke="#3A3A3A"/>
<path d="M480 -240V1200" stroke="#3A3A3A"/>
<path d="M540 -240V1200" stroke="#3A3A3A"/>
<path d="M600 -240V1200" stroke="#3A3A3A"/>
<path d="M660 -240V1200" stroke="#3A3A3A"/>
<path d="M720 -240V1200" stroke="#3A3A3A"/>
<path d="M780 -240V1200" stroke="#3A3A3A"/>
<path d="M840 -240V1200" stroke="#3A3A3A"/>
<path d="M900 -240V1200" stroke="#3A3A3A"/>
<path d="M960 -240V1200" stroke="#3A3A3A"/>
<path d="M1020 -240V1200" stroke="#3A3A3A"/>
<path d="M1080 -240V1200" stroke="#3A3A3A"/>
<path d="M1140 -240V1200" stroke="#3A3A3A"/>
<path d="M1200 -240V1200" stroke="#3A3A3A"/>
<path d="M-180 0L1740 0" stroke="#3A3A3A"/>
<path d="M-180 60L1740 60" stroke="#3A3A3A"/>
<path d="M-180 120L1740 120" stroke="#3A3A3A"/>
<path d="M-180 180L1740 180" stroke="#3A3A3A"/>
<path d="M-180 240L1740 240" stroke="#3A3A3A"/>
<path d="M-180 300L1740 300" stroke="#3A3A3A"/>
<path d="M-180 360L1740 360" stroke="#3A3A3A"/>
<path d="M-180 420L1740 420" stroke="#3A3A3A"/>
<path d="M-180 480L1740 480" stroke="#3A3A3A"/>
<path d="M-180 540L1740 540" stroke="#3A3A3A"/>
</g>
</g>
<defs>
<radialGradient id="paint0_radial_166_1324" cx="0" cy="0" r="1" gradientUnits="userSpaceOnUse" gradientTransform="translate(480 480) rotate(90) scale(480 480)">
<stop/>
<stop offset="1" stop-opacity="0"/>
</radialGradient>
<clipPath id="clip0_166_1324">
<rect width="459" height="1289" fill="white" transform="matrix(0 -1 1 0 300 459)"/>
</clipPath>
<clipPath id="clip1_166_1324">
<rect width="960" height="960" fill="white" transform="translate(300)"/>
</clipPath>
</defs>
</svg>
