<svg width="1560" height="977" viewBox="0 0 1560 977" fill="none" xmlns="http://www.w3.org/2000/svg">
<path fill-rule="evenodd" clip-rule="evenodd" d="M155.864 0.569402H0.545613V162.659H139.773L155.864 145.867V0.569402ZM172.384 162.659L156.5 146.083V0.569402H311.818V162.659H172.384ZM156.5 179.653L172.147 163.324H311.818V325.414H156.5V179.653ZM140.009 163.324L155.864 179.869V325.414H0.545613V163.324H140.009ZM0 0V162.754V163.229V325.508V325.983V488.263V488.737V651.017V651.491V813.771V814.246V977H155.955H156.409H311.909H312.364H467.863H468.318H623.818H624.273H779.772H780.227H935.727H936.181H1091.68H1092.14H1247.64H1248.09H1403.59H1404.04H1560L1560 814.246V651.491V651.017V488.263V325.983V163.229V162.754V0H1404.04H1403.59H1248.09H1247.64H1092.14H1091.68H936.181H935.727H780.227H779.772H624.273H623.818H468.318H467.863H312.364H311.909H156.409H155.955H0ZM312.454 0.569402H467.772V162.659H312.454V0.569402ZM623.727 0.569402H468.409V162.659H623.727V0.569402ZM624.364 0.569402H779.682V162.659H624.364V0.569402ZM935.636 0.569402H780.318V162.659H935.636V0.569402ZM936.273 0.569402H1091.59V162.659H936.273V0.569402ZM1247.54 0.569402H1092.23V162.659H1247.54V0.569402ZM1248.18 0.569402H1403.5V162.659H1248.18V0.569402ZM1559.45 0.569402H1404.14V162.659H1559.45V0.569402ZM312.454 163.324H467.772V325.414H312.454V163.324ZM623.727 163.324H468.409C468.409 223.068 468.409 325.414 468.409 325.414H608.104H623.727V163.324ZM639.737 325.414H624.364V163.324H779.682V325.414H639.737ZM624.364 342.896V326.078H640.373H779.682V488.168H624.364V342.896ZM607.468 326.078H623.727V343.157V488.168H468.409V326.078H607.468ZM935.636 163.324H780.318V325.414H935.636V163.324ZM936.273 163.324H1091.59V325.414H936.273V163.324ZM1247.54 163.324H1092.23V325.414H1247.54V163.324ZM1248.18 163.324H1403.5V280.445L1403.24 280.72L1360.41 325.414H1248.18V163.324ZM1359.77 326.078H1248.18V472.199L1248.7 471.655L1264.53 488.168H1403.5V371.822L1403.24 371.547L1360.14 326.573L1359.72 326.133L1359.77 326.078ZM1403.5 370.943L1360.56 326.133L1360.62 326.078H1387.2L1387.15 326.133L1403.5 343.194V370.943ZM1404.14 371.487V488.168H1559.45V326.078H1447.54L1447.59 326.133L1447.17 326.573L1404.14 371.487ZM1446.7 326.078L1446.75 326.133L1404.14 370.607V342.859L1420.16 326.133L1420.11 326.078H1446.7ZM1446.91 325.414H1559.45V163.324H1404.14V280.78L1446.91 325.414ZM1404.14 281.66L1446.06 325.414H1419.47L1404.14 309.408V281.66ZM1403.5 281.324L1361.25 325.414H1387.84L1403.5 309.073V281.324ZM1248.18 505.56L1248.7 506.105L1265.21 488.88L1265.16 488.832H1403.5V650.922H1248.18V505.56ZM1232.24 488.832L1232.2 488.88L1247.54 504.896V650.922H1092.23V488.832H1232.24ZM1247.54 472.863L1232.88 488.168H1092.23V326.078H1247.54V472.863ZM0.545613 326.078H155.864V488.168H0.545613V326.078ZM311.818 326.078H156.5V488.168H311.818V326.078ZM312.454 326.078H467.772V488.168H312.454V326.078ZM935.636 326.078H780.318V488.168H935.636V326.078ZM936.273 326.078H1091.59V488.168H936.273V326.078ZM0.545613 488.832H155.864V650.922H0.545613V488.832ZM311.818 488.832H156.5V650.922H268.903L268.701 650.711L269.122 650.271L311.818 605.714V488.832ZM311.818 606.594L269.544 650.711L269.746 650.922H296.335L296.133 650.711L311.818 634.342V606.594ZM312.454 633.678V605.93L312.638 605.737L355.733 650.711L355.531 650.922H328.942L329.144 650.711L312.639 633.486L312.454 633.678ZM312.454 667.744L312.639 667.936L328.305 651.586H354.894L312.638 695.685L312.454 695.493V667.744ZM296.972 651.586L311.818 667.08V694.829L270.383 651.586H296.972ZM269.54 651.586H156.5V813.676H311.818V695.708L269.54 651.586ZM312.454 696.372V813.676H467.772V651.586H355.737L313.06 696.125L312.638 696.564L312.454 696.372ZM356.374 650.922H467.772V488.832H312.454V605.05L312.638 604.858L313.06 605.298L356.155 650.271L356.576 650.711L356.374 650.922ZM623.727 488.832H468.409V650.922H623.727V488.832ZM624.364 488.832H779.682V650.922H624.364V488.832ZM935.636 488.832H780.318V650.922H935.636V488.832ZM936.273 488.832H1091.59V650.922H936.273V488.832ZM1559.45 488.832H1404.14V650.922H1559.45V488.832ZM0.545613 651.586H155.864V813.676H0.545613V651.586ZM623.727 651.586H468.409V813.676H623.727V651.586ZM624.364 651.586H779.682V813.676H624.364V651.586ZM935.636 651.586H780.318V813.676H935.636V651.586ZM936.273 651.586H1091.59V813.676H936.273V651.586ZM1247.54 651.586H1092.23V813.676H1247.54V651.586ZM1248.18 651.586H1403.5V813.676H1248.18V651.586ZM1559.45 651.586H1404.14V813.676H1559.45V651.586ZM0.545613 814.341H155.864V976.431H0.545613V814.341ZM311.818 814.341H156.5V976.431H311.818V814.341ZM312.454 814.341H467.772V976.431H312.454V814.341ZM623.727 814.341H468.409V976.431H623.727V814.341ZM624.364 814.341H779.682V976.431H624.364V814.341ZM935.636 814.341H780.318V976.431H935.636V814.341ZM936.273 814.341H1091.59V976.431H936.273V814.341ZM1247.54 814.341H1092.23V976.431H1247.54V814.341ZM1248.18 814.341H1403.5V976.431H1248.18V814.341ZM1559.45 814.341H1404.14V976.431H1559.45V814.341Z" fill="url(#paint0_radial_166_1460)" fill-opacity="0.6"/>
<defs>
<radialGradient id="paint0_radial_166_1460" cx="0" cy="0" r="1" gradientUnits="userSpaceOnUse" gradientTransform="translate(780 -548.363) rotate(90) scale(1402.27 938.927)">
<stop/>
<stop offset="1" stop-color="white" stop-opacity="0"/>
</radialGradient>
</defs>
</svg>
