<svg width="1620" height="554" viewBox="0 0 1620 554" fill="none" xmlns="http://www.w3.org/2000/svg">
<mask id="mask0_133_4334" style="mask-type:alpha" maskUnits="userSpaceOnUse" x="330" y="0" width="1289" height="554">
<g clip-path="url(#clip0_133_4334)">
<rect width="960" height="960" transform="matrix(0 -1 1 0 330 478)" fill="url(#paint0_radial_133_4334)"/>
</g>
</mask>
<g mask="url(#mask0_133_4334)">
<g clip-path="url(#clip1_133_4334)">
<path d="M390 -240V1200" stroke="#3A3A3A"/>
<path d="M450 -240V1200" stroke="#3A3A3A"/>
<path d="M510 -240V1200" stroke="#3A3A3A"/>
<path d="M570 -240V1200" stroke="#3A3A3A"/>
<path d="M630 -240V1200" stroke="#3A3A3A"/>
<path d="M690 -240V1200" stroke="#3A3A3A"/>
<path d="M750 -240V1200" stroke="#3A3A3A"/>
<path d="M810 -240V1200" stroke="#3A3A3A"/>
<path d="M870 -240V1200" stroke="#3A3A3A"/>
<path d="M930 -240V1200" stroke="#3A3A3A"/>
<path d="M990 -240V1200" stroke="#3A3A3A"/>
<path d="M1050 -240V1200" stroke="#3A3A3A"/>
<path d="M1110 -240V1200" stroke="#3A3A3A"/>
<path d="M1170 -240V1200" stroke="#3A3A3A"/>
<path d="M1230 -240V1200" stroke="#3A3A3A"/>
<path d="M-150 0L1770 0" stroke="#3A3A3A"/>
<path d="M-150 60L1770 60" stroke="#3A3A3A"/>
<path d="M-150 120L1770 120" stroke="#3A3A3A"/>
<path d="M-150 180L1770 180" stroke="#3A3A3A"/>
<path d="M-150 240L1770 240" stroke="#3A3A3A"/>
<path d="M-150 300L1770 300" stroke="#3A3A3A"/>
<path d="M-150 360L1770 360" stroke="#3A3A3A"/>
<path d="M-150 420L1770 420" stroke="#3A3A3A"/>
<path d="M-150 480L1770 480" stroke="#3A3A3A"/>
<path d="M-150 540L1770 540" stroke="#3A3A3A"/>
</g>
</g>
<defs>
<radialGradient id="paint0_radial_133_4334" cx="0" cy="0" r="1" gradientUnits="userSpaceOnUse" gradientTransform="translate(480 480) rotate(90) scale(480 480)">
<stop/>
<stop offset="1" stop-opacity="0"/>
</radialGradient>
<clipPath id="clip0_133_4334">
<rect width="459" height="1289" fill="white" transform="matrix(0 -1 1 0 330 459)"/>
</clipPath>
<clipPath id="clip1_133_4334">
<rect width="960" height="960" fill="white" transform="translate(330)"/>
</clipPath>
</defs>
</svg>
