<svg width="365" height="296" viewBox="0 0 365 296" fill="none" xmlns="http://www.w3.org/2000/svg">
<g opacity="0.7">
<path opacity="0.11" d="M90.1068 227.626C90.3513 227.468 90.4208 227.141 90.2622 226.896C90.1036 226.652 89.7768 226.582 89.5324 226.741C89.288 226.9 89.2184 227.226 89.3771 227.471C89.5357 227.715 89.8624 227.785 90.1068 227.626Z" fill="white"/>
<path d="M93.1258 229.121C93.3091 229.002 93.3612 228.757 93.2423 228.573C93.1234 228.39 92.8784 228.338 92.6951 228.457C92.5118 228.576 92.4597 228.821 92.5786 229.004C92.6976 229.187 92.9425 229.24 93.1258 229.121Z" fill="white"/>
<path d="M97.3953 219.737C97.5786 219.618 97.6308 219.373 97.5118 219.19C97.3929 219.006 97.1479 218.954 96.9646 219.073C96.7814 219.192 96.7292 219.437 96.8482 219.62C96.9671 219.804 97.2121 219.856 97.3953 219.737Z" fill="white"/>
<path d="M78.3133 231.501C78.4966 231.382 78.5487 231.137 78.4298 230.954C78.3109 230.771 78.0659 230.718 77.8826 230.837C77.6993 230.956 77.6472 231.201 77.7661 231.385C77.8851 231.568 78.13 231.62 78.3133 231.501Z" fill="white"/>
<path opacity="0.11" d="M70.8178 243.907C71.0622 243.748 71.1318 243.422 70.9731 243.177C70.8145 242.933 70.4878 242.863 70.2434 243.022C69.9989 243.18 69.9294 243.507 70.088 243.752C70.2466 243.996 70.5733 244.066 70.8178 243.907Z" fill="white"/>
<path d="M63.4495 241.772C63.5716 241.693 63.6063 241.53 63.5271 241.408C63.4478 241.286 63.2846 241.251 63.1625 241.33C63.0404 241.409 63.0057 241.573 63.0849 241.695C63.1641 241.817 63.3274 241.852 63.4495 241.772Z" fill="white"/>
<path d="M95.0354 236.67C95.1575 236.591 95.1923 236.427 95.113 236.305C95.0338 236.183 94.8705 236.148 94.7484 236.228C94.6263 236.307 94.5916 236.47 94.6708 236.592C94.7501 236.714 94.9133 236.749 95.0354 236.67Z" fill="white"/>
<path d="M143.254 205.39C143.376 205.311 143.411 205.148 143.332 205.026C143.253 204.904 143.089 204.869 142.967 204.948C142.845 205.028 142.81 205.191 142.89 205.313C142.969 205.435 143.132 205.47 143.254 205.39Z" fill="white"/>
<path d="M159.617 177.791C159.74 177.712 159.774 177.548 159.695 177.426C159.616 177.304 159.453 177.269 159.33 177.349C159.208 177.428 159.174 177.591 159.253 177.713C159.332 177.835 159.495 177.87 159.617 177.791Z" fill="white"/>
<path d="M178.723 188.346C178.845 188.267 178.88 188.104 178.801 187.981C178.721 187.859 178.558 187.825 178.436 187.904C178.314 187.983 178.279 188.146 178.358 188.268C178.438 188.391 178.601 188.425 178.723 188.346Z" fill="white"/>
<path d="M17.7776 278.952C17.8997 278.872 17.9345 278.709 17.8552 278.587C17.776 278.465 17.6127 278.43 17.4906 278.509C17.3685 278.589 17.3338 278.752 17.413 278.874C17.4923 278.996 17.6555 279.031 17.7776 278.952Z" fill="white"/>
<path opacity="0.11" d="M6.70729 269.155C6.82939 269.076 6.86413 268.913 6.78489 268.791C6.70565 268.668 6.54242 268.634 6.42032 268.713C6.29821 268.792 6.26345 268.955 6.3427 269.078C6.42194 269.2 6.58518 269.234 6.70729 269.155Z" fill="white"/>
<path opacity="0.11" d="M0.508052 280.42C0.630161 280.341 0.664916 280.178 0.585672 280.056C0.506428 279.934 0.343206 279.899 0.221097 279.978C0.0989886 280.057 0.0642337 280.221 0.143478 280.343C0.222721 280.465 0.385944 280.5 0.508052 280.42Z" fill="white"/>
<path opacity="0.11" d="M16.4221 288.952C16.5442 288.872 16.579 288.709 16.4997 288.587C16.4205 288.465 16.2573 288.43 16.1352 288.509C16.0131 288.589 15.9783 288.752 16.0575 288.874C16.1368 288.996 16.3 289.031 16.4221 288.952Z" fill="white"/>
<path opacity="0.11" d="M63.3205 245.941C63.4427 245.862 63.4774 245.698 63.3982 245.576C63.3189 245.454 63.1557 245.419 63.0336 245.499C62.9115 245.578 62.8767 245.741 62.956 245.863C63.0352 245.985 63.1984 246.02 63.3205 245.941Z" fill="white"/>
<path opacity="0.11" d="M99.7581 244.932C99.8802 244.853 99.9149 244.69 99.8357 244.567C99.7564 244.445 99.5932 244.411 99.4711 244.49C99.349 244.569 99.3142 244.732 99.3935 244.854C99.4727 244.976 99.636 245.011 99.7581 244.932Z" fill="white"/>
<path opacity="0.11" d="M140.801 215.156C140.923 215.076 140.958 214.913 140.879 214.791C140.799 214.669 140.636 214.634 140.514 214.713C140.392 214.793 140.357 214.956 140.436 215.078C140.516 215.2 140.679 215.235 140.801 215.156Z" fill="white"/>
<path opacity="0.3" d="M24.3674 266.813C24.4896 266.734 24.5243 266.57 24.4451 266.448C24.3658 266.326 24.2026 266.291 24.0805 266.371C23.9584 266.45 23.9236 266.613 24.0029 266.735C24.0821 266.857 24.2453 266.892 24.3674 266.813Z" fill="white"/>
<path d="M67.4964 221.852C67.6185 221.773 67.6532 221.61 67.574 221.488C67.4947 221.366 67.3315 221.331 67.2094 221.41C67.0873 221.489 67.0525 221.653 67.1318 221.775C67.211 221.897 67.3742 221.932 67.4964 221.852Z" fill="white"/>
<path d="M101.266 199.304C101.388 199.224 101.423 199.061 101.343 198.939C101.264 198.817 101.101 198.782 100.979 198.861C100.857 198.941 100.822 199.104 100.901 199.226C100.981 199.348 101.144 199.383 101.266 199.304Z" fill="white"/>
<path d="M65.6526 251.968C65.7747 251.888 65.8094 251.725 65.7302 251.603C65.651 251.481 65.4877 251.446 65.3656 251.525C65.2435 251.605 65.2088 251.768 65.288 251.89C65.3673 252.012 65.5305 252.047 65.6526 251.968Z" fill="white"/>
<path opacity="0.3" d="M50.1643 262.014C50.2864 261.934 50.3212 261.771 50.2419 261.649C50.1627 261.527 49.9995 261.492 49.8773 261.571C49.7552 261.651 49.7205 261.814 49.7997 261.936C49.879 262.058 50.0422 262.093 50.1643 262.014Z" fill="white"/>
<path opacity="0.11" d="M23.1409 260.075C23.263 259.995 23.2977 259.832 23.2185 259.71C23.1393 259.588 22.976 259.553 22.8539 259.632C22.7318 259.712 22.6971 259.875 22.7763 259.997C22.8555 260.119 23.0188 260.154 23.1409 260.075Z" fill="white"/>
<path opacity="0.3" d="M74.926 224.579C75.0481 224.5 75.0829 224.337 75.0036 224.214C74.9244 224.092 74.7612 224.058 74.6391 224.137C74.517 224.216 74.4822 224.379 74.5614 224.501C74.6407 224.623 74.8039 224.658 74.926 224.579Z" fill="white"/>
<path opacity="0.3" d="M72.1526 253.73C72.2747 253.651 72.3094 253.487 72.2302 253.365C72.151 253.243 71.9877 253.208 71.8656 253.288C71.7435 253.367 71.7088 253.53 71.788 253.652C71.8673 253.774 72.0305 253.809 72.1526 253.73Z" fill="white"/>
<path opacity="0.3" d="M46.8166 273.312C46.9388 273.233 46.9735 273.07 46.8943 272.948C46.815 272.826 46.6518 272.791 46.5297 272.87C46.4076 272.949 46.3728 273.113 46.4521 273.235C46.5313 273.357 46.6945 273.392 46.8166 273.312Z" fill="white"/>
<path opacity="0.3" d="M30.7854 262.657C30.9075 262.577 30.9423 262.414 30.863 262.292C30.7838 262.17 30.6205 262.135 30.4984 262.214C30.3763 262.294 30.3416 262.457 30.4208 262.579C30.5001 262.701 30.6633 262.736 30.7854 262.657Z" fill="white"/>
<path opacity="0.3" d="M167.934 172.704C168.056 172.625 168.091 172.462 168.011 172.34C167.932 172.218 167.769 172.183 167.647 172.262C167.525 172.342 167.49 172.505 167.569 172.627C167.649 172.749 167.812 172.784 167.934 172.704Z" fill="white"/>
<path opacity="0.11" d="M126.442 186.744C126.564 186.665 126.599 186.502 126.519 186.379C126.44 186.257 126.277 186.223 126.155 186.302C126.033 186.381 125.998 186.544 126.077 186.666C126.156 186.789 126.32 186.823 126.442 186.744Z" fill="white"/>
<path opacity="0.11" d="M168.145 186.09C168.267 186.01 168.302 185.847 168.222 185.725C168.143 185.603 167.98 185.568 167.858 185.648C167.736 185.727 167.701 185.89 167.78 186.012C167.859 186.134 168.023 186.169 168.145 186.09Z" fill="white"/>
<path opacity="0.3" d="M113.474 224.404C113.718 224.245 113.788 223.918 113.629 223.674C113.471 223.429 113.144 223.36 112.9 223.518C112.655 223.677 112.586 224.004 112.744 224.248C112.903 224.493 113.23 224.562 113.474 224.404Z" fill="white"/>
<path opacity="0.11" d="M122.208 209.293C122.453 209.135 122.522 208.808 122.364 208.563C122.205 208.319 121.878 208.249 121.634 208.408C121.39 208.567 121.32 208.893 121.479 209.138C121.637 209.382 121.964 209.452 122.208 209.293Z" fill="white"/>
<path d="M117.075 201.623C117.258 201.504 117.31 201.259 117.192 201.075C117.073 200.892 116.828 200.84 116.644 200.959C116.461 201.078 116.409 201.323 116.528 201.506C116.647 201.689 116.892 201.742 117.075 201.623Z" fill="white"/>
<path d="M116.884 234.752C117.067 234.633 117.119 234.388 117 234.205C116.881 234.022 116.636 233.969 116.453 234.088C116.27 234.207 116.218 234.452 116.336 234.636C116.455 234.819 116.7 234.871 116.884 234.752Z" fill="white"/>
<path d="M193.2 191.523C193.383 191.404 193.435 191.159 193.317 190.976C193.198 190.793 192.953 190.74 192.769 190.859C192.586 190.978 192.534 191.223 192.653 191.407C192.772 191.59 193.017 191.642 193.2 191.523Z" fill="white"/>
<path d="M47.2078 280.919C47.3911 280.801 47.4433 280.556 47.3243 280.372C47.2054 280.189 46.9604 280.137 46.7771 280.256C46.5939 280.375 46.5417 280.62 46.6607 280.803C46.7796 280.986 47.0246 281.038 47.2078 280.919Z" fill="white"/>
<path d="M14.493 294.926C14.6763 294.807 14.7284 294.562 14.6095 294.379C14.4905 294.195 14.2456 294.143 14.0623 294.262C13.879 294.381 13.8269 294.626 13.9458 294.809C14.0647 294.993 14.3097 295.045 14.493 294.926Z" fill="white"/>
<path d="M4.98129 288.525C5.16455 288.406 5.21671 288.161 5.09778 287.978C4.97884 287.795 4.73385 287.742 4.55058 287.861C4.36732 287.98 4.31517 288.225 4.43411 288.409C4.55304 288.592 4.79802 288.644 4.98129 288.525Z" fill="white"/>
<path d="M109.345 212.939C109.528 212.82 109.58 212.575 109.461 212.392C109.342 212.209 109.097 212.156 108.914 212.275C108.731 212.394 108.678 212.639 108.797 212.823C108.916 213.006 109.161 213.058 109.345 212.939Z" fill="white"/>
<path d="M81.4657 254.28C81.6489 254.161 81.7011 253.916 81.5822 253.733C81.4632 253.55 81.2182 253.498 81.035 253.617C80.8517 253.736 80.7995 253.981 80.9185 254.164C81.0374 254.347 81.2824 254.399 81.4657 254.28Z" fill="white"/>
<path d="M143.388 227.618C143.571 227.499 143.623 227.254 143.504 227.071C143.385 226.888 143.14 226.836 142.957 226.955C142.774 227.074 142.721 227.318 142.84 227.502C142.959 227.685 143.204 227.737 143.388 227.618Z" fill="white"/>
<path d="M192.239 174.538C192.422 174.419 192.475 174.174 192.356 173.991C192.237 173.807 191.992 173.755 191.808 173.874C191.625 173.993 191.573 174.238 191.692 174.421C191.811 174.604 192.056 174.657 192.239 174.538Z" fill="white"/>
<path d="M189.661 158.928C189.844 158.809 189.896 158.564 189.777 158.381C189.659 158.197 189.414 158.145 189.23 158.264C189.047 158.383 188.995 158.628 189.114 158.811C189.233 158.995 189.478 159.047 189.661 158.928Z" fill="white"/>
<path opacity="0.3" d="M135.47 190.003C135.715 189.845 135.784 189.518 135.625 189.273C135.467 189.029 135.14 188.959 134.896 189.118C134.651 189.277 134.582 189.603 134.74 189.848C134.899 190.092 135.226 190.162 135.47 190.003Z" fill="white"/>
<path d="M125.287 174.292C125.531 174.133 125.601 173.806 125.442 173.562C125.283 173.318 124.957 173.248 124.712 173.407C124.468 173.565 124.398 173.892 124.557 174.136C124.715 174.381 125.042 174.45 125.287 174.292Z" fill="white"/>
<path d="M150.024 187.47C150.208 187.351 150.26 187.106 150.141 186.923C150.022 186.739 149.777 186.687 149.594 186.806C149.41 186.925 149.358 187.17 149.477 187.353C149.596 187.537 149.841 187.589 150.024 187.47Z" fill="white"/>
<path opacity="0.3" d="M155.154 171.886C155.398 171.727 155.468 171.4 155.309 171.156C155.15 170.911 154.824 170.842 154.579 171C154.335 171.159 154.265 171.486 154.424 171.73C154.583 171.975 154.909 172.044 155.154 171.886Z" fill="white"/>
<path opacity="0.3" d="M187.232 173.381C187.476 173.222 187.546 172.895 187.387 172.651C187.229 172.406 186.902 172.337 186.657 172.495C186.413 172.654 186.343 172.981 186.502 173.225C186.661 173.47 186.987 173.539 187.232 173.381Z" fill="white"/>
<path opacity="0.3" d="M161.658 190.616C161.902 190.457 161.972 190.13 161.813 189.886C161.654 189.641 161.328 189.572 161.083 189.73C160.839 189.889 160.769 190.216 160.928 190.46C161.086 190.705 161.413 190.774 161.658 190.616Z" fill="white"/>
<path opacity="0.3" d="M37.1381 276.773C37.3825 276.614 37.4521 276.287 37.2934 276.043C37.1348 275.799 36.8081 275.729 36.5637 275.888C36.3192 276.046 36.2497 276.373 36.4083 276.617C36.5669 276.862 36.8937 276.931 37.1381 276.773Z" fill="white"/>
<path opacity="0.3" d="M11.3139 276.236C11.5583 276.077 11.6278 275.75 11.4692 275.506C11.3106 275.261 10.9839 275.192 10.7394 275.35C10.495 275.509 10.4255 275.836 10.5841 276.08C10.7427 276.325 11.0694 276.394 11.3139 276.236Z" fill="white"/>
<path opacity="0.11" d="M173.88 172.625C174.125 172.467 174.194 172.14 174.036 171.895C173.877 171.651 173.55 171.582 173.306 171.74C173.061 171.899 172.992 172.225 173.15 172.47C173.309 172.714 173.636 172.784 173.88 172.625Z" fill="white"/>
<path opacity="0.3" d="M38.0561 248.188C38.3005 248.03 38.37 247.703 38.2114 247.458C38.0528 247.214 37.7261 247.144 37.4816 247.303C37.2372 247.462 37.1676 247.788 37.3263 248.033C37.4849 248.277 37.8116 248.347 38.0561 248.188Z" fill="white"/>
<path opacity="0.11" d="M29.2201 247.641C29.4646 247.482 29.5341 247.156 29.3755 246.911C29.2169 246.667 28.8901 246.597 28.6457 246.756C28.4013 246.914 28.3317 247.241 28.4903 247.486C28.649 247.73 28.9757 247.8 29.2201 247.641Z" fill="white"/>
<path opacity="0.3" d="M36.6264 262.949C36.8708 262.79 36.9403 262.463 36.7817 262.219C36.6231 261.974 36.2964 261.905 36.0519 262.063C35.8075 262.222 35.738 262.549 35.8966 262.793C36.0552 263.038 36.3819 263.107 36.6264 262.949Z" fill="white"/>
<path d="M50.3055 253.753C50.4888 253.634 50.5409 253.389 50.422 253.206C50.3031 253.023 50.0581 252.97 49.8748 253.089C49.6915 253.208 49.6394 253.453 49.7583 253.637C49.8772 253.82 50.1222 253.872 50.3055 253.753Z" fill="white"/>
<path opacity="0.11" d="M122.771 110.426C123.015 110.267 123.085 109.94 122.926 109.696C122.768 109.451 122.441 109.382 122.196 109.54C121.952 109.699 121.882 110.026 122.041 110.27C122.2 110.515 122.526 110.584 122.771 110.426Z" fill="white"/>
<path d="M125.782 111.927C125.965 111.808 126.017 111.563 125.899 111.38C125.78 111.196 125.535 111.144 125.351 111.263C125.168 111.382 125.116 111.627 125.235 111.81C125.354 111.994 125.599 112.046 125.782 111.927Z" fill="white"/>
<path d="M130.063 102.54C130.247 102.421 130.299 102.176 130.18 101.993C130.061 101.81 129.816 101.758 129.633 101.876C129.449 101.995 129.397 102.24 129.516 102.424C129.635 102.607 129.88 102.659 130.063 102.54Z" fill="white"/>
<path d="M110.95 114.308C111.133 114.189 111.185 113.944 111.067 113.761C110.948 113.577 110.703 113.525 110.519 113.644C110.336 113.763 110.284 114.008 110.403 114.191C110.522 114.374 110.767 114.427 110.95 114.308Z" fill="white"/>
<path opacity="0.11" d="M103.47 126.72C103.715 126.562 103.784 126.235 103.625 125.991C103.467 125.746 103.14 125.677 102.896 125.835C102.651 125.994 102.582 126.321 102.74 126.565C102.899 126.81 103.226 126.879 103.47 126.72Z" fill="white"/>
<path d="M96.0901 124.581C96.2122 124.502 96.247 124.339 96.1677 124.217C96.0885 124.095 95.9252 124.06 95.8031 124.139C95.681 124.218 95.6463 124.382 95.7255 124.504C95.8048 124.626 95.968 124.661 96.0901 124.581Z" fill="white"/>
<path d="M127.707 119.485C127.829 119.406 127.864 119.243 127.785 119.121C127.706 118.999 127.542 118.964 127.42 119.043C127.298 119.122 127.263 119.286 127.343 119.408C127.422 119.53 127.585 119.564 127.707 119.485Z" fill="white"/>
<path d="M175.922 88.1893C176.044 88.1101 176.079 87.9469 176 87.8247C175.92 87.7026 175.757 87.6679 175.635 87.7471C175.513 87.8264 175.478 87.9896 175.558 88.1117C175.637 88.2338 175.8 88.2686 175.922 88.1893Z" fill="white"/>
<path d="M192.266 60.6039C192.388 60.5246 192.423 60.3614 192.343 60.2393C192.264 60.1172 192.101 60.0824 191.979 60.1617C191.857 60.2409 191.822 60.4042 191.901 60.5263C191.981 60.6484 192.144 60.6831 192.266 60.6039Z" fill="white"/>
<path d="M211.379 71.1508C211.501 71.0715 211.536 70.9083 211.457 70.7862C211.378 70.6641 211.214 70.6293 211.092 70.7086C210.97 70.7878 210.935 70.951 211.015 71.0732C211.094 71.1953 211.257 71.23 211.379 71.1508Z" fill="white"/>
<path d="M50.4495 161.757C50.5716 161.678 50.6063 161.515 50.5271 161.393C50.4478 161.271 50.2846 161.236 50.1625 161.315C50.0404 161.394 50.0056 161.557 50.0849 161.68C50.1641 161.802 50.3274 161.836 50.4495 161.757Z" fill="white"/>
<path opacity="0.11" d="M39.3674 151.966C39.4895 151.887 39.5243 151.724 39.445 151.602C39.3658 151.479 39.2026 151.445 39.0805 151.524C38.9584 151.603 38.9236 151.766 39.0029 151.889C39.0821 152.011 39.2453 152.045 39.3674 151.966Z" fill="white"/>
<path opacity="0.11" d="M33.1682 163.226C33.2903 163.147 33.3251 162.983 33.2458 162.861C33.1666 162.739 33.0034 162.705 32.8813 162.784C32.7591 162.863 32.7244 163.026 32.8036 163.148C32.8829 163.27 33.0461 163.305 33.1682 163.226Z" fill="white"/>
<path opacity="0.11" d="M49.0784 171.761C49.2005 171.681 49.2352 171.518 49.156 171.396C49.0767 171.274 48.9135 171.239 48.7914 171.318C48.6693 171.398 48.6346 171.561 48.7138 171.683C48.793 171.805 48.9563 171.84 49.0784 171.761Z" fill="white"/>
<path opacity="0.11" d="M95.9729 128.747C96.095 128.668 96.1298 128.504 96.0505 128.382C95.9713 128.26 95.808 128.226 95.6859 128.305C95.5638 128.384 95.5291 128.547 95.6083 128.669C95.6876 128.791 95.8508 128.826 95.9729 128.747Z" fill="white"/>
<path opacity="0.11" d="M132.414 127.741C132.536 127.661 132.571 127.498 132.492 127.376C132.413 127.254 132.249 127.219 132.127 127.298C132.005 127.378 131.97 127.541 132.05 127.663C132.129 127.785 132.292 127.82 132.414 127.741Z" fill="white"/>
<path opacity="0.11" d="M173.457 97.9642C173.579 97.885 173.614 97.7218 173.535 97.5997C173.456 97.4775 173.292 97.4428 173.17 97.522C173.048 97.6013 173.013 97.7645 173.093 97.8866C173.172 98.0087 173.335 98.0435 173.457 97.9642Z" fill="white"/>
<path opacity="0.3" d="M57.0315 149.622C57.1536 149.543 57.1884 149.38 57.1091 149.258C57.0299 149.136 56.8666 149.101 56.7445 149.18C56.6224 149.259 56.5877 149.423 56.6669 149.545C56.7462 149.667 56.9094 149.702 57.0315 149.622Z" fill="white"/>
<path d="M100.153 104.658C100.275 104.579 100.309 104.416 100.23 104.294C100.151 104.171 99.9877 104.137 99.8656 104.216C99.7435 104.295 99.7088 104.458 99.788 104.58C99.8673 104.703 100.03 104.737 100.153 104.658Z" fill="white"/>
<path d="M133.934 82.1078C134.056 82.0285 134.091 81.8653 134.011 81.7432C133.932 81.6211 133.769 81.5864 133.647 81.6656C133.525 81.7448 133.49 81.9081 133.569 82.0302C133.649 82.1523 133.812 82.187 133.934 82.1078Z" fill="white"/>
<path d="M98.3167 134.773C98.4388 134.694 98.4735 134.53 98.3943 134.408C98.315 134.286 98.1518 134.251 98.0297 134.331C97.9076 134.41 97.8728 134.573 97.9521 134.695C98.0313 134.817 98.1945 134.852 98.3167 134.773Z" fill="white"/>
<path opacity="0.3" d="M82.8323 144.824C82.9544 144.744 82.9891 144.581 82.9099 144.459C82.8306 144.337 82.6674 144.302 82.5453 144.381C82.4232 144.461 82.3885 144.624 82.4677 144.746C82.5469 144.868 82.7102 144.903 82.8323 144.824Z" fill="white"/>
<path opacity="0.11" d="M55.7932 142.877C55.9153 142.798 55.9501 142.635 55.8708 142.513C55.7916 142.391 55.6284 142.356 55.5062 142.435C55.3841 142.514 55.3494 142.678 55.4286 142.8C55.5079 142.922 55.6711 142.957 55.7932 142.877Z" fill="white"/>
<path opacity="0.3" d="M107.578 107.385C107.7 107.305 107.735 107.142 107.656 107.02C107.577 106.898 107.414 106.863 107.291 106.942C107.169 107.022 107.135 107.185 107.214 107.307C107.293 107.429 107.456 107.464 107.578 107.385Z" fill="white"/>
<path opacity="0.3" d="M104.805 136.534C104.927 136.455 104.962 136.292 104.883 136.169C104.803 136.047 104.64 136.013 104.518 136.092C104.396 136.171 104.361 136.334 104.44 136.456C104.52 136.579 104.683 136.613 104.805 136.534Z" fill="white"/>
<path opacity="0.3" d="M79.4768 156.119C79.5989 156.039 79.6337 155.876 79.5544 155.754C79.4752 155.632 79.312 155.597 79.1898 155.676C79.0677 155.756 79.033 155.919 79.1122 156.041C79.1915 156.163 79.3547 156.198 79.4768 156.119Z" fill="white"/>
<path opacity="0.3" d="M63.4378 145.461C63.5599 145.382 63.5946 145.218 63.5154 145.096C63.4361 144.974 63.2729 144.939 63.1508 145.019C63.0287 145.098 62.9939 145.261 63.0732 145.383C63.1524 145.505 63.3156 145.54 63.4378 145.461Z" fill="white"/>
<path opacity="0.3" d="M200.594 55.5101C200.716 55.4309 200.751 55.2677 200.672 55.1456C200.592 55.0234 200.429 54.9887 200.307 55.0679C200.185 55.1472 200.15 55.3104 200.229 55.4325C200.309 55.5546 200.472 55.5894 200.594 55.5101Z" fill="white"/>
<path opacity="0.11" d="M159.11 69.5502C159.232 69.4709 159.266 69.3077 159.187 69.1856C159.108 69.0635 158.945 69.0287 158.823 69.108C158.701 69.1872 158.666 69.3504 158.745 69.4726C158.824 69.5947 158.988 69.6294 159.11 69.5502Z" fill="white"/>
<path opacity="0.11" d="M200.809 68.8969C200.931 68.8176 200.966 68.6544 200.886 68.5323C200.807 68.4102 200.644 68.3754 200.522 68.4547C200.4 68.5339 200.365 68.6971 200.444 68.8192C200.524 68.9413 200.687 68.9761 200.809 68.8969Z" fill="white"/>
<path opacity="0.3" d="M146.138 107.208C146.383 107.05 146.452 106.723 146.293 106.479C146.135 106.234 145.808 106.165 145.564 106.323C145.319 106.482 145.25 106.809 145.408 107.053C145.567 107.297 145.894 107.367 146.138 107.208Z" fill="white"/>
<path opacity="0.11" d="M154.869 92.1023C155.113 91.9437 155.183 91.617 155.024 91.3725C154.865 91.1281 154.539 91.0586 154.294 91.2172C154.05 91.3758 153.98 91.7025 154.139 91.947C154.297 92.1914 154.624 92.2609 154.869 92.1023Z" fill="white"/>
<path d="M149.735 84.4302C149.918 84.3113 149.971 84.0663 149.852 83.8831C149.733 83.6998 149.488 83.6476 149.304 83.7666C149.121 83.8855 149.069 84.1305 149.188 84.3138C149.307 84.497 149.552 84.5492 149.735 84.4302Z" fill="white"/>
<path d="M149.556 117.563C149.739 117.444 149.791 117.199 149.672 117.015C149.553 116.832 149.308 116.78 149.125 116.899C148.942 117.018 148.889 117.263 149.008 117.446C149.127 117.629 149.372 117.682 149.556 117.563Z" fill="white"/>
<path d="M225.852 74.3223C226.036 74.2034 226.088 73.9584 225.969 73.7752C225.85 73.5919 225.605 73.5397 225.422 73.6587C225.238 73.7776 225.186 74.0226 225.305 74.2059C225.424 74.3891 225.669 74.4413 225.852 74.3223Z" fill="white"/>
<path d="M79.868 163.731C80.0513 163.612 80.1034 163.367 79.9845 163.183C79.8656 163 79.6206 162.948 79.4373 163.067C79.254 163.186 79.2019 163.431 79.3208 163.614C79.4398 163.797 79.6847 163.849 79.868 163.731Z" fill="white"/>
<path d="M47.1297 177.734C47.313 177.616 47.3651 177.371 47.2462 177.187C47.1273 177.004 46.8823 176.952 46.699 177.071C46.5158 177.19 46.4636 177.435 46.5825 177.618C46.7015 177.801 46.9464 177.853 47.1297 177.734Z" fill="white"/>
<path d="M37.6414 171.322C37.8247 171.203 37.8769 170.958 37.7579 170.775C37.639 170.591 37.394 170.539 37.2107 170.658C37.0275 170.777 36.9753 171.022 37.0943 171.205C37.2132 171.389 37.4582 171.441 37.6414 171.322Z" fill="white"/>
<path d="M141.993 95.7432C142.176 95.6243 142.228 95.3793 142.109 95.1961C141.991 95.0128 141.746 94.9606 141.562 95.0796C141.379 95.1985 141.327 95.4435 141.446 95.6268C141.565 95.81 141.81 95.8622 141.993 95.7432Z" fill="white"/>
<path d="M114.134 137.087C114.317 136.969 114.369 136.724 114.25 136.54C114.131 136.357 113.886 136.305 113.703 136.424C113.52 136.543 113.468 136.788 113.586 136.971C113.705 137.154 113.95 137.206 114.134 137.087Z" fill="white"/>
<path d="M176.04 110.428C176.223 110.309 176.275 110.064 176.156 109.881C176.037 109.698 175.792 109.646 175.609 109.765C175.426 109.884 175.374 110.129 175.493 110.312C175.612 110.495 175.857 110.547 176.04 110.428Z" fill="white"/>
<path d="M224.907 57.3404C225.09 57.2215 225.142 56.9765 225.024 56.7932C224.905 56.61 224.66 56.5578 224.476 56.6767C224.293 56.7957 224.241 57.0407 224.36 57.2239C224.479 57.4072 224.724 57.4593 224.907 57.3404Z" fill="white"/>
<path d="M222.317 41.7398C222.5 41.6209 222.553 41.3759 222.434 41.1927C222.315 41.0094 222.07 40.9572 221.887 41.0762C221.703 41.1951 221.651 41.4401 221.77 41.6233C221.889 41.8066 222.134 41.8588 222.317 41.7398Z" fill="white"/>
<path opacity="0.3" d="M168.142 72.8055C168.386 72.6468 168.456 72.3201 168.297 72.0757C168.139 71.8312 167.812 71.7617 167.568 71.9203C167.323 72.0789 167.254 72.4057 167.412 72.6501C167.571 72.8945 167.898 72.9641 168.142 72.8055Z" fill="white"/>
<path d="M157.951 57.1043C158.195 56.9457 158.265 56.6189 158.106 56.3745C157.947 56.1301 157.621 56.0605 157.376 56.2191C157.132 56.3778 157.062 56.7045 157.221 56.9489C157.379 57.1933 157.706 57.2629 157.951 57.1043Z" fill="white"/>
<path d="M182.684 70.2813C182.868 70.1624 182.92 69.9174 182.801 69.7341C182.682 69.5509 182.437 69.4987 182.254 69.6177C182.07 69.7366 182.018 69.9816 182.137 70.1648C182.256 70.3481 182.501 70.4003 182.684 70.2813Z" fill="white"/>
<path opacity="0.3" d="M187.818 54.6971C188.062 54.5384 188.132 54.2117 187.973 53.9673C187.815 53.7229 187.488 53.6533 187.243 53.8119C186.999 53.9705 186.929 54.2973 187.088 54.5417C187.247 54.7861 187.573 54.8557 187.818 54.6971Z" fill="white"/>
<path opacity="0.3" d="M219.908 56.1853C220.152 56.0267 220.222 55.7 220.063 55.4556C219.904 55.2111 219.578 55.1416 219.333 55.3002C219.089 55.4588 219.019 55.7855 219.178 56.03C219.336 56.2744 219.663 56.344 219.908 56.1853Z" fill="white"/>
<path opacity="0.3" d="M194.314 73.428C194.558 73.2694 194.628 72.9427 194.469 72.6982C194.311 72.4538 193.984 72.3842 193.739 72.5429C193.495 72.7015 193.425 73.0282 193.584 73.2727C193.743 73.5171 194.069 73.5866 194.314 73.428Z" fill="white"/>
<path opacity="0.3" d="M69.7865 159.581C70.031 159.423 70.1005 159.096 69.9419 158.852C69.7833 158.607 69.4565 158.538 69.2121 158.696C68.9677 158.855 68.8981 159.182 69.0567 159.426C69.2154 159.67 69.5421 159.74 69.7865 159.581Z" fill="white"/>
<path opacity="0.3" d="M43.9662 159.042C44.2106 158.883 44.2802 158.556 44.1216 158.312C43.9629 158.068 43.6362 157.998 43.3918 158.157C43.1474 158.315 43.0778 158.642 43.2364 158.886C43.3951 159.131 43.7218 159.2 43.9662 159.042Z" fill="white"/>
<path opacity="0.11" d="M206.537 55.4363C206.781 55.2777 206.851 54.951 206.692 54.7065C206.533 54.4621 206.207 54.3925 205.962 54.5512C205.718 54.7098 205.648 55.0365 205.807 55.281C205.965 55.5254 206.292 55.5949 206.537 55.4363Z" fill="white"/>
<path opacity="0.3" d="M70.7201 130.991C70.9645 130.833 71.0341 130.506 70.8755 130.262C70.7169 130.017 70.3901 129.948 70.1457 130.106C69.9013 130.265 69.8317 130.592 69.9903 130.836C70.149 131.081 70.4757 131.15 70.7201 130.991Z" fill="white"/>
<path opacity="0.11" d="M61.8725 130.45C62.1169 130.292 62.1864 129.965 62.0278 129.721C61.8692 129.476 61.5425 129.407 61.298 129.565C61.0536 129.724 60.9841 130.051 61.1427 130.295C61.3013 130.54 61.628 130.609 61.8725 130.45Z" fill="white"/>
<path opacity="0.3" d="M69.2943 145.755C69.5388 145.596 69.6083 145.269 69.4497 145.025C69.2911 144.78 68.9643 144.711 68.7199 144.87C68.4755 145.028 68.4059 145.355 68.5646 145.599C68.7232 145.844 69.0499 145.913 69.2943 145.755Z" fill="white"/>
<path d="M82.9813 136.558C83.1645 136.439 83.2167 136.194 83.0978 136.011C82.9788 135.827 82.7339 135.775 82.5506 135.894C82.3673 136.013 82.3152 136.258 82.4341 136.441C82.553 136.624 82.798 136.677 82.9813 136.558Z" fill="white"/>
<path opacity="0.11" d="M261.564 69.6014C261.808 69.4427 261.878 69.116 261.719 68.8716C261.561 68.6271 261.234 68.5576 260.989 68.7162C260.745 68.8748 260.675 69.2016 260.834 69.446C260.993 69.6904 261.319 69.76 261.564 69.6014Z" fill="white"/>
<path d="M264.587 71.1002C264.77 70.9812 264.822 70.7363 264.703 70.553C264.584 70.3697 264.339 70.3176 264.156 70.4365C263.973 70.5554 263.921 70.8004 264.04 70.9837C264.158 71.167 264.403 71.2191 264.587 71.1002Z" fill="white"/>
<path d="M268.856 61.7247C269.04 61.6058 269.092 61.3608 268.973 61.1775C268.854 60.9942 268.609 60.9421 268.426 61.061C268.242 61.18 268.19 61.4249 268.309 61.6082C268.428 61.7915 268.673 61.8436 268.856 61.7247Z" fill="white"/>
<path d="M249.786 73.4805C249.969 73.3616 250.021 73.1166 249.902 72.9334C249.784 72.7501 249.539 72.698 249.355 72.8169C249.172 72.9358 249.12 73.1808 249.239 73.3641C249.358 73.5473 249.603 73.5995 249.786 73.4805Z" fill="white"/>
<path opacity="0.11" d="M242.287 85.8943C242.531 85.7357 242.6 85.409 242.442 85.1645C242.283 84.9201 241.957 84.8506 241.712 85.0092C241.468 85.1678 241.398 85.4945 241.557 85.739C241.715 85.9834 242.042 86.0529 242.287 85.8943Z" fill="white"/>
<path d="M234.91 83.7523C235.033 83.6731 235.067 83.5099 234.988 83.3878C234.909 83.2656 234.746 83.2309 234.623 83.3101C234.501 83.3894 234.467 83.5526 234.546 83.6747C234.625 83.7968 234.788 83.8316 234.91 83.7523Z" fill="white"/>
<path d="M266.512 78.6576C266.634 78.5783 266.669 78.4151 266.59 78.293C266.51 78.1709 266.347 78.1362 266.225 78.2154C266.103 78.2946 266.068 78.4579 266.147 78.58C266.227 78.7021 266.39 78.7368 266.512 78.6576Z" fill="white"/>
<path d="M314.742 47.3661C314.865 47.2869 314.899 47.1236 314.82 47.0015C314.741 46.8794 314.578 46.8447 314.455 46.9239C314.333 47.0031 314.299 47.1664 314.378 47.2885C314.457 47.4106 314.62 47.4453 314.742 47.3661Z" fill="white"/>
<path d="M331.082 19.7758C331.204 19.6965 331.239 19.5333 331.16 19.4112C331.081 19.2891 330.917 19.2543 330.795 19.3336C330.673 19.4128 330.638 19.576 330.718 19.6981C330.797 19.8203 330.96 19.855 331.082 19.7758Z" fill="white"/>
<path d="M350.196 30.3256C350.318 30.2463 350.352 30.0831 350.273 29.961C350.194 29.8389 350.031 29.8041 349.909 29.8834C349.787 29.9626 349.752 30.1258 349.831 30.248C349.91 30.3701 350.073 30.4048 350.196 30.3256Z" fill="white"/>
<path d="M189.254 120.935C189.376 120.856 189.411 120.692 189.332 120.57C189.253 120.448 189.089 120.414 188.967 120.493C188.845 120.572 188.81 120.735 188.89 120.857C188.969 120.979 189.132 121.014 189.254 120.935Z" fill="white"/>
<path opacity="0.11" d="M178.172 111.138C178.294 111.058 178.329 110.895 178.25 110.773C178.171 110.651 178.007 110.616 177.885 110.695C177.763 110.775 177.728 110.938 177.808 111.06C177.887 111.182 178.05 111.217 178.172 111.138Z" fill="white"/>
<path opacity="0.11" d="M171.985 122.399C172.107 122.32 172.141 122.156 172.062 122.034C171.983 121.912 171.82 121.877 171.698 121.957C171.576 122.036 171.541 122.199 171.62 122.321C171.699 122.443 171.863 122.478 171.985 122.399Z" fill="white"/>
<path opacity="0.11" d="M187.871 130.936C187.993 130.857 188.028 130.693 187.949 130.571C187.87 130.449 187.706 130.414 187.584 130.494C187.462 130.573 187.428 130.736 187.507 130.858C187.586 130.98 187.749 131.015 187.871 130.936Z" fill="white"/>
<path opacity="0.11" d="M234.793 87.9242C234.915 87.8449 234.95 87.6817 234.871 87.5596C234.792 87.4375 234.628 87.4028 234.506 87.482C234.384 87.5612 234.349 87.7245 234.429 87.8466C234.508 87.9687 234.671 88.0034 234.793 87.9242Z" fill="white"/>
<path opacity="0.11" d="M271.227 86.913C271.349 86.8337 271.384 86.6705 271.304 86.5484C271.225 86.4263 271.062 86.3915 270.94 86.4708C270.818 86.55 270.783 86.7132 270.862 86.8354C270.941 86.9575 271.105 86.9922 271.227 86.913Z" fill="white"/>
<path opacity="0.11" d="M312.242 57.1342C312.365 57.0549 312.399 56.8917 312.32 56.7696C312.241 56.6475 312.078 56.6127 311.955 56.692C311.833 56.7712 311.799 56.9344 311.878 57.0565C311.957 57.1787 312.12 57.2134 312.242 57.1342Z" fill="white"/>
<path opacity="0.3" d="M195.836 108.8C195.958 108.72 195.993 108.557 195.914 108.435C195.835 108.313 195.671 108.278 195.549 108.357C195.427 108.437 195.392 108.6 195.472 108.722C195.551 108.844 195.714 108.879 195.836 108.8Z" fill="white"/>
<path d="M238.961 63.8358C239.083 63.7566 239.118 63.5933 239.039 63.4712C238.96 63.3491 238.796 63.3144 238.674 63.3936C238.552 63.4729 238.517 63.6361 238.597 63.7582C238.676 63.8803 238.839 63.9151 238.961 63.8358Z" fill="white"/>
<path d="M272.75 41.2885C272.872 41.2092 272.907 41.046 272.828 40.9239C272.749 40.8018 272.585 40.767 272.463 40.8463C272.341 40.9255 272.306 41.0887 272.386 41.2108C272.465 41.333 272.628 41.3677 272.75 41.2885Z" fill="white"/>
<path d="M237.145 93.9491C237.267 93.8699 237.302 93.7066 237.222 93.5845C237.143 93.4624 236.98 93.4277 236.858 93.5069C236.736 93.5861 236.701 93.7494 236.78 93.8715C236.859 93.9936 237.023 94.0283 237.145 93.9491Z" fill="white"/>
<path opacity="0.3" d="M221.637 103.997C221.759 103.918 221.794 103.754 221.715 103.632C221.635 103.51 221.472 103.476 221.35 103.555C221.228 103.634 221.193 103.797 221.272 103.919C221.352 104.041 221.515 104.076 221.637 103.997Z" fill="white"/>
<path opacity="0.11" d="M194.614 102.054C194.736 101.974 194.77 101.811 194.691 101.689C194.612 101.567 194.449 101.532 194.327 101.611C194.204 101.691 194.17 101.854 194.249 101.976C194.328 102.098 194.491 102.133 194.614 102.054Z" fill="white"/>
<path opacity="0.3" d="M246.391 66.5648C246.513 66.4856 246.548 66.3224 246.468 66.2002C246.389 66.0781 246.226 66.0434 246.104 66.1226C245.982 66.2019 245.947 66.3651 246.026 66.4872C246.106 66.6093 246.269 66.6441 246.391 66.5648Z" fill="white"/>
<path opacity="0.3" d="M243.606 95.7094C243.728 95.6301 243.763 95.4669 243.683 95.3448C243.604 95.2227 243.441 95.1879 243.319 95.2672C243.197 95.3464 243.162 95.5096 243.241 95.6317C243.32 95.7538 243.484 95.7886 243.606 95.7094Z" fill="white"/>
<path opacity="0.3" d="M218.297 115.296C218.419 115.217 218.454 115.053 218.375 114.931C218.296 114.809 218.132 114.774 218.01 114.854C217.888 114.933 217.853 115.096 217.933 115.218C218.012 115.34 218.175 115.375 218.297 115.296Z" fill="white"/>
<path opacity="0.3" d="M202.254 104.636C202.376 104.556 202.411 104.393 202.332 104.271C202.253 104.149 202.089 104.114 201.967 104.193C201.845 104.273 201.81 104.436 201.89 104.558C201.969 104.68 202.132 104.715 202.254 104.636Z" fill="white"/>
<path opacity="0.3" d="M339.426 14.6869C339.548 14.6076 339.583 14.4444 339.504 14.3223C339.424 14.2002 339.261 14.1654 339.139 14.2447C339.017 14.3239 338.982 14.4872 339.061 14.6093C339.141 14.7314 339.304 14.7661 339.426 14.6869Z" fill="white"/>
<path opacity="0.11" d="M297.903 28.723C298.025 28.6438 298.059 28.4806 297.98 28.3584C297.901 28.2363 297.738 28.2016 297.616 28.2808C297.494 28.3601 297.459 28.5233 297.538 28.6454C297.617 28.7675 297.78 28.8023 297.903 28.723Z" fill="white"/>
<path opacity="0.11" d="M339.602 28.0722C339.724 27.9929 339.759 27.8297 339.679 27.7076C339.6 27.5855 339.437 27.5507 339.315 27.63C339.193 27.7092 339.158 27.8724 339.237 27.9945C339.316 28.1166 339.48 28.1514 339.602 28.0722Z" fill="white"/>
<path opacity="0.3" d="M284.958 66.3743C285.203 66.2157 285.272 65.8889 285.114 65.6445C284.955 65.4001 284.628 65.3305 284.384 65.4891C284.14 65.6478 284.07 65.9745 284.229 66.2189C284.387 66.4634 284.714 66.5329 284.958 66.3743Z" fill="white"/>
<path opacity="0.11" d="M293.681 51.2713C293.925 51.1126 293.995 50.7859 293.836 50.5415C293.678 50.2971 293.351 50.2275 293.107 50.3861C292.862 50.5448 292.793 50.8715 292.951 51.1159C293.11 51.3603 293.437 51.4299 293.681 51.2713Z" fill="white"/>
<path d="M288.544 43.6016C288.727 43.4827 288.779 43.2377 288.66 43.0545C288.541 42.8712 288.296 42.819 288.113 42.938C287.93 43.0569 287.878 43.3019 287.997 43.4852C288.116 43.6684 288.361 43.7206 288.544 43.6016Z" fill="white"/>
<path d="M288.36 76.7374C288.543 76.6185 288.596 76.3735 288.477 76.1902C288.358 76.0069 288.113 75.9548 287.929 76.0737C287.746 76.1927 287.694 76.4376 287.813 76.6209C287.932 76.8042 288.177 76.8563 288.36 76.7374Z" fill="white"/>
<path d="M364.669 33.5015C364.852 33.3826 364.904 33.1376 364.785 32.9544C364.666 32.7711 364.421 32.7189 364.238 32.8379C364.055 32.9568 364.003 33.2018 364.122 33.3851C364.241 33.5683 364.486 33.6205 364.669 33.5015Z" fill="white"/>
<path d="M218.661 122.905C218.844 122.786 218.896 122.541 218.777 122.358C218.659 122.174 218.414 122.122 218.23 122.241C218.047 122.36 217.995 122.605 218.114 122.788C218.233 122.972 218.478 123.024 218.661 122.905Z" fill="white"/>
<path d="M185.95 136.909C186.133 136.79 186.185 136.545 186.067 136.362C185.948 136.179 185.703 136.127 185.519 136.246C185.336 136.365 185.284 136.609 185.403 136.793C185.522 136.976 185.767 137.028 185.95 136.909Z" fill="white"/>
<path d="M176.454 130.502C176.637 130.383 176.689 130.138 176.57 129.954C176.451 129.771 176.207 129.719 176.023 129.838C175.84 129.957 175.788 130.202 175.907 130.385C176.026 130.568 176.271 130.62 176.454 130.502Z" fill="white"/>
<path d="M280.817 54.9166C281 54.7977 281.053 54.5527 280.934 54.3694C280.815 54.1861 280.57 54.134 280.387 54.2529C280.203 54.3719 280.151 54.6168 280.27 54.8001C280.389 54.9834 280.634 55.0355 280.817 54.9166Z" fill="white"/>
<path d="M252.938 96.2628C253.122 96.1438 253.174 95.8989 253.055 95.7156C252.936 95.5323 252.691 95.4802 252.508 95.5991C252.324 95.718 252.272 95.963 252.391 96.1463C252.51 96.3296 252.755 96.3817 252.938 96.2628Z" fill="white"/>
<path d="M314.852 69.6016C315.036 69.4827 315.088 69.2377 314.969 69.0545C314.85 68.8712 314.605 68.819 314.422 68.938C314.238 69.0569 314.186 69.3019 314.305 69.4852C314.424 69.6684 314.669 69.7206 314.852 69.6016Z" fill="white"/>
<path d="M363.708 16.5191C363.891 16.4002 363.943 16.1552 363.824 15.972C363.705 15.7887 363.46 15.7365 363.277 15.8555C363.094 15.9744 363.042 16.2194 363.161 16.4026C363.28 16.5859 363.525 16.6381 363.708 16.5191Z" fill="white"/>
<path d="M361.13 0.907798C361.313 0.788865 361.365 0.543888 361.246 0.360621C361.127 0.177354 360.882 0.125196 360.699 0.24413C360.516 0.363063 360.464 0.60804 360.583 0.791307C360.701 0.974574 360.946 1.02673 361.13 0.907798Z" fill="white"/>
<path opacity="0.3" d="M306.951 31.9832C307.195 31.8245 307.265 31.4978 307.106 31.2534C306.947 31.009 306.621 30.9394 306.376 31.098C306.132 31.2567 306.062 31.5834 306.221 31.8278C306.379 32.0722 306.706 32.1418 306.951 31.9832Z" fill="white"/>
<path d="M296.755 16.2737C297 16.1151 297.069 15.7884 296.911 15.5439C296.752 15.2995 296.425 15.2299 296.181 15.3886C295.936 15.5472 295.867 15.8739 296.025 16.1184C296.184 16.3628 296.511 16.4323 296.755 16.2737Z" fill="white"/>
<path d="M321.481 29.4566C321.665 29.3377 321.717 29.0927 321.598 28.9094C321.479 28.7262 321.234 28.674 321.051 28.793C320.867 28.9119 320.815 29.1569 320.934 29.3401C321.053 29.5234 321.298 29.5756 321.481 29.4566Z" fill="white"/>
<path opacity="0.3" d="M326.615 13.868C326.859 13.7093 326.929 13.3826 326.77 13.1382C326.611 12.8937 326.285 12.8242 326.04 12.9828C325.796 13.1414 325.726 13.4682 325.885 13.7126C326.043 13.957 326.37 14.0266 326.615 13.868Z" fill="white"/>
<path opacity="0.3" d="M358.728 15.3616C358.972 15.203 359.042 14.8762 358.883 14.6318C358.725 14.3874 358.398 14.3178 358.154 14.4765C357.909 14.6351 357.84 14.9618 357.998 15.2062C358.157 15.4507 358.484 15.5202 358.728 15.3616Z" fill="white"/>
<path opacity="0.3" d="M333.119 32.5955C333.363 32.4369 333.433 32.1101 333.274 31.8657C333.115 31.6213 332.789 31.5517 332.544 31.7103C332.3 31.869 332.23 32.1957 332.389 32.4401C332.547 32.6846 332.874 32.7541 333.119 32.5955Z" fill="white"/>
<path opacity="0.3" d="M208.587 118.758C208.832 118.599 208.901 118.273 208.743 118.028C208.584 117.784 208.257 117.714 208.013 117.873C207.768 118.032 207.699 118.358 207.858 118.603C208.016 118.847 208.343 118.917 208.587 118.758Z" fill="white"/>
<path opacity="0.3" d="M182.775 118.214C183.019 118.056 183.089 117.729 182.93 117.484C182.772 117.24 182.445 117.17 182.2 117.329C181.956 117.488 181.886 117.814 182.045 118.059C182.204 118.303 182.53 118.373 182.775 118.214Z" fill="white"/>
<path opacity="0.11" d="M345.345 14.6087C345.59 14.4501 345.659 14.1233 345.5 13.8789C345.342 13.6345 345.015 13.5649 344.771 13.7235C344.526 13.8822 344.457 14.2089 344.615 14.4533C344.774 14.6977 345.101 14.7673 345.345 14.6087Z" fill="white"/>
<path opacity="0.3" d="M209.517 90.1717C209.761 90.013 209.831 89.6863 209.672 89.4419C209.514 89.1975 209.187 89.1279 208.943 89.2865C208.698 89.4451 208.629 89.7719 208.787 90.0163C208.946 90.2607 209.273 90.3303 209.517 90.1717Z" fill="white"/>
<path opacity="0.11" d="M200.677 89.6233C200.922 89.4647 200.991 89.138 200.833 88.8935C200.674 88.6491 200.347 88.5796 200.103 88.7382C199.858 88.8968 199.789 89.2235 199.947 89.468C200.106 89.7124 200.433 89.7819 200.677 89.6233Z" fill="white"/>
<path opacity="0.3" d="M208.107 104.928C208.351 104.769 208.421 104.442 208.262 104.198C208.104 103.953 207.777 103.884 207.532 104.042C207.288 104.201 207.218 104.528 207.377 104.772C207.536 105.017 207.862 105.086 208.107 104.928Z" fill="white"/>
<path d="M221.763 95.7354C221.946 95.6165 221.998 95.3715 221.879 95.1882C221.76 95.005 221.515 94.9528 221.332 95.0718C221.149 95.1907 221.096 95.4357 221.215 95.6189C221.334 95.8022 221.579 95.8544 221.763 95.7354Z" fill="white"/>
</g>
</svg>
