<svg width="100" height="100" viewBox="0 0 100 100" fill="none" xmlns="http://www.w3.org/2000/svg">
<rect width="100" height="100" rx="20" fill="url(#paint0_linear_104_105)"/>
<g clip-path="url(#clip0_104_105)">
<path d="M25 50C25 54.9445 26.4662 59.778 29.2133 63.8893C31.9603 68.0005 35.8648 71.2048 40.4329 73.097C45.0011 74.9892 50.0277 75.4843 54.8773 74.5196C59.7268 73.555 64.1814 71.174 67.6777 67.6777C71.174 64.1814 73.555 59.7268 74.5196 54.8773C75.4843 50.0277 74.9892 45.0011 73.097 40.4329C71.2048 35.8648 68.0005 31.9603 63.8893 29.2133C59.778 26.4662 54.9445 25 50 25C43.3718 25.0072 37.0171 27.6434 32.3302 32.3302C27.6434 37.0171 25.0072 43.3718 25 50ZM58.3333 50C58.3349 51.525 57.7775 52.9977 56.7667 54.1396C56.1604 54.8208 55.5708 55.4667 55.1479 55.8896L49.2646 61.875C49.0762 62.0831 48.8477 62.2509 48.5929 62.3685C48.338 62.486 48.062 62.5509 47.7815 62.5591C47.5009 62.5674 47.2216 62.5189 46.9603 62.4165C46.6989 62.3141 46.461 62.16 46.2607 61.9633C46.0604 61.7667 45.9019 61.5316 45.7948 61.2722C45.6876 61.0128 45.6339 60.7344 45.637 60.4538C45.6401 60.1731 45.6999 59.896 45.8127 59.639C45.9256 59.382 46.0892 59.1505 46.2938 58.9583L52.1875 52.9583C52.5771 52.5667 53.1063 51.9833 53.6458 51.3771C53.9815 50.9965 54.1668 50.5065 54.1668 49.999C54.1668 49.4915 53.9815 49.0014 53.6458 48.6208C53.1083 48.0167 52.5792 47.4333 52.2021 47.0542L46.2938 41.0417C46.0892 40.8495 45.9256 40.618 45.8127 40.361C45.6999 40.104 45.6401 39.8269 45.637 39.5462C45.6339 39.2656 45.6876 38.9872 45.7948 38.7278C45.9019 38.4684 46.0604 38.2333 46.2607 38.0367C46.461 37.84 46.6989 37.6859 46.9603 37.5835C47.2216 37.4811 47.5009 37.4326 47.7815 37.4409C48.062 37.4491 48.338 37.514 48.5929 37.6315C48.8477 37.7491 49.0762 37.9169 49.2646 38.125L55.1583 44.1229C55.575 44.5396 56.1583 45.1792 56.7604 45.8583C57.7745 46.9995 58.3343 48.4733 58.3333 50Z" fill="url(#paint1_linear_104_105)"/>
</g>
<defs>
<linearGradient id="paint0_linear_104_105" x1="50" y1="1.49012e-06" x2="100" y2="100" gradientUnits="userSpaceOnUse">
<stop stop-color="#F4FFCA"/>
<stop offset="1" stop-color="#E2FA84"/>
</linearGradient>
<linearGradient id="paint1_linear_104_105" x1="50" y1="25" x2="50" y2="75" gradientUnits="userSpaceOnUse">
<stop stop-color="#5EB037"/>
<stop offset="1" stop-color="#98D31A"/>
</linearGradient>
<clipPath id="clip0_104_105">
<rect width="50" height="50" fill="white" transform="translate(25 25)"/>
</clipPath>
</defs>
</svg>
