<svg width="100" height="100" viewBox="0 0 100 100" fill="none" xmlns="http://www.w3.org/2000/svg">
<rect width="100" height="100" rx="20" fill="url(#paint0_linear_104_84)"/>
<g clip-path="url(#clip0_104_84)">
<path d="M72.4292 34.5125C71.6679 34.1954 70.8295 34.112 70.0207 34.273C69.2119 34.434 68.4693 34.8321 67.8875 35.4166L62.5 40.8041L52.9458 31.25C52.1645 30.4688 51.1049 30.03 50 30.03C48.8951 30.03 47.8355 30.4688 47.0542 31.25L37.5 40.8041L32.1125 35.4166C31.5298 34.8341 30.7874 34.4374 29.9793 34.2767C29.1712 34.116 28.3335 34.1985 27.5723 34.5138C26.811 34.8291 26.1603 35.363 25.7025 36.0481C25.2446 36.7331 25.0002 37.5385 25 38.3625V60.4166C25.0033 63.1783 26.1018 65.8259 28.0546 67.7787C30.0074 69.7315 32.655 70.83 35.4167 70.8333H64.5833C67.345 70.83 69.9926 69.7315 71.9454 67.7787C73.8982 65.8259 74.9967 63.1783 75 60.4166V38.3625C75.0002 37.5384 74.7561 36.7329 74.2985 36.0476C73.8409 35.3623 73.1904 34.8281 72.4292 34.5125Z" fill="url(#paint1_linear_104_84)"/>
</g>
<defs>
<linearGradient id="paint0_linear_104_84" x1="50" y1="1.49012e-06" x2="100" y2="100" gradientUnits="userSpaceOnUse">
<stop stop-color="#FFF2D7"/>
<stop offset="1" stop-color="#FCDEB1"/>
</linearGradient>
<linearGradient id="paint1_linear_104_84" x1="50" y1="30.03" x2="50" y2="70.8333" gradientUnits="userSpaceOnUse">
<stop stop-color="#FF7E4B"/>
<stop offset="1" stop-color="#FFC329"/>
</linearGradient>
<clipPath id="clip0_104_84">
<rect width="50" height="50" fill="white" transform="translate(25 25)"/>
</clipPath>
</defs>
</svg>
