<svg width="100" height="100" viewBox="0 0 100 100" fill="none" xmlns="http://www.w3.org/2000/svg">
<rect width="100" height="100" rx="20" fill="url(#paint0_linear_104_96)"/>
<g clip-path="url(#clip0_104_96)">
<path d="M48.4164 75.0001C47.7338 74.9977 47.06 74.847 46.4414 74.5584C45.431 74.1085 44.6195 73.3053 44.1592 72.2996C43.6989 71.2939 43.6215 70.1547 43.9414 69.0959L47.1935 58.3334H39.531C38.5547 58.3346 37.5918 58.1071 36.7193 57.6691C35.8468 57.2311 35.0891 56.5948 34.5068 55.8112C33.9246 55.0276 33.5339 54.1185 33.3663 53.1568C33.1986 52.1951 33.2586 51.2074 33.5414 50.273L39.8414 29.4397C40.2254 28.1511 41.017 27.0218 42.0973 26.2213C43.1777 25.4208 44.4885 24.9923 45.8331 25.0001H53.5268C54.4013 25.0008 55.2626 25.2133 56.0371 25.6193C56.8117 26.0253 57.4764 26.6128 57.9745 27.3316C58.4725 28.0503 58.7892 28.879 58.8974 29.7468C59.0055 30.6146 58.902 31.4956 58.5956 32.3147L55.0893 41.6668H60.4164C61.5519 41.6667 62.666 41.976 63.639 42.5614C64.612 43.1468 65.4071 43.9862 65.939 44.9895C66.4708 45.9928 66.7193 47.122 66.6577 48.2558C66.5961 49.3897 66.2267 50.4854 65.5893 51.4251L52.256 72.8834C51.8438 73.529 51.2764 74.0609 50.6057 74.4307C49.935 74.8004 49.1823 74.9962 48.4164 75.0001Z" fill="url(#paint1_linear_104_96)"/>
</g>
<defs>
<linearGradient id="paint0_linear_104_96" x1="50" y1="1.49012e-06" x2="100" y2="100" gradientUnits="userSpaceOnUse">
<stop stop-color="#FFF2D7"/>
<stop offset="1" stop-color="#FCDEB1"/>
</linearGradient>
<linearGradient id="paint1_linear_104_96" x1="49.9702" y1="25" x2="49.9702" y2="75.0001" gradientUnits="userSpaceOnUse">
<stop stop-color="#FF7E4B"/>
<stop offset="1" stop-color="#FFC329"/>
</linearGradient>
<clipPath id="clip0_104_96">
<rect width="50" height="50" fill="white" transform="translate(25 25)"/>
</clipPath>
</defs>
</svg>
