<svg width="108" height="108" viewBox="0 0 108 108" fill="none" xmlns="http://www.w3.org/2000/svg">
<g clip-path="url(#clip0_178_3023)">
<rect x="4" y="4" width="100" height="100" rx="12" fill="url(#paint0_linear_178_3023)"/>
<rect x="4" y="4" width="100" height="100" rx="12" fill="url(#paint1_radial_178_3023)"/>
<g style="mix-blend-mode:soft-light" filter="url(#filter0_f_178_3023)">
<rect x="5.5" y="5.5" width="97" height="97" rx="10.5" stroke="url(#paint2_linear_178_3023)" stroke-width="3"/>
</g>
<g style="mix-blend-mode:soft-light" filter="url(#filter1_f_178_3023)">
<rect x="6" y="6" width="96" height="96" rx="10" stroke="url(#paint3_linear_178_3023)" stroke-width="4"/>
</g>
<rect x="4" y="4" width="100" height="100" rx="12" fill="url(#paint4_linear_178_3023)"/>
<path d="M76.5209 86.4933C78.0916 89.129 80.135 91.0664 83.7492 91.0664C86.7853 91.0664 88.7248 89.5068 88.7248 87.3519C88.7248 84.7696 86.7321 83.8549 83.3902 82.3526L81.5584 81.5448C76.2709 79.2296 72.7582 76.3292 72.7582 70.1978C72.7582 64.5497 76.9454 60.25 83.4893 60.25C88.148 60.25 91.4973 61.9164 93.9109 66.2797L88.205 70.0451C86.9487 67.7299 85.5934 66.8178 83.4893 66.8178C81.343 66.8178 79.9828 68.2171 79.9828 70.0451C79.9828 72.3043 81.3443 73.219 84.4881 74.6183L86.3199 75.4248C92.5456 78.1687 96.0608 80.966 96.0608 87.2552C96.0608 94.0355 90.8784 97.75 83.9187 97.75C77.1138 97.75 72.7174 94.4171 70.5662 90.0488L76.5209 86.4933ZM50.6364 87.1458C51.7875 89.2448 52.8346 91.0194 55.3522 91.0194C57.7595 91.0194 59.2782 90.0513 59.2782 86.2872V60.68H66.6055V86.3889C66.6055 94.1869 62.1571 97.736 55.6641 97.736C49.7973 97.736 46.3997 94.6156 44.6719 90.8572L50.6364 87.1458Z" fill="black"/>
</g>
<rect x="2" y="2" width="104" height="104" rx="14" stroke="#3A3A3A" stroke-width="4"/>
<defs>
<filter id="filter0_f_178_3023" x="2" y="2" width="104" height="104" filterUnits="userSpaceOnUse" color-interpolation-filters="sRGB">
<feFlood flood-opacity="0" result="BackgroundImageFix"/>
<feBlend mode="normal" in="SourceGraphic" in2="BackgroundImageFix" result="shape"/>
<feGaussianBlur stdDeviation="1" result="effect1_foregroundBlur_178_3023"/>
</filter>
<filter id="filter1_f_178_3023" x="-2" y="-2" width="112" height="112" filterUnits="userSpaceOnUse" color-interpolation-filters="sRGB">
<feFlood flood-opacity="0" result="BackgroundImageFix"/>
<feBlend mode="normal" in="SourceGraphic" in2="BackgroundImageFix" result="shape"/>
<feGaussianBlur stdDeviation="3" result="effect1_foregroundBlur_178_3023"/>
</filter>
<linearGradient id="paint0_linear_178_3023" x1="54" y1="4" x2="54" y2="104" gradientUnits="userSpaceOnUse">
<stop offset="0.14" stop-color="white" stop-opacity="0.26"/>
<stop offset="0.64" stop-color="white" stop-opacity="0.08"/>
<stop offset="1" stop-color="white" stop-opacity="0"/>
</linearGradient>
<radialGradient id="paint1_radial_178_3023" cx="0" cy="0" r="1" gradientUnits="userSpaceOnUse" gradientTransform="translate(54 54) rotate(90) scale(50)">
<stop stop-color="#FFD600"/>
<stop offset="1" stop-color="#FFC400"/>
</radialGradient>
<linearGradient id="paint2_linear_178_3023" x1="54" y1="104" x2="54" y2="93.5833" gradientUnits="userSpaceOnUse">
<stop/>
<stop offset="1" stop-opacity="0"/>
</linearGradient>
<linearGradient id="paint3_linear_178_3023" x1="54" y1="4" x2="54" y2="58.1667" gradientUnits="userSpaceOnUse">
<stop stop-color="white"/>
<stop offset="1" stop-color="white" stop-opacity="0"/>
</linearGradient>
<linearGradient id="paint4_linear_178_3023" x1="54" y1="4" x2="54" y2="104" gradientUnits="userSpaceOnUse">
<stop stop-opacity="0"/>
<stop offset="0.6" stop-opacity="0.08"/>
<stop offset="1" stop-opacity="0.26"/>
</linearGradient>
<clipPath id="clip0_178_3023">
<rect x="4" y="4" width="100" height="100" rx="12" fill="white"/>
</clipPath>
</defs>
</svg>
