<svg width="108" height="108" viewBox="0 0 108 108" fill="none" xmlns="http://www.w3.org/2000/svg">
<g clip-path="url(#clip0_178_3044)">
<rect x="4" y="4" width="100" height="100" rx="12" fill="url(#paint0_linear_178_3044)"/>
<rect x="4" y="4" width="100" height="100" rx="12" fill="url(#paint1_radial_178_3044)"/>
<g style="mix-blend-mode:soft-light" filter="url(#filter0_f_178_3044)">
<rect x="5.5" y="5.5" width="97" height="97" rx="10.5" stroke="url(#paint2_linear_178_3044)" stroke-width="3"/>
</g>
<g style="mix-blend-mode:soft-light" filter="url(#filter1_f_178_3044)">
<rect x="6" y="6" width="96" height="96" rx="10" stroke="url(#paint3_linear_178_3044)" stroke-width="4"/>
</g>
<rect x="4" y="4" width="100" height="100" rx="12" fill="url(#paint4_linear_178_3044)"/>
<path d="M16 55.2836V23.6428L44.2286 39.4632V50.0102L25.4095 39.4632V60.5571L16 55.2836Z" fill="white"/>
<path d="M44.2266 39.9285L72.4551 23.6428V56.2143L53.6361 67.0714L44.2266 61.6428L63.0456 50.7857V39.9285L44.2266 50.7857V39.9285Z" fill="#EBEBEB"/>
<path d="M44.2266 60.5571V71.9571L63.7694 83.3571V71.9571L44.2266 60.5571Z" fill="white"/>
<path d="M63.7734 83.3571L92.002 67.0714V45.3571L82.5925 50.7857V61.6428L63.7734 72.5V83.3571ZM82.5925 39.9285V29.0714L92.002 23.6428V34.5L82.5925 39.9285Z" fill="#EBEBEB"/>
</g>
<rect x="2" y="2" width="104" height="104" rx="14" stroke="#3A3A3A" stroke-width="4"/>
<defs>
<filter id="filter0_f_178_3044" x="2" y="2" width="104" height="104" filterUnits="userSpaceOnUse" color-interpolation-filters="sRGB">
<feFlood flood-opacity="0" result="BackgroundImageFix"/>
<feBlend mode="normal" in="SourceGraphic" in2="BackgroundImageFix" result="shape"/>
<feGaussianBlur stdDeviation="1" result="effect1_foregroundBlur_178_3044"/>
</filter>
<filter id="filter1_f_178_3044" x="-2" y="-2" width="112" height="112" filterUnits="userSpaceOnUse" color-interpolation-filters="sRGB">
<feFlood flood-opacity="0" result="BackgroundImageFix"/>
<feBlend mode="normal" in="SourceGraphic" in2="BackgroundImageFix" result="shape"/>
<feGaussianBlur stdDeviation="3" result="effect1_foregroundBlur_178_3044"/>
</filter>
<linearGradient id="paint0_linear_178_3044" x1="54" y1="4" x2="54" y2="104" gradientUnits="userSpaceOnUse">
<stop offset="0.14" stop-color="white" stop-opacity="0.26"/>
<stop offset="0.64" stop-color="white" stop-opacity="0.08"/>
<stop offset="1" stop-color="white" stop-opacity="0"/>
</linearGradient>
<radialGradient id="paint1_radial_178_3044" cx="0" cy="0" r="1" gradientUnits="userSpaceOnUse" gradientTransform="translate(54 54) rotate(90) scale(50)">
<stop stop-color="#017EFE"/>
<stop offset="1" stop-color="#015BBC"/>
</radialGradient>
<linearGradient id="paint2_linear_178_3044" x1="54" y1="104" x2="54" y2="93.5833" gradientUnits="userSpaceOnUse">
<stop/>
<stop offset="1" stop-opacity="0"/>
</linearGradient>
<linearGradient id="paint3_linear_178_3044" x1="54" y1="4" x2="54" y2="58.1667" gradientUnits="userSpaceOnUse">
<stop stop-color="white"/>
<stop offset="1" stop-color="white" stop-opacity="0"/>
</linearGradient>
<linearGradient id="paint4_linear_178_3044" x1="54" y1="4" x2="54" y2="104" gradientUnits="userSpaceOnUse">
<stop stop-opacity="0"/>
<stop offset="0.6" stop-opacity="0.08"/>
<stop offset="1" stop-opacity="0.26"/>
</linearGradient>
<clipPath id="clip0_178_3044">
<rect x="4" y="4" width="100" height="100" rx="12" fill="white"/>
</clipPath>
</defs>
</svg>
