<svg width="100" height="100" viewBox="0 0 100 100" fill="none" xmlns="http://www.w3.org/2000/svg">
<rect width="100" height="100" rx="20" fill="url(#paint0_linear_104_38)"/>
<g clip-path="url(#clip0_104_38)">
<path d="M30.7252 74.9999C29.903 74.9977 29.0909 74.8189 28.3439 74.4756C27.5968 74.1323 26.9322 73.6325 26.3951 73.01C25.858 72.3876 25.4609 71.657 25.2306 70.8677C25.0004 70.0785 24.9424 69.249 25.0606 68.4353C25.6002 64.6728 27.421 57.7395 30.0043 55.1562C31.9727 53.1883 34.6422 52.083 37.4256 52.0834C40.2089 52.0838 42.8781 53.1898 44.846 55.1583C46.8138 57.1267 47.9192 59.7962 47.9188 62.5795C47.9184 65.3629 46.8123 68.0321 44.8439 69.9999C42.2627 72.5812 35.3293 74.402 31.5647 74.9416C31.2867 74.9817 31.0061 75.0012 30.7252 74.9999ZM73.1252 26.8749C71.9091 25.7166 70.2941 25.0706 68.6147 25.0706C66.9354 25.0706 65.3204 25.7166 64.1043 26.8749L42.2293 48.7499C44.3218 49.4701 46.2221 50.6587 47.7855 52.2249C49.3488 53.7911 50.5338 55.6936 51.2502 57.7874L73.1252 35.8958C74.3182 34.6978 74.9881 33.076 74.9881 31.3853C74.9881 29.6947 74.3182 28.0728 73.1252 26.8749Z" fill="url(#paint1_linear_104_38)"/>
</g>
<defs>
<linearGradient id="paint0_linear_104_38" x1="50" y1="1.49012e-06" x2="100" y2="100" gradientUnits="userSpaceOnUse">
<stop stop-color="#F7EFFF"/>
<stop offset="1" stop-color="#E5CDFF"/>
</linearGradient>
<linearGradient id="paint1_linear_104_38" x1="49.9945" y1="25.0706" x2="49.9945" y2="75" gradientUnits="userSpaceOnUse">
<stop stop-color="#B33BEB"/>
<stop offset="1" stop-color="#DD94FF"/>
</linearGradient>
<clipPath id="clip0_104_38">
<rect width="50" height="50" fill="white" transform="translate(25 25)"/>
</clipPath>
</defs>
</svg>
