<svg width="100" height="100" viewBox="0 0 100 100" fill="none" xmlns="http://www.w3.org/2000/svg">
<rect width="100" height="100" rx="20" fill="url(#paint0_linear_104_25)"/>
<g clip-path="url(#clip0_104_25)">
<path d="M72.9163 48.9167C72.3638 48.9167 71.8339 48.6972 71.4432 48.3065C71.0525 47.9158 70.833 47.3859 70.833 46.8333C70.8286 42.4144 69.0712 38.1777 65.9465 35.0531C62.8219 31.9284 58.5852 30.1711 54.1663 30.1667C53.6138 30.1667 53.0839 29.9472 52.6932 29.5565C52.3025 29.1658 52.083 28.6359 52.083 28.0833C52.083 27.5308 52.3025 27.0009 52.6932 26.6102C53.0839 26.2195 53.6138 26 54.1663 26C59.6898 26.0061 64.9853 28.203 68.891 32.1086C72.7967 36.0143 74.9936 41.3099 74.9996 46.8333C74.9996 47.3859 74.7802 47.9158 74.3895 48.3065C73.9987 48.6972 73.4688 48.9167 72.9163 48.9167ZM66.6663 46.8333C66.6663 43.5181 65.3493 40.3387 63.0051 37.9945C60.6609 35.6503 57.4815 34.3333 54.1663 34.3333C53.6138 34.3333 53.0839 34.5528 52.6932 34.9435C52.3025 35.3342 52.083 35.8641 52.083 36.4167C52.083 36.9692 52.3025 37.4991 52.6932 37.8898C53.0839 38.2805 53.6138 38.5 54.1663 38.5C56.3764 38.5 58.4961 39.378 60.0589 40.9408C61.6217 42.5036 62.4996 44.6232 62.4996 46.8333C62.4996 47.3859 62.7191 47.9158 63.1098 48.3065C63.5005 48.6972 64.0304 48.9167 64.583 48.9167C65.1355 48.9167 65.6654 48.6972 66.0561 48.3065C66.4468 47.9158 66.6663 47.3859 66.6663 46.8333ZM71.2142 72.175L73.1101 69.9896C74.3167 68.779 74.9943 67.1395 74.9943 65.4302C74.9943 63.721 74.3167 62.0814 73.1101 60.8708C73.0455 60.8063 68.033 56.95 68.033 56.95C66.83 55.8049 65.232 55.1672 63.5711 55.1695C61.9102 55.1719 60.314 55.814 59.1142 56.9625L55.1434 60.3083C51.9021 58.9669 48.9577 56.9983 46.4794 54.5157C44.0011 52.033 42.0376 49.0853 40.7017 45.8417L44.0351 41.8833C45.1845 40.6837 45.8273 39.0872 45.8301 37.4258C45.8328 35.7644 45.1951 34.1659 44.0496 32.9625C44.0496 32.9625 40.1892 27.9563 40.1246 27.8917C38.936 26.6953 37.3244 26.0146 35.638 25.9967C33.9517 25.9788 32.326 26.625 31.1121 27.7958L28.7163 29.8792C14.5621 46.3 45.0413 76.5438 62.0038 76C63.7167 76.0099 65.4142 75.6766 66.9961 75.0196C68.578 74.3627 70.0123 73.3954 71.2142 72.175Z" fill="url(#paint1_linear_104_25)"/>
</g>
<defs>
<linearGradient id="paint0_linear_104_25" x1="50" y1="1.49012e-06" x2="100" y2="100" gradientUnits="userSpaceOnUse">
<stop stop-color="#EDFDFF"/>
<stop offset="1" stop-color="#A7F5FF"/>
</linearGradient>
<linearGradient id="paint1_linear_104_25" x1="50.036" y1="25.9963" x2="50.036" y2="76.0072" gradientUnits="userSpaceOnUse">
<stop stop-color="#2E94FF"/>
<stop offset="1" stop-color="#2ED9FF"/>
</linearGradient>
<clipPath id="clip0_104_25">
<rect width="50" height="50" fill="white" transform="translate(25 26)"/>
</clipPath>
</defs>
</svg>
