<svg width="108" height="108" viewBox="0 0 108 108" fill="none" xmlns="http://www.w3.org/2000/svg">
<g clip-path="url(#clip0_178_3032)">
<rect x="4" y="4" width="100" height="100" rx="12" fill="url(#paint0_linear_178_3032)"/>
<rect x="4" y="4" width="100" height="100" rx="12" fill="url(#paint1_radial_178_3032)"/>
<g style="mix-blend-mode:soft-light" filter="url(#filter0_f_178_3032)">
<rect x="5.5" y="5.5" width="97" height="97" rx="10.5" stroke="url(#paint2_linear_178_3032)" stroke-width="3"/>
</g>
<g style="mix-blend-mode:soft-light" filter="url(#filter1_f_178_3032)">
<rect x="6" y="6" width="96" height="96" rx="10" stroke="url(#paint3_linear_178_3032)" stroke-width="4"/>
</g>
<rect x="4" y="4" width="100" height="100" rx="12" fill="url(#paint4_linear_178_3032)"/>
<path d="M54 63C57.866 63 61 59.6421 61 55.5C61 51.3579 57.866 48 54 48C50.134 48 47 51.3579 47 55.5C47 59.6421 50.134 63 54 63Z" fill="white"/>
<path d="M90.5 55.5C90.5 56.9294 89.7465 58.4628 88.009 60.0303C86.2717 61.5976 83.6736 63.0778 80.3353 64.3516C73.6691 66.8953 64.3586 68.5 54 68.5C43.6414 68.5 34.3309 66.8953 27.6647 64.3516C24.3264 63.0778 21.7283 61.5976 19.991 60.0303C18.2535 58.4628 17.5 56.9294 17.5 55.5C17.5 54.0706 18.2535 52.5372 19.991 50.9697C21.7283 49.4024 24.3264 47.9222 27.6647 46.6484C34.3309 44.1047 43.6414 42.5 54 42.5C64.3586 42.5 73.6691 44.1047 80.3353 46.6484C83.6736 47.9222 86.2717 49.4024 88.009 50.9697C89.7465 52.5372 90.5 54.0706 90.5 55.5Z" stroke="white" stroke-width="3"/>
<path d="M72.1183 86.7451C70.8668 87.4619 69.1465 87.575 66.9052 86.8558C64.6636 86.1365 62.0653 84.6295 59.2747 82.3798C53.702 77.8873 47.6174 70.6397 42.4049 61.6843C37.1924 52.729 33.9069 43.8784 32.7708 36.8451C32.202 33.323 32.1854 30.3375 32.6782 28.0523C33.1709 25.7674 34.1298 24.3462 35.3814 23.6294C36.633 22.9127 38.3532 22.7995 40.5945 23.5187C42.8361 24.238 45.4345 25.745 48.225 27.9947C53.7977 32.4873 59.8823 39.7349 65.0948 48.6902C70.3073 57.6456 73.5929 66.4962 74.7289 73.5295C75.2978 77.0515 75.3143 80.0371 74.8216 82.3222C74.3288 84.6072 73.3699 86.0284 72.1183 86.7451Z" stroke="white" stroke-width="3"/>
<path d="M35.3853 86.7451C34.1337 86.0284 33.1748 84.6072 32.6821 82.3223C32.1893 80.0371 32.2059 77.0515 32.7748 73.5295C33.9108 66.4962 37.1963 57.6456 42.4088 48.6903C47.6214 39.7349 53.7059 32.4873 59.2786 27.9948C62.0692 25.7451 64.6676 24.2381 66.9091 23.5188C69.1504 22.7996 70.8707 22.9127 72.1223 23.6295C73.3738 24.3462 74.3328 25.7674 74.8255 28.0523C75.3182 30.3375 75.3017 33.3231 74.7328 36.8451C73.5968 43.8784 70.3113 52.729 65.0987 61.6843C59.8862 70.6397 53.8017 77.8873 48.229 82.3798C45.4384 84.6295 42.84 86.1365 40.5985 86.8558C38.3572 87.5751 36.6369 87.4619 35.3853 86.7451Z" stroke="white" stroke-width="3"/>
</g>
<rect x="2" y="2" width="104" height="104" rx="14" stroke="#3A3A3A" stroke-width="4"/>
<defs>
<filter id="filter0_f_178_3032" x="2" y="2" width="104" height="104" filterUnits="userSpaceOnUse" color-interpolation-filters="sRGB">
<feFlood flood-opacity="0" result="BackgroundImageFix"/>
<feBlend mode="normal" in="SourceGraphic" in2="BackgroundImageFix" result="shape"/>
<feGaussianBlur stdDeviation="1" result="effect1_foregroundBlur_178_3032"/>
</filter>
<filter id="filter1_f_178_3032" x="-2" y="-2" width="112" height="112" filterUnits="userSpaceOnUse" color-interpolation-filters="sRGB">
<feFlood flood-opacity="0" result="BackgroundImageFix"/>
<feBlend mode="normal" in="SourceGraphic" in2="BackgroundImageFix" result="shape"/>
<feGaussianBlur stdDeviation="3" result="effect1_foregroundBlur_178_3032"/>
</filter>
<linearGradient id="paint0_linear_178_3032" x1="54" y1="4" x2="54" y2="104" gradientUnits="userSpaceOnUse">
<stop offset="0.14" stop-color="white" stop-opacity="0.26"/>
<stop offset="0.64" stop-color="white" stop-opacity="0.08"/>
<stop offset="1" stop-color="white" stop-opacity="0"/>
</linearGradient>
<radialGradient id="paint1_radial_178_3032" cx="0" cy="0" r="1" gradientUnits="userSpaceOnUse" gradientTransform="translate(54 54) rotate(90) scale(50)">
<stop stop-color="#60DAFA"/>
<stop offset="1" stop-color="#21A1C4"/>
</radialGradient>
<linearGradient id="paint2_linear_178_3032" x1="54" y1="104" x2="54" y2="93.5833" gradientUnits="userSpaceOnUse">
<stop/>
<stop offset="1" stop-opacity="0"/>
</linearGradient>
<linearGradient id="paint3_linear_178_3032" x1="54" y1="4" x2="54" y2="58.1667" gradientUnits="userSpaceOnUse">
<stop stop-color="white"/>
<stop offset="1" stop-color="white" stop-opacity="0"/>
</linearGradient>
<linearGradient id="paint4_linear_178_3032" x1="54" y1="4" x2="54" y2="104" gradientUnits="userSpaceOnUse">
<stop stop-opacity="0"/>
<stop offset="0.6" stop-opacity="0.08"/>
<stop offset="1" stop-opacity="0.26"/>
</linearGradient>
<clipPath id="clip0_178_3032">
<rect x="4" y="4" width="100" height="100" rx="12" fill="white"/>
</clipPath>
</defs>
</svg>
