<svg width="100" height="100" viewBox="0 0 100 100" fill="none" xmlns="http://www.w3.org/2000/svg">
<rect width="100" height="100" rx="20" fill="url(#paint0_linear_104_42)"/>
<g clip-path="url(#clip0_104_42)">
<path d="M72.55 60.7895L69.1937 57.4332L64.3563 62.2707C63.95 62.677 63.4167 62.8812 62.8833 62.8812C62.35 62.8812 61.8167 62.677 61.4104 62.2707C60.5958 61.4562 60.5958 60.1395 61.4104 59.3249L66.2479 54.4874L63.3021 51.5416L58.4625 56.3811C58.0562 56.7874 57.5229 56.9916 56.9896 56.9916C56.4562 56.9916 55.9229 56.7874 55.5167 56.3811C54.7021 55.5666 54.7021 54.2499 55.5167 53.4353L60.3563 48.5957L57.4104 45.6499L52.5708 50.4895C52.1646 50.8957 51.6313 51.0999 51.0979 51.0999C50.5646 51.0999 50.0312 50.8957 49.625 50.4895C48.8104 49.6749 48.8104 48.3582 49.625 47.5436L54.4646 42.7041L51.5167 39.7582L46.6792 44.5957C46.2729 45.002 45.7396 45.2061 45.2062 45.2061C44.6729 45.2061 44.1396 45.002 43.7333 44.5957C42.9187 43.7811 42.9187 42.4645 43.7333 41.6499L48.5708 36.8124L45.5167 33.7582L40.6771 38.5978C40.2708 39.0041 39.7375 39.2082 39.2042 39.2082C38.6708 39.2082 38.1375 39.0041 37.7312 38.5978C36.9167 37.7832 36.9167 36.4666 37.7312 35.652L42.5708 30.8124L39.2146 27.4561C36.7833 25.0249 33.3042 24.3291 30.1396 25.6478C26.9688 26.9582 25 29.9041 25 33.3374V64.5687C25 70.3207 29.6792 74.9999 35.4312 74.9999H66.6625C70.0917 74.9999 73.0396 73.0312 74.3521 69.8603C75.6646 66.6895 74.975 63.2166 72.55 60.7895ZM50.8833 61.2145C50.5604 61.9936 49.8 62.4999 48.9583 62.4999H39.5833C38.4333 62.4999 37.5 61.5686 37.5 60.4166V51.0416C37.5 50.1999 38.0083 49.4374 38.7854 49.1166C39.5646 48.7895 40.4604 48.9707 41.0562 49.5686L50.4312 58.9436C51.0271 59.5395 51.2062 60.4353 50.8833 61.2145Z" fill="url(#paint1_linear_104_42)"/>
</g>
<defs>
<linearGradient id="paint0_linear_104_42" x1="50" y1="1.49012e-06" x2="100" y2="100" gradientUnits="userSpaceOnUse">
<stop stop-color="#F7EFFF"/>
<stop offset="1" stop-color="#E5CDFF"/>
</linearGradient>
<linearGradient id="paint1_linear_104_42" x1="50.0033" y1="24.9902" x2="50.0033" y2="74.9999" gradientUnits="userSpaceOnUse">
<stop stop-color="#B33BEB"/>
<stop offset="1" stop-color="#DD94FF"/>
</linearGradient>
<clipPath id="clip0_104_42">
<rect width="50" height="50" fill="white" transform="translate(25 25)"/>
</clipPath>
</defs>
</svg>
