<svg width="108" height="108" viewBox="0 0 108 108" fill="none" xmlns="http://www.w3.org/2000/svg">
<g clip-path="url(#clip0_178_3055)">
<rect x="4" y="4" width="100" height="100" rx="12" fill="url(#paint0_linear_178_3055)"/>
<rect x="4" y="4" width="100" height="100" rx="12" fill="url(#paint1_linear_178_3055)"/>
<rect x="4" y="4" width="100" height="100" rx="12" fill="url(#paint2_radial_178_3055)"/>
<g style="mix-blend-mode:soft-light" filter="url(#filter0_f_178_3055)">
<rect x="5.5" y="5.5" width="97" height="97" rx="10.5" stroke="url(#paint3_linear_178_3055)" stroke-width="3"/>
</g>
<g style="mix-blend-mode:soft-light" filter="url(#filter1_f_178_3055)">
<rect x="6" y="6" width="96" height="96" rx="10" stroke="url(#paint4_linear_178_3055)" stroke-width="4"/>
</g>
<rect x="4" y="4" width="100" height="100" rx="12" fill="url(#paint5_linear_178_3055)"/>
<path d="M81.4419 58.3419C78.7905 58.3561 76.4862 59.0059 74.5566 59.9665C73.8487 58.5397 73.1407 57.2683 73.0158 56.336C72.8769 55.2483 72.7104 54.5843 72.8769 53.2847C73.0435 51.9851 73.7931 50.1345 73.7792 49.9933C73.7654 49.852 73.6127 49.1881 72.0857 49.1739C70.5587 49.1598 69.2399 49.4706 69.0872 49.8802C68.9345 50.2899 68.643 51.2222 68.4487 52.1828C68.1849 53.5955 65.3947 58.6386 63.7983 61.2802C63.2847 60.249 62.8405 59.3449 62.7433 58.6245C62.6045 57.5367 62.4379 56.8728 62.6045 55.5732C62.7711 54.2735 63.5207 52.423 63.5068 52.2817C63.4929 52.1405 63.3402 51.4765 61.8132 51.4624C60.2862 51.4483 58.9675 51.7591 58.8148 52.1687C58.6621 52.5784 58.4955 53.539 58.1762 54.4713C57.8569 55.4037 54.1505 63.823 53.1788 65.9984C52.6791 67.1144 52.2487 68.0044 51.9433 68.6118C51.9433 68.6118 51.9295 68.6542 51.8878 68.7248C51.6241 69.2475 51.4714 69.53 51.4714 69.53C51.4714 69.53 51.4714 69.53 51.4714 69.5441C51.2631 69.9255 51.041 70.2787 50.93 70.2787C50.8467 70.2787 50.694 69.2616 50.9577 67.8772C51.513 64.9531 52.8318 60.4044 52.8179 60.249C52.8179 60.1642 53.0678 59.3732 51.9572 58.9635C50.8745 58.5538 50.4858 59.2319 50.3886 59.2319C50.2914 59.2319 50.222 59.472 50.222 59.472C50.222 59.472 51.4297 54.3583 47.9177 54.3583C45.7243 54.3583 42.6981 56.8022 41.1989 59.0059C40.255 59.5285 38.2421 60.6445 36.0905 61.8453C35.2714 62.3114 34.4246 62.7776 33.6334 63.2155C33.5779 63.159 33.5223 63.0884 33.4668 63.0319C29.219 58.4126 21.362 55.1494 21.6951 48.9479C21.8201 46.6877 22.5836 40.7546 36.7845 33.5502C48.4729 27.6877 57.7737 29.3123 59.3839 32.9145C61.6883 38.0565 54.4004 47.6059 42.3233 48.9903C37.7146 49.513 35.2992 47.7048 34.6884 47.0267C34.0498 46.3204 33.9527 46.278 33.7167 46.4193C33.328 46.6312 33.5779 47.2669 33.7167 47.6342C34.0776 48.5947 35.5629 50.2899 38.0755 51.1234C40.2966 51.8579 45.6966 52.2676 52.2349 49.6966C59.5505 46.8148 65.2698 38.8052 63.5901 32.0952C61.9104 25.2863 50.805 23.0402 40.2966 26.8402C34.0498 29.1004 27.2756 32.6602 22.4031 37.2937C16.6144 42.8029 15.6982 47.5918 16.073 49.5977C17.4196 56.7174 27.0674 61.3508 30.9265 64.7836C30.7321 64.8966 30.5517 64.9955 30.399 65.0802C28.4694 66.0549 21.1121 69.9679 19.2797 74.107C17.1975 78.7969 19.6129 82.159 21.2093 82.611C26.165 84.0095 31.2596 81.495 33.9943 77.3419C36.729 73.1887 36.3958 67.7925 35.1326 65.3204C35.1187 65.2921 35.1048 65.2638 35.0771 65.2356C35.5768 64.9389 36.0905 64.6282 36.5902 64.3315C37.5758 63.7382 38.5475 63.1873 39.3804 62.7352C38.9084 64.049 38.5614 65.617 38.3948 67.8772C38.1866 70.533 39.2555 73.9798 40.6575 75.3359C41.2822 75.9292 42.0179 75.9434 42.4899 75.9434C44.128 75.9434 44.8637 74.559 45.6827 72.9203C46.6822 70.9144 47.5845 68.5835 47.5845 68.5835C47.5845 68.5835 46.4601 74.8839 49.514 74.8839C50.6246 74.8839 51.749 73.4148 52.2487 72.6661C52.2487 72.6802 52.2487 72.6802 52.2487 72.6802C52.2487 72.6802 52.2765 72.6378 52.332 72.5389C52.4431 72.3553 52.5125 72.2423 52.5125 72.2423C52.5125 72.2423 52.5125 72.2281 52.5125 72.214C52.9567 71.4229 53.9562 69.6289 55.4415 66.6482C57.3572 62.8059 59.2035 58.0029 59.2035 58.0029C59.2035 58.0029 59.3701 59.1754 59.9392 61.1248C60.2724 62.2691 60.9664 63.5263 61.5217 64.7412C61.0775 65.3769 60.7999 65.73 60.7999 65.73C60.7999 65.73 60.7999 65.73 60.8137 65.7441C60.4528 66.2244 60.0641 66.7471 59.6338 67.2557C58.1207 69.0921 56.3161 71.1969 56.0662 71.8044C55.7747 72.5248 55.8441 73.0475 56.3994 73.4713C56.8019 73.782 57.5238 73.8244 58.2595 73.782C59.6199 73.6832 60.5778 73.3441 61.0497 73.1322C61.7855 72.8638 62.6461 72.4542 63.4513 71.8467C64.9366 70.7308 65.8389 69.1345 65.7556 67.0296C65.714 65.8713 65.3392 64.7129 64.8811 63.6252C65.0199 63.4274 65.1448 63.2297 65.2837 63.0319C67.6297 59.5427 69.4482 55.7144 69.4482 55.7144C69.4482 55.7144 69.6147 56.8869 70.1839 58.8364C70.4615 59.8252 71.0307 60.8988 71.5304 61.9442C69.3232 63.7665 67.9628 65.8854 67.477 67.2698C66.6024 69.8408 67.2826 70.9992 68.5736 71.2676C69.1566 71.3947 69.9895 71.1122 70.6003 70.8438C71.3777 70.5895 72.2939 70.1516 73.1685 69.5018C74.6538 68.3858 76.0836 66.8319 76.0003 64.727C75.9587 63.7665 75.7088 62.82 75.3618 61.9018C77.2358 61.1107 79.6512 60.6728 82.7329 61.0401C89.3406 61.8311 90.6455 66.0267 90.3956 67.7925C90.1458 69.5583 88.7576 70.5189 88.2995 70.8155C87.8414 71.1122 87.6887 71.211 87.7304 71.4229C87.7859 71.7337 88.008 71.7196 88.3967 71.6631C88.9381 71.5642 91.8671 70.2363 91.992 66.9873C92.2003 62.8341 88.3134 58.2996 81.4419 58.3419ZM30.4684 75.8304C28.2751 78.2601 25.2211 79.1783 23.9023 78.4014C22.4864 77.5679 23.0417 73.9798 25.7347 71.4088C27.3727 69.8408 29.4828 68.3858 30.8848 67.4958C31.2041 67.298 31.6761 67.0155 32.2452 66.6624C32.3424 66.6059 32.3979 66.5776 32.3979 66.5776C32.509 66.507 32.62 66.4363 32.7311 66.3657C33.7167 70.0386 32.7727 73.2735 30.4684 75.8304ZM46.4323 64.7836C45.6688 66.6765 44.0724 71.5218 43.1007 71.2534C42.2678 71.0274 41.7542 67.3546 42.9341 63.7241C43.531 61.9018 44.7943 59.7263 45.53 58.8787C46.7238 57.5226 48.0426 57.0706 48.3619 57.6215C48.7644 58.3419 46.9043 63.5969 46.4323 64.7836ZM59.606 71.1969C59.2868 71.3664 58.9814 71.4794 58.8425 71.3947C58.7454 71.3382 58.9814 71.1122 58.9814 71.1122C58.9814 71.1122 60.6333 69.304 61.2857 68.4847C61.6605 68.0044 62.1047 67.4393 62.5767 66.8036C62.5767 66.8601 62.5767 66.9308 62.5767 66.9873C62.5767 69.1486 60.5222 70.6036 59.606 71.1969ZM69.7674 68.8378C69.5314 68.6683 69.5731 68.1032 70.3644 66.3375C70.6697 65.6453 71.3916 64.4869 72.6271 63.3709C72.7659 63.823 72.8631 64.2609 72.8492 64.6705C72.8353 67.3969 70.9196 68.414 69.7674 68.8378Z" fill="white"/>
</g>
<rect x="2" y="2" width="104" height="104" rx="14" stroke="#3A3A3A" stroke-width="4"/>
<defs>
<filter id="filter0_f_178_3055" x="2" y="2" width="104" height="104" filterUnits="userSpaceOnUse" color-interpolation-filters="sRGB">
<feFlood flood-opacity="0" result="BackgroundImageFix"/>
<feBlend mode="normal" in="SourceGraphic" in2="BackgroundImageFix" result="shape"/>
<feGaussianBlur stdDeviation="1" result="effect1_foregroundBlur_178_3055"/>
</filter>
<filter id="filter1_f_178_3055" x="-2" y="-2" width="112" height="112" filterUnits="userSpaceOnUse" color-interpolation-filters="sRGB">
<feFlood flood-opacity="0" result="BackgroundImageFix"/>
<feBlend mode="normal" in="SourceGraphic" in2="BackgroundImageFix" result="shape"/>
<feGaussianBlur stdDeviation="3" result="effect1_foregroundBlur_178_3055"/>
</filter>
<linearGradient id="paint0_linear_178_3055" x1="54" y1="4" x2="54" y2="104" gradientUnits="userSpaceOnUse">
<stop stop-color="#FFB6C1"/>
<stop offset="0.595" stop-color="#E75480"/>
</linearGradient>
<linearGradient id="paint1_linear_178_3055" x1="54" y1="4" x2="54" y2="104" gradientUnits="userSpaceOnUse">
<stop offset="0.14" stop-color="white" stop-opacity="0.26"/>
<stop offset="0.64" stop-color="white" stop-opacity="0.08"/>
<stop offset="1" stop-color="white" stop-opacity="0"/>
</linearGradient>
<radialGradient id="paint2_radial_178_3055" cx="0" cy="0" r="1" gradientUnits="userSpaceOnUse" gradientTransform="translate(54 54) rotate(90) scale(50)">
<stop stop-color="#FEB3BF"/>
<stop offset="1" stop-color="#E75480"/>
</radialGradient>
<linearGradient id="paint3_linear_178_3055" x1="54" y1="104" x2="54" y2="93.5833" gradientUnits="userSpaceOnUse">
<stop/>
<stop offset="1" stop-opacity="0"/>
</linearGradient>
<linearGradient id="paint4_linear_178_3055" x1="54" y1="4" x2="54" y2="58.1667" gradientUnits="userSpaceOnUse">
<stop stop-color="white"/>
<stop offset="1" stop-color="white" stop-opacity="0"/>
</linearGradient>
<linearGradient id="paint5_linear_178_3055" x1="54" y1="4" x2="54" y2="104" gradientUnits="userSpaceOnUse">
<stop stop-opacity="0"/>
<stop offset="0.6" stop-opacity="0.08"/>
<stop offset="1" stop-opacity="0.26"/>
</linearGradient>
<clipPath id="clip0_178_3055">
<rect x="4" y="4" width="100" height="100" rx="12" fill="white"/>
</clipPath>
</defs>
</svg>
