<svg width="100" height="100" viewBox="0 0 100 100" fill="none" xmlns="http://www.w3.org/2000/svg">
<rect width="100" height="100" rx="20" fill="url(#paint0_linear_104_29)"/>
<g clip-path="url(#clip0_104_29)">
<path d="M64.2769 56.556C62.7006 56.5564 61.1481 56.9403 59.7533 57.6745C58.3585 58.4088 57.1632 59.4713 56.2707 60.7706L42.729 54.656C43.6786 52.3239 43.6861 49.7143 42.7498 47.3768L56.279 41.2331C57.5983 43.1471 59.5599 44.5249 61.8081 45.1164C64.0562 45.7079 66.4419 45.474 68.5324 44.4572C70.6228 43.4403 72.2795 41.7078 73.202 39.5739C74.1244 37.4401 74.2514 35.0463 73.56 32.8269C72.8686 30.6074 71.4045 28.7093 69.4334 27.4769C67.4623 26.2445 65.1147 25.7595 62.8166 26.1098C60.5185 26.4601 58.422 27.6225 56.9076 29.3862C55.3932 31.1499 54.5611 33.398 54.5623 35.7226C54.5623 36.2756 54.609 36.8276 54.7019 37.3726L40.3457 43.8893C38.9617 42.5985 37.2311 41.7397 35.3661 41.4182C33.5012 41.0966 31.5829 41.3263 29.8466 42.0791C28.1103 42.8319 26.6314 44.075 25.5913 45.6561C24.5512 47.2371 23.9951 49.0873 23.9912 50.9798C23.9874 52.8723 24.5359 54.7248 25.5695 56.3101C26.6031 57.8953 28.0769 59.1445 29.8101 59.9044C31.5433 60.6643 33.4606 60.9019 35.3269 60.5879C37.1931 60.274 38.9272 59.4223 40.3165 58.1372L54.6915 64.631C54.3536 66.5957 54.6278 68.6167 55.477 70.4204C56.3261 72.224 57.7092 73.7231 59.4387 74.7144C61.1683 75.7057 63.1608 76.1415 65.1463 75.9626C67.1318 75.7837 69.0143 74.9988 70.5388 73.7142C72.0633 72.4297 73.1561 70.7075 73.6692 68.7811C74.1822 66.8548 74.0907 64.8172 73.4071 62.9446C72.7234 61.0719 71.4807 59.4547 69.8471 58.3119C68.2136 57.1692 66.2704 56.5562 64.2769 56.556Z" fill="url(#paint1_linear_104_29)"/>
</g>
<defs>
<linearGradient id="paint0_linear_104_29" x1="50" y1="1.49012e-06" x2="100" y2="100" gradientUnits="userSpaceOnUse">
<stop stop-color="#EDFDFF"/>
<stop offset="1" stop-color="#A7F5FF"/>
</linearGradient>
<linearGradient id="paint1_linear_104_29" x1="48.9955" y1="25.9988" x2="48.9955" y2="76.0018" gradientUnits="userSpaceOnUse">
<stop stop-color="#2E94FF"/>
<stop offset="1" stop-color="#2ED9FF"/>
</linearGradient>
<clipPath id="clip0_104_29">
<rect width="50" height="50" fill="white" transform="translate(24 26)"/>
</clipPath>
</defs>
</svg>
