<svg width="100" height="100" viewBox="0 0 100 100" fill="none" xmlns="http://www.w3.org/2000/svg">
<rect width="100" height="100" rx="20" fill="url(#paint0_linear_104_88)"/>
<path d="M27.7643 50.8333L35.1809 56.2499L32.3643 64.9729C31.9091 66.3258 31.9033 67.7895 32.3478 69.146C32.7923 70.5024 33.6633 71.6789 34.8309 72.4999C35.9785 73.3474 37.3692 73.8014 38.7958 73.7943C40.2224 73.7871 41.6085 73.3193 42.7476 72.4604L49.9997 67.1229L57.2538 72.4541C58.3994 73.2967 59.7826 73.7544 61.2046 73.7613C62.6266 73.7682 64.0142 73.3241 65.1679 72.4927C66.3216 71.6613 67.182 70.4855 67.6253 69.1343C68.0686 67.7831 68.072 66.3261 67.6351 64.9729L64.8184 56.2499L72.2351 50.8333C73.3791 49.9968 74.2296 48.8203 74.665 47.4716C75.1004 46.1229 75.0984 44.6712 74.6594 43.3237C74.2204 41.9762 73.3668 40.8019 72.2205 39.9685C71.0743 39.1351 69.694 38.6853 68.2768 38.6833H59.1663L56.4018 30.0666C55.967 28.7103 55.1127 27.5271 53.9621 26.6876C52.8115 25.8481 51.424 25.3958 49.9997 25.3958C48.5754 25.3958 47.1879 25.8481 46.0372 26.6876C44.8866 27.5271 44.0323 28.7103 43.5976 30.0666L40.833 38.6833H31.7309C30.3137 38.6853 28.9334 39.1351 27.7871 39.9685C26.6409 40.8019 25.7873 41.9762 25.3483 43.3237C24.9093 44.6712 24.9073 46.1229 25.3427 47.4716C25.7781 48.8203 26.6285 49.9968 27.7726 50.8333H27.7643Z" fill="url(#paint1_linear_104_88)"/>
<defs>
<linearGradient id="paint0_linear_104_88" x1="50" y1="1.49012e-06" x2="100" y2="100" gradientUnits="userSpaceOnUse">
<stop stop-color="#FFF2D7"/>
<stop offset="1" stop-color="#FCDEB1"/>
</linearGradient>
<linearGradient id="paint1_linear_104_88" x1="50.0038" y1="25.3958" x2="50.0038" y2="73.7943" gradientUnits="userSpaceOnUse">
<stop stop-color="#FF7E4B"/>
<stop offset="1" stop-color="#FFC329"/>
</linearGradient>
</defs>
</svg>
