<svg width="108" height="108" viewBox="0 0 108 108" fill="none" xmlns="http://www.w3.org/2000/svg">
<g clip-path="url(#clip0_178_3064)">
<rect x="4" y="4" width="100" height="100" rx="12" fill="url(#paint0_linear_178_3064)"/>
<rect x="4" y="4" width="100" height="100" rx="12" fill="url(#paint1_linear_178_3064)"/>
<rect x="4" y="4" width="100" height="100" rx="12" fill="url(#paint2_radial_178_3064)"/>
<g style="mix-blend-mode:soft-light" filter="url(#filter0_f_178_3064)">
<rect x="5.5" y="5.5" width="97" height="97" rx="10.5" stroke="url(#paint3_linear_178_3064)" stroke-width="3"/>
</g>
<g style="mix-blend-mode:soft-light" filter="url(#filter1_f_178_3064)">
<rect x="6" y="6" width="96" height="96" rx="10" stroke="url(#paint4_linear_178_3064)" stroke-width="4"/>
</g>
<rect x="4" y="4" width="100" height="100" rx="12" fill="url(#paint5_linear_178_3064)"/>
<path d="M54 29C43.8664 29 37.5332 34.2223 34.9995 44.666C38.8 39.4437 43.2334 37.486 48.2998 38.7911C51.1907 39.5358 53.2568 41.6982 55.5443 44.0909C59.2697 47.9885 63.5815 52.4995 73.0005 52.4995C83.1332 52.4995 89.4673 47.2772 92 36.8325C88.2005 42.0548 83.7671 44.0135 78.6998 42.7084C75.8097 41.9637 73.7437 39.8013 71.4561 37.4086C67.7307 33.511 63.418 29 54 29V29ZM34.9995 52.4995C24.8668 52.4995 18.5327 57.7218 16 68.1665C19.7995 62.9442 24.2329 60.9856 29.3002 62.2916C32.1903 63.0373 34.2563 65.1987 36.5439 67.5904C40.2693 71.488 44.582 76 54 76C64.1337 76 70.4668 70.7777 73.0005 60.333C69.2 65.5553 64.7666 67.514 59.7002 66.2079C56.8093 65.4642 54.7432 63.3008 52.4557 60.9091C48.7303 57.0115 44.4185 52.4995 34.9995 52.4995V52.4995Z" fill="white"/>
</g>
<rect x="2" y="2" width="104" height="104" rx="14" stroke="#3A3A3A" stroke-width="4"/>
<defs>
<filter id="filter0_f_178_3064" x="2" y="2" width="104" height="104" filterUnits="userSpaceOnUse" color-interpolation-filters="sRGB">
<feFlood flood-opacity="0" result="BackgroundImageFix"/>
<feBlend mode="normal" in="SourceGraphic" in2="BackgroundImageFix" result="shape"/>
<feGaussianBlur stdDeviation="1" result="effect1_foregroundBlur_178_3064"/>
</filter>
<filter id="filter1_f_178_3064" x="-2" y="-2" width="112" height="112" filterUnits="userSpaceOnUse" color-interpolation-filters="sRGB">
<feFlood flood-opacity="0" result="BackgroundImageFix"/>
<feBlend mode="normal" in="SourceGraphic" in2="BackgroundImageFix" result="shape"/>
<feGaussianBlur stdDeviation="3" result="effect1_foregroundBlur_178_3064"/>
</filter>
<linearGradient id="paint0_linear_178_3064" x1="54" y1="4" x2="54" y2="104" gradientUnits="userSpaceOnUse">
<stop stop-color="#38BDF8"/>
<stop offset="1" stop-color="#0EA5E9"/>
</linearGradient>
<linearGradient id="paint1_linear_178_3064" x1="54" y1="4" x2="54" y2="104" gradientUnits="userSpaceOnUse">
<stop offset="0.14" stop-color="white" stop-opacity="0.26"/>
<stop offset="0.64" stop-color="white" stop-opacity="0.08"/>
<stop offset="1" stop-color="white" stop-opacity="0"/>
</linearGradient>
<radialGradient id="paint2_radial_178_3064" cx="0" cy="0" r="1" gradientUnits="userSpaceOnUse" gradientTransform="translate(54 54) rotate(90) scale(50)">
<stop stop-color="#37BDF8"/>
<stop offset="1" stop-color="#0EA5E9"/>
</radialGradient>
<linearGradient id="paint3_linear_178_3064" x1="54" y1="104" x2="54" y2="93.5833" gradientUnits="userSpaceOnUse">
<stop/>
<stop offset="1" stop-opacity="0"/>
</linearGradient>
<linearGradient id="paint4_linear_178_3064" x1="54" y1="4" x2="54" y2="58.1667" gradientUnits="userSpaceOnUse">
<stop stop-color="white"/>
<stop offset="1" stop-color="white" stop-opacity="0"/>
</linearGradient>
<linearGradient id="paint5_linear_178_3064" x1="54" y1="4" x2="54" y2="104" gradientUnits="userSpaceOnUse">
<stop stop-opacity="0"/>
<stop offset="0.6" stop-opacity="0.08"/>
<stop offset="1" stop-opacity="0.26"/>
</linearGradient>
<clipPath id="clip0_178_3064">
<rect x="4" y="4" width="100" height="100" rx="12" fill="white"/>
</clipPath>
</defs>
</svg>
