<svg width="100" height="100" viewBox="0 0 100 100" fill="none" xmlns="http://www.w3.org/2000/svg">
<rect width="100" height="100" rx="20" fill="url(#paint0_linear_104_67)"/>
<g clip-path="url(#clip0_104_67)">
<path d="M40.625 52.0833C38.7708 52.0833 36.9582 51.5335 35.4165 50.5034C33.8748 49.4732 32.6732 48.0091 31.9636 46.296C31.2541 44.5829 31.0684 42.6979 31.4301 40.8794C31.7919 39.0608 32.6848 37.3903 33.9959 36.0792C35.307 34.7681 36.9775 33.8752 38.796 33.5135C40.6146 33.1517 42.4996 33.3374 44.2127 34.047C45.9257 34.7565 47.3899 35.9582 48.42 37.4999C49.4502 39.0416 50 40.8541 50 42.7083C49.9972 45.1939 49.0086 47.5769 47.2511 49.3344C45.4935 51.092 43.1106 52.0806 40.625 52.0833ZM56.25 66.6667C56.2467 63.905 55.1482 61.2574 53.1954 59.3046C51.2426 57.3518 48.595 56.2533 45.8333 56.25H35.4167C32.655 56.2533 30.0074 57.3518 28.0546 59.3046C26.1018 61.2574 25.0033 63.905 25 66.6667L25 75H56.25V66.6667ZM61.4583 43.75C59.6041 43.75 57.7916 43.2002 56.2499 42.17C54.7082 41.1399 53.5065 39.6757 52.797 37.9627C52.0874 36.2496 51.9017 34.3646 52.2635 32.546C52.6252 30.7275 53.5181 29.057 54.8292 27.7459C56.1403 26.4348 57.8108 25.5419 59.6294 25.1801C61.4479 24.8184 63.3329 25.0041 65.046 25.7136C66.759 26.4232 68.2232 27.6248 69.2534 29.1665C70.2835 30.7082 70.8333 32.5208 70.8333 34.375C70.8306 36.8606 69.842 39.2435 68.0844 41.0011C66.3269 42.7586 63.9439 43.7472 61.4583 43.75ZM64.5833 47.9167H54.1667C53.801 47.9334 53.4366 47.9703 53.075 48.0271C52.3175 49.7798 51.1987 51.353 49.7917 52.6438C52.8465 53.5081 55.5363 55.3446 57.4536 57.8751C59.3709 60.4055 60.4111 63.4919 60.4167 66.6667H75V58.3333C74.9967 55.5717 73.8982 52.9241 71.9454 50.9713C69.9926 49.0185 67.345 47.92 64.5833 47.9167Z" fill="url(#paint1_linear_104_67)"/>
</g>
<defs>
<linearGradient id="paint0_linear_104_67" x1="50" y1="1.49012e-06" x2="100" y2="100" gradientUnits="userSpaceOnUse">
<stop stop-color="#FFEBEE"/>
<stop offset="1" stop-color="#FFC5C8"/>
</linearGradient>
<linearGradient id="paint1_linear_104_67" x1="50" y1="25" x2="50" y2="75" gradientUnits="userSpaceOnUse">
<stop stop-color="#FF4040"/>
<stop offset="1" stop-color="#FF9197"/>
</linearGradient>
<clipPath id="clip0_104_67">
<rect width="50" height="50" fill="white" transform="translate(25 25)"/>
</clipPath>
</defs>
</svg>
