<svg width="100" height="100" viewBox="0 0 100 100" fill="none" xmlns="http://www.w3.org/2000/svg">
<rect width="100" height="100" fill="url(#paint0_linear_104_92)"/>
<g clip-path="url(#clip0_104_92)">
<path d="M37.2253 57.4645C35.0281 55.4349 33.3521 52.9059 32.3393 50.0915C31.3264 47.277 31.0065 44.26 31.4065 41.2958C31.8021 38.2901 32.9206 35.4251 34.6661 32.9464C36.4116 30.4677 38.7322 28.4493 41.4288 27.064C44.1254 25.6788 47.1177 24.9681 50.1493 24.9928C53.1808 25.0175 56.1611 25.777 58.8348 27.2061C61.5084 28.6351 63.7957 30.6912 65.5005 33.198C67.2054 35.7048 68.277 38.5877 68.6234 41.5994C68.9699 44.6112 68.5809 47.6621 67.4898 50.4905C66.3987 53.319 64.638 55.8407 62.3586 57.8395C60.8909 59.1014 59.7513 60.7006 59.0378 62.4999H52.0836V47.5333C53.298 47.1039 54.3501 46.3099 55.096 45.2597C55.8418 44.2096 56.245 42.9546 56.2503 41.6666C56.2503 41.1141 56.0308 40.5842 55.6401 40.1935C55.2494 39.8028 54.7195 39.5833 54.167 39.5833C53.6144 39.5833 53.0845 39.8028 52.6938 40.1935C52.3031 40.5842 52.0836 41.1141 52.0836 41.6666C52.0836 42.2191 51.8641 42.749 51.4734 43.1397C51.0827 43.5304 50.5528 43.7499 50.0003 43.7499C49.4478 43.7499 48.9179 43.5304 48.5272 43.1397C48.1365 42.749 47.917 42.2191 47.917 41.6666C47.917 41.1141 47.6975 40.5842 47.3068 40.1935C46.9161 39.8028 46.3862 39.5833 45.8336 39.5833C45.2811 39.5833 44.7512 39.8028 44.3605 40.1935C43.9698 40.5842 43.7503 41.1141 43.7503 41.6666C43.7556 42.9546 44.1588 44.2096 44.9046 45.2597C45.6505 46.3099 46.7026 47.1039 47.917 47.5333V62.4999H40.7565C39.9601 60.5844 38.7549 58.8659 37.2253 57.4645ZM41.667 66.6666V67.3124C41.6692 69.3506 42.4798 71.3047 43.921 72.7459C45.3622 74.1871 47.3163 74.9977 49.3545 74.9999H50.6461C52.6843 74.9977 54.6384 74.1871 56.0796 72.7459C57.5208 71.3047 58.3314 69.3506 58.3336 67.3124V66.6666H41.667Z" fill="url(#paint1_linear_104_92)"/>
</g>
<defs>
<linearGradient id="paint0_linear_104_92" x1="50" y1="1.49012e-06" x2="100" y2="100" gradientUnits="userSpaceOnUse">
<stop stop-color="#FFF2D7"/>
<stop offset="1" stop-color="#FCDEB1"/>
</linearGradient>
<linearGradient id="paint1_linear_104_92" x1="49.9928" y1="24.9922" x2="49.9928" y2="74.9999" gradientUnits="userSpaceOnUse">
<stop stop-color="#FF7E4B"/>
<stop offset="1" stop-color="#FFC329"/>
</linearGradient>
<clipPath id="clip0_104_92">
<rect width="50" height="50" fill="white" transform="translate(25 25)"/>
</clipPath>
</defs>
</svg>
