<svg width="100" height="100" viewBox="0 0 100 100" fill="none" xmlns="http://www.w3.org/2000/svg">
<rect width="100" height="100" fill="url(#paint0_linear_104_84)"/>
<path d="M72.4292 34.5127C71.6679 34.1956 70.8295 34.1122 70.0207 34.2733C69.2119 34.4343 68.4693 34.8324 67.8875 35.4169L62.5 40.8044L52.9458 31.2502C52.1645 30.4691 51.1049 30.0303 50 30.0303C48.8951 30.0303 47.8355 30.4691 47.0542 31.2502L37.5 40.8044L32.1125 35.4169C31.5298 34.8343 30.7874 34.4377 29.9793 34.277C29.1712 34.1163 28.3335 34.1988 27.5723 34.5141C26.811 34.8294 26.1603 35.3633 25.7025 36.0483C25.2446 36.7333 25.0002 37.5388 25 38.3627V60.4169C25.0033 63.1785 26.1018 65.8261 28.0546 67.7789C30.0074 69.7317 32.655 70.8302 35.4167 70.8336H64.5833C67.345 70.8302 69.9926 69.7317 71.9454 67.7789C73.8982 65.8261 74.9967 63.1785 75 60.4169V38.3627C75.0002 37.5387 74.7561 36.7331 74.2985 36.0478C73.8409 35.3625 73.1904 34.8283 72.4292 34.5127Z" fill="url(#paint1_linear_104_84)"/>
<defs>
<linearGradient id="paint0_linear_104_84" x1="50" y1="1.49012e-06" x2="100" y2="100" gradientUnits="userSpaceOnUse">
<stop stop-color="#FFF2D7"/>
<stop offset="1" stop-color="#FCDEB1"/>
</linearGradient>
<linearGradient id="paint1_linear_104_84" x1="50" y1="30.0303" x2="50" y2="70.8336" gradientUnits="userSpaceOnUse">
<stop stop-color="#FF7E4B"/>
<stop offset="1" stop-color="#FFC329"/>
</linearGradient>
</defs>
</svg>
