<svg width="100" height="100" viewBox="0 0 100 100" fill="none" xmlns="http://www.w3.org/2000/svg">
<rect width="100" height="100" fill="url(#paint0_linear_104_59)"/>
<g clip-path="url(#clip0_104_59)">
<path d="M29.1667 57.25H47.9167V76H39.5833C36.8207 76 34.1711 74.9025 32.2176 72.949C30.2641 70.9955 29.1667 68.346 29.1667 65.5833V57.25ZM75 48.9167C75 50.0217 74.561 51.0815 73.7796 51.8629C72.9982 52.6443 71.9384 53.0833 70.8333 53.0833H52.0833V44.6604C51.3833 44.7146 50.6854 44.75 50 44.75C49.3146 44.75 48.6167 44.7146 47.9167 44.6604V53.0833H29.1667C28.0616 53.0833 27.0018 52.6443 26.2204 51.8629C25.439 51.0815 25 50.0217 25 48.9167C25 46.7065 25.878 44.5869 27.4408 43.0241C29.0036 41.4613 31.1232 40.5833 33.3333 40.5833H36.9542C35.7762 39.545 34.8412 38.2602 34.2155 36.82C33.5897 35.3798 33.2886 33.8196 33.3333 32.25C33.3333 31.6975 33.5528 31.1676 33.9435 30.7769C34.3342 30.3862 34.8641 30.1667 35.4167 30.1667C35.9692 30.1667 36.4991 30.3862 36.8898 30.7769C37.2805 31.1676 37.5 31.6975 37.5 32.25C37.5 37.7125 42.4396 39.6042 46.1958 40.2521C44.8094 37.7939 43.9748 35.0633 43.75 32.25C43.75 30.5924 44.4085 29.0027 45.5806 27.8306C46.7527 26.6585 48.3424 26 50 26C51.6576 26 53.2473 26.6585 54.4194 27.8306C55.5915 29.0027 56.25 30.5924 56.25 32.25C56.0252 35.0633 55.1906 37.7939 53.8042 40.2521C57.5604 39.6042 62.5 37.7125 62.5 32.25C62.5 31.6975 62.7195 31.1676 63.1102 30.7769C63.5009 30.3862 64.0308 30.1667 64.5833 30.1667C65.1359 30.1667 65.6658 30.3862 66.0565 30.7769C66.4472 31.1676 66.6667 31.6975 66.6667 32.25C66.7114 33.8196 66.4103 35.3798 65.7845 36.82C65.1588 38.2602 64.2238 39.545 63.0458 40.5833H66.6667C68.8768 40.5833 70.9964 41.4613 72.5592 43.0241C74.122 44.5869 75 46.7065 75 48.9167ZM47.9167 32.25C48.1682 34.4642 48.8776 36.6019 50 38.5271C51.1224 36.6019 51.8318 34.4642 52.0833 32.25C52.0833 31.6975 51.8638 31.1676 51.4731 30.7769C51.0824 30.3862 50.5525 30.1667 50 30.1667C49.4475 30.1667 48.9176 30.3862 48.5269 30.7769C48.1362 31.1676 47.9167 31.6975 47.9167 32.25ZM52.0833 76H60.4167C61.7846 76 63.1391 75.7306 64.403 75.2071C65.6668 74.6836 66.8151 73.9163 67.7824 72.949C68.7496 71.9818 69.5169 70.8334 70.0404 69.5696C70.5639 68.3058 70.8333 66.9513 70.8333 65.5833V57.25H52.0833V76Z" fill="url(#paint1_linear_104_59)"/>
</g>
<defs>
<linearGradient id="paint0_linear_104_59" x1="50" y1="1.49012e-06" x2="100" y2="100" gradientUnits="userSpaceOnUse">
<stop stop-color="#FFEBEE"/>
<stop offset="1" stop-color="#FFC5C8"/>
</linearGradient>
<linearGradient id="paint1_linear_104_59" x1="50" y1="26" x2="50" y2="76" gradientUnits="userSpaceOnUse">
<stop stop-color="#FF4040"/>
<stop offset="1" stop-color="#FF9197"/>
</linearGradient>
<clipPath id="clip0_104_59">
<rect width="50" height="50" fill="white" transform="translate(25 26)"/>
</clipPath>
</defs>
</svg>
