<svg width="100" height="100" viewBox="0 0 100 100" fill="none" xmlns="http://www.w3.org/2000/svg">
<rect width="100" height="100" fill="url(#paint0_linear_104_14)"/>
<g clip-path="url(#clip0_104_14)">
<path d="M74.3723 28.5796L35.8101 67.1314C36.6437 67.5377 37.5581 67.7512 38.4855 67.756H45.0898C45.6423 67.7546 46.1724 67.9743 46.5619 68.3661L50.141 71.9432C52.0819 73.8974 54.7218 74.9975 57.4761 74.9996C58.6133 74.9985 59.7427 74.8121 60.8199 74.4479C64.5335 73.2304 67.2346 70.0111 67.7887 66.1424L74.824 32.725C75.1599 31.3326 75.0002 29.8668 74.3723 28.5796Z" fill="url(#paint1_linear_104_14)"/>
<path d="M67.3348 25.1608L33.9986 32.1837C28.3027 32.9662 24.3195 38.2181 25.102 43.9141C25.4111 46.1636 26.4471 48.2504 28.0522 49.8564L31.6293 53.4334C32.0202 53.8243 32.2397 54.3546 32.2393 54.9075V61.5119C32.2441 62.4392 32.4577 63.3537 32.864 64.1873L71.4199 25.6251C70.1529 25.0025 68.7092 24.8384 67.3348 25.1608Z" fill="url(#paint2_linear_104_14)"/>
</g>
<defs>
<linearGradient id="paint0_linear_104_14" x1="50" y1="1.49012e-06" x2="100" y2="100" gradientUnits="userSpaceOnUse">
<stop stop-color="#EDFDFF"/>
<stop offset="1" stop-color="#A7F5FF"/>
</linearGradient>
<linearGradient id="paint1_linear_104_14" x1="55.4029" y1="28.5796" x2="55.4029" y2="74.9996" gradientUnits="userSpaceOnUse">
<stop stop-color="#2E94FF"/>
<stop offset="1" stop-color="#2ED9FF"/>
</linearGradient>
<linearGradient id="paint2_linear_104_14" x1="48.2119" y1="24.9995" x2="48.2119" y2="64.1873" gradientUnits="userSpaceOnUse">
<stop stop-color="#2E94FF"/>
<stop offset="1" stop-color="#2ED9FF"/>
</linearGradient>
<clipPath id="clip0_104_14">
<rect width="50" height="50" fill="white" transform="translate(25 25)"/>
</clipPath>
</defs>
</svg>
