<svg width="100" height="100" viewBox="0 0 100 100" fill="none" xmlns="http://www.w3.org/2000/svg">
<rect width="100" height="100" fill="url(#paint0_linear_104_29)"/>
<g clip-path="url(#clip0_104_29)">
<path d="M64.2769 56.5562C62.7006 56.5566 61.1481 56.9405 59.7533 57.6748C58.3585 58.409 57.1632 59.4716 56.2707 60.7708L42.729 54.6562C43.6786 52.3241 43.6861 49.7145 42.7498 47.3771L56.279 41.2333C57.5983 43.1473 59.5599 44.5251 61.8081 45.1166C64.0562 45.7082 66.4419 45.4743 68.5324 44.4574C70.6228 43.4405 72.2795 41.708 73.202 39.5742C74.1244 37.4404 74.2514 35.0466 73.56 32.8271C72.8686 30.6077 71.4045 28.7096 69.4334 27.4772C67.4623 26.2448 65.1147 25.7597 62.8166 26.11C60.5185 26.4603 58.422 27.6227 56.9076 29.3864C55.3932 31.1501 54.5611 33.3982 54.5623 35.7229C54.5623 36.2758 54.609 36.8278 54.7019 37.3729L40.3457 43.8896C38.9617 42.5988 37.2311 41.74 35.3661 41.4184C33.5012 41.0969 31.5829 41.3266 29.8466 42.0794C28.1103 42.8321 26.6314 44.0753 25.5913 45.6563C24.5512 47.2374 23.9951 49.0876 23.9912 50.9801C23.9874 52.8725 24.5359 54.725 25.5695 56.3103C26.6031 57.8956 28.0769 59.1448 29.8101 59.9047C31.5433 60.6645 33.4606 60.9021 35.3269 60.5882C37.1931 60.2743 38.9272 59.4226 40.3165 58.1375L54.6915 64.6312C54.3536 66.5959 54.6278 68.617 55.477 70.4206C56.3261 72.2243 57.7092 73.7233 59.4387 74.7146C61.1683 75.706 63.1608 76.1417 65.1463 75.9628C67.1318 75.7839 69.0143 74.999 70.5388 73.7145C72.0633 72.4299 73.1561 70.7078 73.6692 68.7814C74.1822 66.855 74.0907 64.8175 73.4071 62.9448C72.7234 61.0722 71.4807 59.4549 69.8471 58.3122C68.2136 57.1694 66.2704 56.5564 64.2769 56.5562Z" fill="url(#paint1_linear_104_29)"/>
</g>
<defs>
<linearGradient id="paint0_linear_104_29" x1="50" y1="1.49012e-06" x2="100" y2="100" gradientUnits="userSpaceOnUse">
<stop stop-color="#EDFDFF"/>
<stop offset="1" stop-color="#A7F5FF"/>
</linearGradient>
<linearGradient id="paint1_linear_104_29" x1="48.9955" y1="25.999" x2="48.9955" y2="76.0021" gradientUnits="userSpaceOnUse">
<stop stop-color="#2E94FF"/>
<stop offset="1" stop-color="#2ED9FF"/>
</linearGradient>
<clipPath id="clip0_104_29">
<rect width="50" height="50" fill="white" transform="translate(24 26)"/>
</clipPath>
</defs>
</svg>
