<svg width="100" height="100" viewBox="0 0 100 100" fill="none" xmlns="http://www.w3.org/2000/svg">
<rect width="100" height="100" rx="20" fill="url(#paint0_linear_104_63)"/>
<g clip-path="url(#clip0_104_63)">
<path d="M54.1667 40.5833C54.1667 36.7156 52.6302 33.0063 49.8953 30.2714C47.1604 27.5365 43.4511 26 39.5833 26C35.7156 26 32.0063 27.5365 29.2714 30.2714C26.5365 33.0063 25 36.7156 25 40.5833C25 48.8563 29.7021 58.2604 36.2292 60.7604C35.7776 61.5124 35.4999 62.3559 35.4167 63.2292C35.4167 66.5021 38.5188 67.9521 40.7833 69.0125C42.0333 69.5958 43.75 70.3979 43.75 71.0188C43.5803 71.6657 43.2765 72.2697 42.8583 72.7917C42.7106 73.022 42.6097 73.2792 42.5613 73.5486C42.513 73.818 42.5182 74.0942 42.5766 74.3616C42.635 74.6289 42.7456 74.8821 42.9018 75.1068C43.0581 75.3314 43.2571 75.5231 43.4875 75.6708C43.9527 75.9692 44.5174 76.0705 45.0574 75.9525C45.3247 75.8941 45.578 75.7836 45.8026 75.6273C46.0273 75.471 46.2189 75.272 46.3667 75.0417C47.2509 73.8729 47.7881 72.4787 47.9167 71.0188C47.9167 67.7458 44.8146 66.2958 42.55 65.2375C41.3 64.6521 39.5833 63.85 39.5646 63.4354C39.8813 62.6891 40.2781 61.9794 40.7479 61.3188C48.3896 60.3229 54.1667 49.75 54.1667 40.5833ZM44.1167 47.8125C45.0767 46.2519 45.6641 44.4911 45.8333 42.6667C45.8333 42.1141 46.0528 41.5842 46.4435 41.1935C46.8342 40.8028 47.3641 40.5833 47.9167 40.5833C48.4692 40.5833 48.9991 40.8028 49.3898 41.1935C49.7805 41.5842 50 42.1141 50 42.6667C49.8296 45.2736 49.0219 47.7989 47.6479 50.0208C47.5029 50.2534 47.3135 50.4551 47.0906 50.6145C46.8676 50.7738 46.6155 50.8877 46.3485 50.9496C46.0815 51.0115 45.805 51.0202 45.5346 50.9753C45.2643 50.9303 45.0055 50.8325 44.7729 50.6875C44.5404 50.5425 44.3387 50.3531 44.1793 50.1302C44.0199 49.9072 43.9061 49.655 43.8442 49.3881C43.7822 49.1211 43.7735 48.8446 43.8185 48.5742C43.8635 48.3039 43.9612 48.0451 44.1063 47.8125H44.1167ZM65.625 64.7271C64.2042 63.9729 62.7375 63.1917 62.5333 62.3063C62.4375 61.9042 62.4813 60.9979 63.6063 59.2375C70.2083 58.2917 75 48.9688 75 40.5833C75.0582 38.9261 74.7747 37.2747 74.1671 35.7318C73.5595 34.1889 72.6409 32.7876 71.4683 31.615C70.2958 30.4425 68.8945 29.5238 67.3516 28.9162C65.8087 28.3086 64.1572 28.0251 62.5 28.0833C59.9071 28.0484 57.3645 28.801 55.2083 30.2417C57.2486 33.3045 58.336 36.9031 58.3333 40.5833C58.2311 45.5408 56.9576 50.4038 54.6167 54.775C55.8077 56.4087 57.3815 57.725 59.2 58.6083C58.431 60.0266 58.1721 61.6659 58.4667 63.2521C59.1042 65.9813 61.6313 67.325 63.6625 68.4063C64.9458 69.0896 66.3979 69.8646 66.6188 70.6313C66.6735 71.434 66.4409 72.2301 65.9625 72.8771C65.8236 73.1141 65.7328 73.3763 65.6956 73.6485C65.6584 73.9207 65.6754 74.1976 65.7456 74.4632C65.8159 74.7288 65.9379 74.978 66.1048 75.1962C66.2717 75.4145 66.4801 75.5975 66.7181 75.7349C66.956 75.8723 67.2188 75.9613 67.4912 75.9967C67.7637 76.0321 68.0405 76.0133 68.3056 75.9413C68.5708 75.8693 68.8191 75.7456 69.0362 75.5772C69.2533 75.4089 69.435 75.1993 69.5708 74.9604C70.1155 74.1707 70.4904 73.2766 70.6719 72.3345C70.8533 71.3925 70.8374 70.4231 70.625 69.4875C70.1616 68.3942 69.4787 67.4076 68.6187 66.5888C67.7587 65.7699 66.7397 65.1363 65.625 64.7271ZM64.9479 47.8125C65.9087 46.2521 66.4968 44.4912 66.6667 42.6667C66.6667 42.1141 66.8862 41.5842 67.2769 41.1935C67.6676 40.8028 68.1975 40.5833 68.75 40.5833C69.3025 40.5833 69.8324 40.8028 70.2231 41.1935C70.6138 41.5842 70.8333 42.1141 70.8333 42.6667C70.6629 45.2736 69.8553 47.7989 68.4813 50.0208C68.1884 50.4905 67.721 50.8246 67.1818 50.9496C66.6427 51.0746 66.0759 50.9803 65.6063 50.6875C65.1366 50.3947 64.8025 49.9272 64.6775 49.3881C64.5525 48.8489 64.6467 48.2822 64.9396 47.8125H64.9479Z" fill="url(#paint1_linear_104_63)"/>
</g>
<defs>
<linearGradient id="paint0_linear_104_63" x1="50" y1="1.49012e-06" x2="100" y2="100" gradientUnits="userSpaceOnUse">
<stop stop-color="#FFEBEE"/>
<stop offset="1" stop-color="#FFC5C8"/>
</linearGradient>
<linearGradient id="paint1_linear_104_63" x1="50.0037" y1="26" x2="50.0037" y2="76.0141" gradientUnits="userSpaceOnUse">
<stop stop-color="#FF4040"/>
<stop offset="1" stop-color="#FF9197"/>
</linearGradient>
<clipPath id="clip0_104_63">
<rect width="50" height="50" fill="white" transform="translate(25 26)"/>
</clipPath>
</defs>
</svg>
