<svg width="100" height="100" viewBox="0 0 100 100" fill="none" xmlns="http://www.w3.org/2000/svg">
<rect width="100" height="100" fill="url(#paint0_linear_104_101)"/>
<path d="M30.9355 74.0625C32.0731 74.5487 33.3308 74.6807 34.5445 74.4414C35.7583 74.202 36.8717 73.6025 37.7396 72.7208L50 60.5271L62.2605 72.7208C62.8321 73.3008 63.5131 73.7617 64.2641 74.0768C65.0151 74.3918 65.8211 74.5548 66.6355 74.5563C67.4725 74.5538 68.3009 74.386 69.073 74.0625C70.2199 73.5984 71.2001 72.7992 71.8859 71.7693C72.5716 70.7395 72.9308 69.5268 72.9167 68.2896V35.4167C72.9134 32.655 71.8149 30.0074 69.8621 28.0546C67.9093 26.1018 65.2617 25.0033 62.5 25L37.5 25C34.7384 25.0033 32.0908 26.1018 30.138 28.0546C28.1852 30.0074 27.0867 32.655 27.0834 35.4167V68.2896C27.0699 69.5277 27.4304 70.7411 28.1177 71.7711C28.8049 72.801 29.787 73.5997 30.9355 74.0625Z" fill="url(#paint1_linear_104_101)"/>
<defs>
<linearGradient id="paint0_linear_104_101" x1="50" y1="1.49012e-06" x2="100" y2="100" gradientUnits="userSpaceOnUse">
<stop stop-color="#F4FFCA"/>
<stop offset="1" stop-color="#E2FA84"/>
</linearGradient>
<linearGradient id="paint1_linear_104_101" x1="50.0001" y1="25" x2="50.0001" y2="74.5576" gradientUnits="userSpaceOnUse">
<stop stop-color="#5EB037"/>
<stop offset="1" stop-color="#98D31A"/>
</linearGradient>
</defs>
</svg>
