<svg width="100" height="100" viewBox="0 0 100 100" fill="none" xmlns="http://www.w3.org/2000/svg">
<rect width="100" height="100" rx="20" fill="url(#paint0_linear_253_2362)"/>
<g clip-path="url(#clip0_253_2362)">
<path d="M37.2248 57.4645C35.0276 55.4349 33.3517 52.9059 32.3388 50.0915C31.326 47.277 31.006 44.26 31.4061 41.2958C31.8016 38.2901 32.9201 35.4251 34.6656 32.9464C36.4111 30.4677 38.7317 28.4493 41.4283 27.064C44.1249 25.6788 47.1172 24.9681 50.1488 24.9928C53.1803 25.0175 56.1606 25.777 58.8343 27.2061C61.5079 28.6351 63.7952 30.6912 65.5001 33.198C67.2049 35.7048 68.2765 38.5877 68.6229 41.5994C68.9694 44.6112 68.5804 47.6621 67.4893 50.4905C66.3982 53.319 64.6375 55.8407 62.3581 57.8395C60.8904 59.1014 59.7508 60.7006 59.0373 62.4999H52.0831V47.5333C53.2975 47.1039 54.3496 46.3099 55.0955 45.2597C55.8413 44.2096 56.2445 42.9546 56.2498 41.6666C56.2498 41.1141 56.0303 40.5842 55.6396 40.1935C55.2489 39.8028 54.719 39.5833 54.1665 39.5833C53.6139 39.5833 53.084 39.8028 52.6933 40.1935C52.3026 40.5842 52.0831 41.1141 52.0831 41.6666C52.0831 42.2191 51.8636 42.749 51.4729 43.1397C51.0822 43.5304 50.5523 43.7499 49.9998 43.7499C49.4473 43.7499 48.9174 43.5304 48.5267 43.1397C48.136 42.749 47.9165 42.2191 47.9165 41.6666C47.9165 41.1141 47.697 40.5842 47.3063 40.1935C46.9156 39.8028 46.3857 39.5833 45.8331 39.5833C45.2806 39.5833 44.7507 39.8028 44.36 40.1935C43.9693 40.5842 43.7498 41.1141 43.7498 41.6666C43.7551 42.9546 44.1583 44.2096 44.9042 45.2597C45.65 46.3099 46.7021 47.1039 47.9165 47.5333V62.4999H40.7561C39.9596 60.5844 38.7544 58.8659 37.2248 57.4645ZM41.6665 66.6666V67.3124C41.6687 69.3506 42.4793 71.3047 43.9205 72.7459C45.3617 74.1871 47.3158 74.9977 49.354 74.9999H50.6456C52.6838 74.9977 54.6379 74.1871 56.0791 72.7459C57.5203 71.3047 58.3309 69.3506 58.3331 67.3124V66.6666H41.6665Z" fill="url(#paint1_linear_253_2362)"/>
</g>
<defs>
<linearGradient id="paint0_linear_253_2362" x1="50" y1="1.49012e-06" x2="100" y2="100" gradientUnits="userSpaceOnUse">
<stop stop-color="#EDFDFF"/>
<stop offset="1" stop-color="#ABF5FF"/>
</linearGradient>
<linearGradient id="paint1_linear_253_2362" x1="49.9923" y1="24.9922" x2="49.9923" y2="74.9999" gradientUnits="userSpaceOnUse">
<stop stop-color="#2E94FF"/>
<stop offset="1" stop-color="#2ED9FF"/>
</linearGradient>
<clipPath id="clip0_253_2362">
<rect width="50" height="50" fill="white" transform="translate(25 25)"/>
</clipPath>
</defs>
</svg>
