<svg width="100" height="100" viewBox="0 0 100 100" fill="none" xmlns="http://www.w3.org/2000/svg">
<rect width="100" height="100" fill="url(#paint0_linear_104_117)"/>
<g clip-path="url(#clip0_104_117)">
<path d="M50 25C45.0555 25 40.222 26.4662 36.1108 29.2133C31.9995 31.9603 28.7952 35.8648 26.903 40.4329C25.0108 45.0011 24.5157 50.0277 25.4804 54.8773C26.445 59.7268 28.826 64.1814 32.3223 67.6777C35.8187 71.174 40.2732 73.555 45.1228 74.5196C49.9723 75.4843 54.9989 74.9892 59.5671 73.097C64.1353 71.2048 68.0397 68.0005 70.7867 63.8893C73.5338 59.778 75 54.9445 75 50C74.9928 43.3718 72.3566 37.0171 67.6698 32.3302C62.9829 27.6434 56.6282 25.0072 50 25ZM50 54.1667C49.0836 54.1698 48.1918 53.8697 47.4636 53.3133C46.7355 52.7568 46.2117 51.9752 45.974 51.0901C45.7363 50.2051 45.7979 49.2662 46.1493 48.4198C46.5006 47.5734 47.122 46.8669 47.9167 46.4104V39.5833C47.9167 39.0308 48.1362 38.5009 48.5269 38.1102C48.9176 37.7195 49.4475 37.5 50 37.5C50.5525 37.5 51.0824 37.7195 51.4732 38.1102C51.8638 38.5009 52.0833 39.0308 52.0833 39.5833V46.4104C52.878 46.8669 53.4994 47.5734 53.8508 48.4198C54.2021 49.2662 54.2638 50.2051 54.026 51.0901C53.7883 51.9752 53.2646 52.7568 52.5364 53.3133C51.8082 53.8697 50.9165 54.1698 50 54.1667Z" fill="url(#paint1_linear_104_117)"/>
</g>
<defs>
<linearGradient id="paint0_linear_104_117" x1="50" y1="1.49012e-06" x2="100" y2="100" gradientUnits="userSpaceOnUse">
<stop stop-color="#F4FFCA"/>
<stop offset="1" stop-color="#E2FA84"/>
</linearGradient>
<linearGradient id="paint1_linear_104_117" x1="50" y1="25" x2="50" y2="75" gradientUnits="userSpaceOnUse">
<stop stop-color="#5EB037"/>
<stop offset="1" stop-color="#98D31A"/>
</linearGradient>
<clipPath id="clip0_104_117">
<rect width="50" height="50" fill="white" transform="translate(25 25)"/>
</clipPath>
</defs>
</svg>
