<svg width="100" height="100" viewBox="0 0 100 100" fill="none" xmlns="http://www.w3.org/2000/svg">
<rect width="100" height="100" fill="url(#paint0_linear_104_50)"/>
<g clip-path="url(#clip0_104_50)">
<path d="M73.5521 58.8543C73.3178 59.4707 72.9323 60.0184 72.431 60.4468C71.9298 60.8753 71.3288 61.1709 70.6834 61.3064C70.0274 61.4509 69.3455 61.4271 68.7012 61.2373C68.0568 61.0476 67.4709 60.6979 66.998 60.2209L66.7896 60.0126C65.7465 58.9696 64.4165 58.2606 62.969 57.9759C61.5216 57.6913 60.0222 57.8439 58.6618 58.4143C57.3013 58.9847 56.1414 59.9471 55.3298 61.1789C54.5182 62.4107 54.0915 63.8562 54.1042 65.3314L54.1875 74.7397L52.2625 74.9001C51.573 74.9584 50.8813 75.0043 50.1792 75.0043C45.1971 75.0059 40.3281 73.519 36.1969 70.7341C32.0658 67.9493 28.8609 63.9937 26.9935 59.3748C25.1261 54.7559 24.6813 49.6843 25.7163 44.8109C26.7513 39.9374 29.2187 35.4844 32.8021 32.023C35.208 29.6787 38.0657 27.8484 41.2014 26.6436C44.337 25.4387 47.6851 24.8845 51.0417 25.0147C57.3849 25.3108 63.3854 27.9792 67.8538 32.4912C72.3222 37.0032 74.9323 43.0293 75.1667 49.3751C75.251 52.6098 74.7026 55.8299 73.5521 58.8543ZM60.6563 41.7709C60.059 41.9296 59.5222 42.2619 59.1137 42.7257C58.7052 43.1894 58.4434 43.7639 58.3614 44.3765C58.2794 44.989 58.3808 45.6122 58.6529 46.1671C58.925 46.722 59.3556 47.1837 59.8901 47.4939C60.4246 47.8042 61.0391 47.9489 61.6559 47.9099C62.2727 47.8709 62.8641 47.6499 63.3553 47.2749C63.8465 46.8998 64.2154 46.3875 64.4155 45.8027C64.6155 45.218 64.6377 44.587 64.4792 43.9897C64.3739 43.593 64.1915 43.2208 63.9424 42.8946C63.6933 42.5684 63.3824 42.2944 63.0274 42.0884C62.6724 41.8823 62.2802 41.7483 61.8734 41.6938C61.4666 41.6393 61.053 41.6655 60.6563 41.7709ZM50.2396 35.5209C49.6423 35.6796 49.1055 36.0119 48.697 36.4757C48.2885 36.9394 48.0267 37.5139 47.9447 38.1265C47.8627 38.739 47.9642 39.3622 48.2363 39.9171C48.5084 40.472 48.9389 40.9337 49.4734 41.2439C50.0079 41.5542 50.6225 41.6989 51.2392 41.6599C51.856 41.6209 52.4474 41.3999 52.9386 41.0249C53.4298 40.6498 53.7988 40.1375 53.9988 39.5527C54.1989 38.968 54.221 38.337 54.0625 37.7397C53.9573 37.343 53.7749 36.9708 53.5258 36.6446C53.2766 36.3184 52.9657 36.0444 52.6107 35.8384C52.2557 35.6323 51.8636 35.4983 51.4567 35.4438C51.0499 35.3893 50.6363 35.4155 50.2396 35.5209ZM39.823 41.7709C39.2257 41.9296 38.6888 42.2619 38.2803 42.7257C37.8718 43.1894 37.61 43.7639 37.528 44.3765C37.446 44.989 37.5475 45.6122 37.8196 46.1671C38.0917 46.722 38.5222 47.1837 39.0568 47.4939C39.5913 47.8042 40.2058 47.9489 40.8226 47.9099C41.4394 47.8709 42.0308 47.6499 42.5219 47.2749C43.0131 46.8998 43.3821 46.3875 43.5821 45.8027C43.7822 45.218 43.8044 44.587 43.6459 43.9897C43.5406 43.593 43.3582 43.2208 43.1091 42.8946C42.86 42.5684 42.549 42.2944 42.194 42.0884C41.839 41.8823 41.4469 41.7483 41.0401 41.6938C40.6332 41.6393 40.2197 41.6655 39.823 41.7709ZM39.823 54.2709C39.2257 54.4296 38.6888 54.7619 38.2803 55.2257C37.8718 55.6894 37.61 56.2639 37.528 56.8765C37.446 57.489 37.5475 58.1122 37.8196 58.6671C38.0917 59.222 38.5222 59.6837 39.0568 59.9939C39.5913 60.3042 40.2058 60.4489 40.8226 60.4099C41.4394 60.3709 42.0308 60.1499 42.5219 59.7749C43.0131 59.3998 43.3821 58.8875 43.5821 58.3027C43.7822 57.718 43.8044 57.087 43.6459 56.4897C43.5406 56.093 43.3582 55.7208 43.1091 55.3946C42.86 55.0684 42.549 54.7944 42.194 54.5884C41.839 54.3823 41.4469 54.2483 41.0401 54.1938C40.6332 54.1393 40.2197 54.1655 39.823 54.2709Z" fill="url(#paint1_linear_104_50)"/>
</g>
<defs>
<linearGradient id="paint0_linear_104_50" x1="50" y1="1.49012e-06" x2="100" y2="100" gradientUnits="userSpaceOnUse">
<stop stop-color="#F7EFFF"/>
<stop offset="1" stop-color="#E5CDFF"/>
</linearGradient>
<linearGradient id="paint1_linear_104_50" x1="50.173" y1="24.9961" x2="50.173" y2="75.0043" gradientUnits="userSpaceOnUse">
<stop stop-color="#B33BEB"/>
<stop offset="1" stop-color="#DD94FF"/>
</linearGradient>
<clipPath id="clip0_104_50">
<rect width="50" height="50" fill="white" transform="translate(25 25)"/>
</clipPath>
</defs>
</svg>
