<svg width="100" height="100" viewBox="0 0 100 100" fill="none" xmlns="http://www.w3.org/2000/svg">
<rect width="100" height="100" fill="url(#paint0_linear_104_54)"/>
<g clip-path="url(#clip0_104_54)">
<path d="M39.5833 35.4167C39.5833 32.654 40.6808 30.0045 42.6343 28.051C44.5878 26.0975 47.2373 25 50 25C52.7627 25 55.4122 26.0975 57.3657 28.051C59.3192 30.0045 60.4167 32.654 60.4167 35.4167C60.4167 36.5217 59.9777 37.5815 59.1963 38.3629C58.4149 39.1443 57.3551 39.5833 56.25 39.5833H50.4167L53.8125 34.4896C54.1192 34.0299 54.2306 33.4672 54.1224 32.9253C54.0142 32.3834 53.6951 31.9067 53.2354 31.6C52.7757 31.2933 52.213 31.1819 51.6711 31.2901C51.1292 31.3983 50.6525 31.7174 50.3458 32.1771L45.4167 39.5833H43.75C42.6449 39.5833 41.5851 39.1443 40.8037 38.3629C40.0223 37.5815 39.5833 36.5217 39.5833 35.4167ZM64.5833 29.1667H63.1792C64.1055 31.1199 64.5852 33.2549 64.5833 35.4167C64.5833 37.6268 63.7054 39.7464 62.1426 41.3092C60.5798 42.872 58.4601 43.75 56.25 43.75H42.6375L42.6542 43.7229C40.6826 43.558 38.8449 42.6589 37.5046 41.2036C36.1643 39.7484 35.4192 37.843 35.4167 35.8646C35.4268 33.5435 35.9587 31.2544 36.9729 29.1667H35.4167C32.654 29.1667 30.0045 30.2641 28.051 32.2176C26.0975 34.1711 25 36.8207 25 39.5833L25 64.5833C25 65.9513 25.2694 67.3058 25.7929 68.5696C26.3164 69.8334 27.0837 70.9818 28.051 71.949C30.0045 73.9025 32.654 75 35.4167 75H64.5833C65.9513 75 67.3058 74.7306 68.5696 74.2071C69.8334 73.6836 70.9818 72.9163 71.949 71.949C72.9163 70.9818 73.6836 69.8334 74.2071 68.5696C74.7306 67.3058 75 65.9513 75 64.5833V39.5833C75 38.2154 74.7306 36.8609 74.2071 35.597C73.6836 34.3332 72.9163 33.1849 71.949 32.2176C70.9818 31.2504 69.8334 30.4831 68.5696 29.9596C67.3058 29.4361 65.9513 29.1667 64.5833 29.1667Z" fill="url(#paint1_linear_104_54)"/>
</g>
<defs>
<linearGradient id="paint0_linear_104_54" x1="50" y1="1.49012e-06" x2="100" y2="100" gradientUnits="userSpaceOnUse">
<stop stop-color="#F7EFFF"/>
<stop offset="1" stop-color="#E5CDFF"/>
</linearGradient>
<linearGradient id="paint1_linear_104_54" x1="50" y1="25" x2="50" y2="75" gradientUnits="userSpaceOnUse">
<stop stop-color="#B33BEB"/>
<stop offset="1" stop-color="#DD94FF"/>
</linearGradient>
<clipPath id="clip0_104_54">
<rect width="50" height="50" fill="white" transform="translate(25 25)"/>
</clipPath>
</defs>
</svg>
