<svg width="33" height="32" viewBox="0 0 33 32" fill="none" xmlns="http://www.w3.org/2000/svg">
<g clip-path="url(#clip0_133_2950)">
<path fill-rule="evenodd" clip-rule="evenodd" d="M16.4078 0C7.55286 0 0.394531 7.2111 0.394531 16.1322C0.394531 23.2633 4.98112 29.2997 11.3439 31.4362C12.1395 31.5968 12.4308 31.089 12.4308 30.6619C12.4308 30.2879 12.4046 29.006 12.4046 27.6703C7.95013 28.632 7.02252 25.7472 7.02252 25.7472C6.30665 23.8776 5.24597 23.3971 5.24597 23.3971C3.78801 22.4088 5.35217 22.4088 5.35217 22.4088C6.96942 22.5157 7.81804 24.0648 7.81804 24.0648C9.24944 26.5218 11.556 25.8276 12.4839 25.4001C12.6164 24.3585 13.0408 23.6373 13.4915 23.2368C9.93876 22.8628 6.20078 21.474 6.20078 15.2774C6.20078 13.5146 6.83667 12.0724 7.84426 10.9507C7.68529 10.5502 7.12839 8.89391 8.00356 6.67715C8.00356 6.67715 9.35564 6.24973 12.4043 8.33309C13.7095 7.97996 15.0556 7.80032 16.4078 7.79881C17.7599 7.79881 19.1382 7.98597 20.4109 8.33309C23.4599 6.24973 24.812 6.67715 24.812 6.67715C25.6872 8.89391 25.1299 10.5502 24.971 10.9507C26.0051 12.0724 26.6148 13.5146 26.6148 15.2774C26.6148 21.474 22.8768 22.8359 19.2975 23.2368C19.8809 23.7442 20.3844 24.7056 20.3844 26.2281C20.3844 28.3914 20.3581 30.1277 20.3581 30.6616C20.3581 31.089 20.6499 31.5968 21.4451 31.4365C27.8079 29.2994 32.3945 23.2633 32.3945 16.1322C32.4207 7.2111 25.2361 0 16.4078 0Z" fill="white"/>
</g>
<defs>
<clipPath id="clip0_133_2950">
<rect width="32" height="32" fill="white" transform="translate(0.394531)"/>
</clipPath>
</defs>
</svg>
