<svg width="100" height="100" viewBox="0 0 100 100" fill="none" xmlns="http://www.w3.org/2000/svg">
<rect width="100" height="100" fill="url(#paint0_linear_104_75)"/>
<g clip-path="url(#clip0_104_75)">
<path d="M61.4587 28.9937C59.1127 29.0301 56.8179 29.685 54.8061 30.8921C52.7942 32.0993 51.1365 33.8159 50.0003 35.8687C48.8642 33.8159 47.2064 32.0993 45.1946 30.8921C43.1827 29.685 40.8879 29.0301 38.542 28.9937C34.8023 29.1561 31.2789 30.7921 28.7415 33.5441C26.2042 36.2962 24.8592 39.9406 25.0003 43.6812C25.0003 53.1541 34.9712 63.4999 43.3337 70.5145C45.2008 72.0835 47.5615 72.9437 50.0003 72.9437C52.4392 72.9437 54.7999 72.0835 56.667 70.5145C65.0295 63.4999 75.0003 53.1541 75.0003 43.6812C75.1415 39.9406 73.7965 36.2962 71.2591 33.5441C68.7218 30.7921 65.1984 29.1561 61.4587 28.9937Z" fill="url(#paint1_linear_104_75)"/>
</g>
<defs>
<linearGradient id="paint0_linear_104_75" x1="50" y1="1.49012e-06" x2="100" y2="100" gradientUnits="userSpaceOnUse">
<stop stop-color="#FFEBEE"/>
<stop offset="1" stop-color="#FFC5C8"/>
</linearGradient>
<linearGradient id="paint1_linear_104_75" x1="50.0003" y1="28.9937" x2="50.0003" y2="72.9437" gradientUnits="userSpaceOnUse">
<stop stop-color="#FF4040"/>
<stop offset="1" stop-color="#FF9197"/>
</linearGradient>
<clipPath id="clip0_104_75">
<rect width="50" height="50" fill="white" transform="translate(25 25)"/>
</clipPath>
</defs>
</svg>
