<svg width="100" height="100" viewBox="0 0 100 100" fill="none" xmlns="http://www.w3.org/2000/svg">
<rect width="100" height="100" rx="20" fill="url(#paint0_linear_104_46)"/>
<g clip-path="url(#clip0_104_46)">
<path d="M64.6671 40.6667C62.457 40.6667 60.3374 39.7887 58.7746 38.2259C57.2118 36.6631 56.3338 34.5435 56.3338 32.3333C56.3338 30.1232 57.2118 28.0036 58.7746 26.4408C60.3374 24.878 62.457 24 64.6671 24C66.8772 24 68.9969 24.878 70.5597 26.4408C72.1225 28.0036 73.0004 30.1232 73.0004 32.3333C73.0004 34.5435 72.1225 36.6631 70.5597 38.2259C68.9969 39.7887 66.8772 40.6667 64.6671 40.6667ZM67.6921 74H49.2275C48.2935 74.0082 47.3738 73.7699 46.5614 73.309C45.749 72.8481 45.0726 72.181 44.6004 71.375C44.1378 70.5983 43.8885 69.7132 43.8779 68.8092C43.8673 67.9052 44.0957 67.0144 44.54 66.2271L53.7817 49.6458C54.2576 48.824 54.9411 48.1418 55.7639 47.6675C56.5866 47.1932 57.5195 46.9435 58.4692 46.9435C59.4188 46.9435 60.3518 47.1932 61.1745 47.6675C61.9972 48.1418 62.6808 48.824 63.1567 49.6458L72.3754 66.2146C72.8206 67.0031 73.0496 67.8951 73.0394 68.8006C73.0292 69.706 72.78 70.5926 72.3171 71.3708C71.8452 72.1768 71.1692 72.8442 70.3573 73.3058C69.5453 73.7674 68.6261 74.0068 67.6921 74ZM41.0088 73.4875C40.1767 72.0869 39.7284 70.4917 39.709 68.8627C39.6896 67.2337 40.0998 65.6283 40.8984 64.2083L50.1421 47.625C50.897 46.2686 51.9755 45.12 53.2817 44.2812L49.9671 38.0729C49.3701 36.9672 48.4851 36.0435 47.4059 35.3997C46.3267 34.756 45.0935 34.4161 43.8369 34.4161C42.5803 34.4161 41.3471 34.756 40.2679 35.3997C39.1887 36.0435 38.3037 36.9672 37.7067 38.0729L23.8463 63.6979C23.2715 64.7608 22.9824 65.9547 23.0073 67.1628C23.0323 68.3708 23.3703 69.5518 23.9885 70.59C24.6066 71.6283 25.4836 72.4884 26.5338 73.0861C27.5839 73.6838 28.7713 73.9987 29.9796 74H41.3338C41.2192 73.8333 41.1109 73.6625 41.0088 73.4875Z" fill="url(#paint1_linear_104_46)"/>
</g>
<defs>
<linearGradient id="paint0_linear_104_46" x1="50" y1="1.49012e-06" x2="100" y2="100" gradientUnits="userSpaceOnUse">
<stop stop-color="#F7EFFF"/>
<stop offset="1" stop-color="#E5CDFF"/>
</linearGradient>
<linearGradient id="paint1_linear_104_46" x1="48.0228" y1="24" x2="48.0228" y2="74.0002" gradientUnits="userSpaceOnUse">
<stop stop-color="#B33BEB"/>
<stop offset="1" stop-color="#DD94FF"/>
</linearGradient>
<clipPath id="clip0_104_46">
<rect width="50" height="50" fill="white" transform="translate(23 24)"/>
</clipPath>
</defs>
</svg>
