<svg width="100" height="100" viewBox="0 0 100 100" fill="none" xmlns="http://www.w3.org/2000/svg">
<rect width="100" height="100" rx="20" fill="url(#paint0_linear_104_33)"/>
<g clip-path="url(#clip0_104_33)">
<path d="M50.0187 74.3021C49.0271 74.3021 48.0271 73.9521 47.2312 73.2437L39.4229 66.6667H33.3333C28.7375 66.6667 25 62.9292 25 58.3333V33.3333C25 28.7375 28.7375 25 33.3333 25H66.6667C71.2625 25 75 28.7375 75 33.3333V58.3333C75 62.9292 71.2625 66.6667 66.6667 66.6667H60.725L52.7104 73.2917C51.9583 73.9625 50.9917 74.3021 50.0187 74.3021Z" fill="url(#paint1_linear_104_33)"/>
</g>
<defs>
<linearGradient id="paint0_linear_104_33" x1="50" y1="1.49012e-06" x2="100" y2="100" gradientUnits="userSpaceOnUse">
<stop stop-color="#EDFDFF"/>
<stop offset="1" stop-color="#A7F5FF"/>
</linearGradient>
<linearGradient id="paint1_linear_104_33" x1="50" y1="25" x2="50" y2="74.3021" gradientUnits="userSpaceOnUse">
<stop stop-color="#2E94FF"/>
<stop offset="1" stop-color="#2ED9FF"/>
</linearGradient>
<clipPath id="clip0_104_33">
<rect width="50" height="50" fill="white" transform="translate(25 25)"/>
</clipPath>
</defs>
</svg>
