<svg width="100" height="100" viewBox="0 0 100 100" fill="none" xmlns="http://www.w3.org/2000/svg">
<rect width="100" height="100" fill="url(#paint0_linear_104_20)"/>
<path d="M74.9042 36.5459L57.3667 54.0834C55.4112 56.0339 52.762 57.1293 50 57.1293C47.238 57.1293 44.5888 56.0339 42.6333 54.0834L25.0958 36.5459C25.0667 36.8751 25 37.173 25 37.5001V62.5001C25.0033 65.2617 26.1018 67.9093 28.0546 69.8621C30.0074 71.8149 32.655 72.9134 35.4167 72.9167H64.5833C67.345 72.9134 69.9926 71.8149 71.9454 69.8621C73.8982 67.9093 74.9967 65.2617 75 62.5001V37.5001C75 37.173 74.9333 36.8751 74.9042 36.5459Z" fill="url(#paint1_linear_104_20)"/>
<path d="M54.4206 51.1377L73.4498 32.1064C72.528 30.5779 71.2278 29.3127 69.6748 28.4329C68.1217 27.5531 66.3681 27.0884 64.5831 27.0835H35.4165C33.6315 27.0884 31.8779 27.5531 30.3249 28.4329C28.7718 29.3127 27.4716 30.5779 26.5498 32.1064L45.579 51.1377C46.7531 52.3071 48.3427 52.9636 49.9998 52.9636C51.6569 52.9636 53.2465 52.3071 54.4206 51.1377Z" fill="url(#paint2_linear_104_20)"/>
<defs>
<linearGradient id="paint0_linear_104_20" x1="50" y1="1.49012e-06" x2="100" y2="100" gradientUnits="userSpaceOnUse">
<stop stop-color="#EDFDFF"/>
<stop offset="1" stop-color="#A7F5FF"/>
</linearGradient>
<linearGradient id="paint1_linear_104_20" x1="50" y1="36.5459" x2="50" y2="72.9167" gradientUnits="userSpaceOnUse">
<stop stop-color="#2E94FF"/>
<stop offset="1" stop-color="#2ED9FF"/>
</linearGradient>
<linearGradient id="paint2_linear_104_20" x1="49.9998" y1="27.0835" x2="49.9998" y2="52.9636" gradientUnits="userSpaceOnUse">
<stop stop-color="#2E94FF"/>
<stop offset="1" stop-color="#2ED9FF"/>
</linearGradient>
</defs>
</svg>
