<svg width="100" height="100" viewBox="0 0 100 100" fill="none" xmlns="http://www.w3.org/2000/svg">
<rect width="100" height="100" fill="url(#paint0_linear_104_113)"/>
<path d="M52.25 29.75V25.25C52.25 24.6533 52.0129 24.081 51.591 23.659C51.169 23.2371 50.5967 23 50 23C49.4033 23 48.831 23.2371 48.409 23.659C47.9871 24.081 47.75 24.6533 47.75 25.25V29.75C43.5743 29.7548 39.571 31.4157 36.6183 34.3683C33.6657 37.321 32.0048 41.3243 32 45.5V59C32 63.7739 33.8964 68.3523 37.2721 71.7279C40.6477 75.1036 45.2261 77 50 77C54.7739 77 59.3523 75.1036 62.7279 71.7279C66.1036 68.3523 68 63.7739 68 59V45.5C67.9952 41.3243 66.3343 37.321 63.3817 34.3683C60.429 31.4157 56.4257 29.7548 52.25 29.75ZM52.25 45.5C52.25 46.0967 52.0129 46.669 51.591 47.091C51.169 47.5129 50.5967 47.75 50 47.75C49.4033 47.75 48.831 47.5129 48.409 47.091C47.9871 46.669 47.75 46.0967 47.75 45.5V41C47.75 40.4033 47.9871 39.831 48.409 39.409C48.831 38.9871 49.4033 38.75 50 38.75C50.5967 38.75 51.169 38.9871 51.591 39.409C52.0129 39.831 52.25 40.4033 52.25 41V45.5Z" fill="url(#paint1_linear_104_113)"/>
<defs>
<linearGradient id="paint0_linear_104_113" x1="50" y1="1.49012e-06" x2="100" y2="100" gradientUnits="userSpaceOnUse">
<stop stop-color="#F4FFCA"/>
<stop offset="1" stop-color="#E2FA84"/>
</linearGradient>
<linearGradient id="paint1_linear_104_113" x1="50" y1="23" x2="50" y2="77" gradientUnits="userSpaceOnUse">
<stop stop-color="#5EB037"/>
<stop offset="1" stop-color="#98D31A"/>
</linearGradient>
</defs>
</svg>
