<svg width="100" height="100" viewBox="0 0 100 100" fill="none" xmlns="http://www.w3.org/2000/svg">
<rect width="100" height="100" fill="url(#paint0_linear_104_38)"/>
<g clip-path="url(#clip0_104_38)">
<path d="M30.7252 75.0002C29.903 74.998 29.0909 74.8191 28.3439 74.4758C27.5968 74.1325 26.9322 73.6327 26.3951 73.0103C25.858 72.3878 25.4609 71.6572 25.2306 70.868C25.0004 70.0787 24.9424 69.2492 25.0606 68.4356C25.6002 64.6731 27.421 57.7397 30.0043 55.1564C31.9727 53.1886 34.6422 52.0833 37.4256 52.0836C40.2089 52.084 42.8781 53.1901 44.846 55.1585C46.8138 57.1269 47.9192 59.7964 47.9188 62.5798C47.9184 65.3631 46.8123 68.0323 44.8439 70.0002C42.2627 72.5814 35.3293 74.4022 31.5647 74.9418C31.2867 74.9819 31.0061 75.0014 30.7252 75.0002ZM73.1252 26.8752C71.9091 25.7169 70.2941 25.0708 68.6147 25.0708C66.9354 25.0708 65.3204 25.7169 64.1043 26.8752L42.2293 48.7502C44.3218 49.4704 46.2221 50.6589 47.7855 52.2251C49.3488 53.7913 50.5338 55.6939 51.2502 57.7877L73.1252 35.896C74.3182 34.6981 74.9881 33.0763 74.9881 31.3856C74.9881 29.6949 74.3182 28.0731 73.1252 26.8752Z" fill="url(#paint1_linear_104_38)"/>
</g>
<defs>
<linearGradient id="paint0_linear_104_38" x1="50" y1="1.49012e-06" x2="100" y2="100" gradientUnits="userSpaceOnUse">
<stop stop-color="#F7EFFF"/>
<stop offset="1" stop-color="#E5CDFF"/>
</linearGradient>
<linearGradient id="paint1_linear_104_38" x1="49.9945" y1="25.0708" x2="49.9945" y2="75.0002" gradientUnits="userSpaceOnUse">
<stop stop-color="#B33BEB"/>
<stop offset="1" stop-color="#DD94FF"/>
</linearGradient>
<clipPath id="clip0_104_38">
<rect width="50" height="50" fill="white" transform="translate(25 25)"/>
</clipPath>
</defs>
</svg>
