<svg width="100" height="100" viewBox="0 0 100 100" fill="none" xmlns="http://www.w3.org/2000/svg">
<rect width="100" height="100" fill="url(#paint0_linear_104_25)"/>
<g clip-path="url(#clip0_104_25)">
<path d="M72.9163 48.9164C72.3638 48.9164 71.8339 48.6969 71.4432 48.3062C71.0525 47.9155 70.833 47.3856 70.833 46.8331C70.8286 42.4142 69.0712 38.1775 65.9465 35.0529C62.8219 31.9282 58.5852 30.1708 54.1663 30.1664C53.6138 30.1664 53.0839 29.9469 52.6932 29.5562C52.3025 29.1655 52.083 28.6356 52.083 28.0831C52.083 27.5306 52.3025 27.0007 52.6932 26.61C53.0839 26.2193 53.6138 25.9998 54.1663 25.9998C59.6898 26.0058 64.9853 28.2027 68.891 32.1084C72.7967 36.0141 74.9936 41.3096 74.9996 46.8331C74.9996 47.3856 74.7802 47.9155 74.3895 48.3062C73.9987 48.6969 73.4688 48.9164 72.9163 48.9164ZM66.6663 46.8331C66.6663 43.5179 65.3493 40.3385 63.0051 37.9943C60.6609 35.6501 57.4815 34.3331 54.1663 34.3331C53.6138 34.3331 53.0839 34.5526 52.6932 34.9433C52.3025 35.334 52.083 35.8639 52.083 36.4164C52.083 36.969 52.3025 37.4989 52.6932 37.8896C53.0839 38.2803 53.6138 38.4998 54.1663 38.4998C56.3764 38.4998 58.4961 39.3777 60.0589 40.9405C61.6217 42.5033 62.4996 44.623 62.4996 46.8331C62.4996 47.3856 62.7191 47.9155 63.1098 48.3062C63.5005 48.6969 64.0304 48.9164 64.583 48.9164C65.1355 48.9164 65.6654 48.6969 66.0561 48.3062C66.4468 47.9155 66.6663 47.3856 66.6663 46.8331ZM71.2142 72.1748L73.1101 69.9893C74.3167 68.7788 74.9943 67.1392 74.9943 65.43C74.9943 63.7207 74.3167 62.0812 73.1101 60.8706C73.0455 60.806 68.033 56.9498 68.033 56.9498C66.83 55.8046 65.232 55.167 63.5711 55.1693C61.9102 55.1716 60.314 55.8137 59.1142 56.9623L55.1434 60.3081C51.9021 58.9666 48.9577 56.998 46.4794 54.5154C44.0011 52.0328 42.0376 49.085 40.7017 45.8414L44.0351 41.8831C45.1845 40.6835 45.8273 39.087 45.8301 37.4256C45.8328 35.7642 45.1951 34.1657 44.0496 32.9623C44.0496 32.9623 40.1892 27.956 40.1246 27.8914C38.936 26.6951 37.3244 26.0144 35.638 25.9965C33.9517 25.9785 32.326 26.6248 31.1121 27.7956L28.7163 29.8789C14.5621 46.2998 45.0413 76.5435 62.0038 75.9998C63.7167 76.0097 65.4142 75.6763 66.9961 75.0194C68.578 74.3624 70.0123 73.3952 71.2142 72.1748Z" fill="url(#paint1_linear_104_25)"/>
</g>
<defs>
<linearGradient id="paint0_linear_104_25" x1="50" y1="1.49012e-06" x2="100" y2="100" gradientUnits="userSpaceOnUse">
<stop stop-color="#EDFDFF"/>
<stop offset="1" stop-color="#A7F5FF"/>
</linearGradient>
<linearGradient id="paint1_linear_104_25" x1="50.036" y1="25.9961" x2="50.036" y2="76.007" gradientUnits="userSpaceOnUse">
<stop stop-color="#2E94FF"/>
<stop offset="1" stop-color="#2ED9FF"/>
</linearGradient>
<clipPath id="clip0_104_25">
<rect width="50" height="50" fill="white" transform="translate(25 26)"/>
</clipPath>
</defs>
</svg>
