<svg width="105" height="105" viewBox="0 0 105 105" fill="none" xmlns="http://www.w3.org/2000/svg">
<g clip-path="url(#clip0_1045_1161)">
<rect width="105" height="105" fill="url(#paint0_radial_1045_1161)"/>
<g style="mix-blend-mode:overlay">
<rect width="105" height="105" fill="url(#paint1_linear_1045_1161)"/>
</g>
<rect width="105" height="105" fill="url(#paint2_linear_1045_1161)"/>
<g style="mix-blend-mode:soft-light" filter="url(#filter0_f_1045_1161)">
<rect x="1.5" y="1.5" width="102" height="102" stroke="url(#paint3_linear_1045_1161)" stroke-width="3"/>
</g>
<g style="mix-blend-mode:soft-light" filter="url(#filter1_f_1045_1161)">
<rect x="2" y="2" width="101" height="101" stroke="url(#paint4_linear_1045_1161)" stroke-width="4"/>
</g>
<g filter="url(#filter2_d_1045_1161)">
<path d="M72.083 51.9385V77.8467C66.2497 79.738 60.3252 80.6836 54.3096 80.6836C46.79 80.6836 41.0251 78.4733 37.0146 74.0527C33.0498 69.6094 31.0674 63.2975 31.0674 55.1172C31.0674 46.9368 33.3688 40.5908 37.9717 36.0791C42.5973 31.5674 49.0003 29.3115 57.1807 29.3115C62.3076 29.3115 67.2523 30.3369 72.0146 32.3877L68.4941 40.8643C64.8027 39.0413 61.0088 38.1299 57.1123 38.1299C52.5322 38.1299 48.8636 39.6794 46.1064 42.7783C43.3493 45.8545 41.9707 50.0472 41.9707 55.3564C41.9707 60.6429 43.0758 64.7217 45.2861 67.5928C47.5192 70.4411 50.7549 71.8652 54.9932 71.8652C57.1351 71.8652 59.3796 71.6374 61.7266 71.1816V60.7568H52.2588V51.9385H72.083Z" fill="url(#paint5_linear_1045_1161)"/>
</g>
</g>
<defs>
<filter id="filter0_f_1045_1161" x="-2" y="-2" width="109" height="109" filterUnits="userSpaceOnUse" color-interpolation-filters="sRGB">
<feFlood flood-opacity="0" result="BackgroundImageFix"/>
<feBlend mode="normal" in="SourceGraphic" in2="BackgroundImageFix" result="shape"/>
<feGaussianBlur stdDeviation="1" result="effect1_foregroundBlur_1045_1161"/>
</filter>
<filter id="filter1_f_1045_1161" x="-6" y="-6" width="117" height="117" filterUnits="userSpaceOnUse" color-interpolation-filters="sRGB">
<feFlood flood-opacity="0" result="BackgroundImageFix"/>
<feBlend mode="normal" in="SourceGraphic" in2="BackgroundImageFix" result="shape"/>
<feGaussianBlur stdDeviation="3" result="effect1_foregroundBlur_1045_1161"/>
</filter>
<filter id="filter2_d_1045_1161" x="-4.43262" y="-2.18848" width="112.016" height="122.372" filterUnits="userSpaceOnUse" color-interpolation-filters="sRGB">
<feFlood flood-opacity="0" result="BackgroundImageFix"/>
<feColorMatrix in="SourceAlpha" type="matrix" values="0 0 0 0 0 0 0 0 0 0 0 0 0 0 0 0 0 0 127 0" result="hardAlpha"/>
<feOffset dy="4"/>
<feGaussianBlur stdDeviation="17.75"/>
<feComposite in2="hardAlpha" operator="out"/>
<feColorMatrix type="matrix" values="0 0 0 0 0 0 0 0 0 0 0 0 0 0 0 0 0 0 0.25 0"/>
<feBlend mode="normal" in2="BackgroundImageFix" result="effect1_dropShadow_1045_1161"/>
<feBlend mode="normal" in="SourceGraphic" in2="effect1_dropShadow_1045_1161" result="shape"/>
</filter>
<radialGradient id="paint0_radial_1045_1161" cx="0" cy="0" r="1" gradientUnits="userSpaceOnUse" gradientTransform="translate(52.5 52.5) rotate(90) scale(52.5)">
<stop stop-color="#212121"/>
<stop offset="1" stop-color="#010101"/>
</radialGradient>
<linearGradient id="paint1_linear_1045_1161" x1="52.5" y1="0" x2="52.5" y2="105" gradientUnits="userSpaceOnUse">
<stop stop-opacity="0"/>
<stop offset="0.6" stop-opacity="0.08"/>
<stop offset="1" stop-opacity="0.26"/>
</linearGradient>
<linearGradient id="paint2_linear_1045_1161" x1="52.5" y1="0" x2="52.5" y2="105" gradientUnits="userSpaceOnUse">
<stop offset="0.14" stop-color="white" stop-opacity="0.26"/>
<stop offset="0.64" stop-color="white" stop-opacity="0.08"/>
<stop offset="1" stop-color="white" stop-opacity="0"/>
</linearGradient>
<linearGradient id="paint3_linear_1045_1161" x1="52.5" y1="105" x2="52.5" y2="94.0625" gradientUnits="userSpaceOnUse">
<stop/>
<stop offset="1" stop-opacity="0"/>
</linearGradient>
<linearGradient id="paint4_linear_1045_1161" x1="52.5" y1="0" x2="52.5" y2="56.875" gradientUnits="userSpaceOnUse">
<stop stop-color="white"/>
<stop offset="1" stop-color="white" stop-opacity="0"/>
</linearGradient>
<linearGradient id="paint5_linear_1045_1161" x1="52.5" y1="5" x2="52.5" y2="100" gradientUnits="userSpaceOnUse">
<stop stop-color="white"/>
<stop offset="1" stop-color="#999999"/>
</linearGradient>
<clipPath id="clip0_1045_1161">
<rect width="105" height="105" fill="white"/>
</clipPath>
</defs>
</svg>
