<svg width="125" height="125" viewBox="0 0 125 125" fill="none" xmlns="http://www.w3.org/2000/svg">
<g clip-path="url(#clip0_1095_1164)">
<rect width="125" height="125" fill="#060606"/>
<g filter="url(#filter0_f_1095_1164)">
<circle cx="62.5" cy="-0.5" r="44.5" fill="#8F8F8F"/>
</g>
<g filter="url(#filter1_d_1095_1164)">
<path d="M92.92 62.8V92H82.04V87.76C79.96 89.68 77.4 91.1467 74.36 92.16C71.3733 93.1733 67.8 93.68 63.64 93.68C58.84 93.68 54.4667 92.96 50.52 91.52C46.5733 90.08 43.1867 88.0533 40.36 85.44C37.5867 82.7733 35.4267 79.6267 33.88 76C32.3333 72.32 31.56 68.2933 31.56 63.92C31.56 59.2267 32.2533 55.04 33.64 51.36C35.08 47.6267 37.1333 44.48 39.8 41.92C42.52 39.36 45.8267 37.4133 49.72 36.08C53.6667 34.6933 58.1733 34 63.24 34C67.56 34 71.5067 34.5333 75.08 35.6C78.7067 36.6133 81.8 38.1333 84.36 40.16C86.9733 42.1867 88.9733 44.6933 90.36 47.68C91.8 50.6133 92.52 53.9733 92.52 57.76L76.28 57.92C76.12 56.5333 75.6933 55.28 75 54.16C74.36 52.9867 73.48 51.9733 72.36 51.12C71.2933 50.2133 70.0133 49.52 68.52 49.04C67.0267 48.56 65.3733 48.32 63.56 48.32C61.16 48.32 59 48.7467 57.08 49.6C55.16 50.4533 53.5333 51.6 52.2 53.04C50.8667 54.48 49.8267 56.1333 49.08 58C48.3867 59.8667 48.04 61.84 48.04 63.92C48.04 65.9467 48.3867 67.8933 49.08 69.76C49.8267 71.6267 50.8667 73.28 52.2 74.72C53.5333 76.1067 55.16 77.2267 57.08 78.08C59 78.9333 61.16 79.36 63.56 79.36C66.1733 79.36 68.5733 78.88 70.76 77.92C73 76.96 74.6 75.5733 75.56 73.76H61.08V62.8H92.92Z" fill="url(#paint0_linear_1095_1164)"/>
</g>
</g>
<defs>
<filter id="filter0_f_1095_1164" x="-62" y="-125" width="249" height="249" filterUnits="userSpaceOnUse" color-interpolation-filters="sRGB">
<feFlood flood-opacity="0" result="BackgroundImageFix"/>
<feBlend mode="normal" in="SourceGraphic" in2="BackgroundImageFix" result="shape"/>
<feGaussianBlur stdDeviation="40" result="effect1_foregroundBlur_1095_1164"/>
</filter>
<filter id="filter1_d_1095_1164" x="-3.94" y="2.5" width="132.36" height="130.68" filterUnits="userSpaceOnUse" color-interpolation-filters="sRGB">
<feFlood flood-opacity="0" result="BackgroundImageFix"/>
<feColorMatrix in="SourceAlpha" type="matrix" values="0 0 0 0 0 0 0 0 0 0 0 0 0 0 0 0 0 0 127 0" result="hardAlpha"/>
<feOffset dy="4"/>
<feGaussianBlur stdDeviation="17.75"/>
<feComposite in2="hardAlpha" operator="out"/>
<feColorMatrix type="matrix" values="0 0 0 0 0 0 0 0 0 0 0 0 0 0 0 0 0 0 0.25 0"/>
<feBlend mode="normal" in2="BackgroundImageFix" result="effect1_dropShadow_1095_1164"/>
<feBlend mode="normal" in="SourceGraphic" in2="effect1_dropShadow_1095_1164" result="shape"/>
</filter>
<linearGradient id="paint0_linear_1095_1164" x1="62" y1="32" x2="62" y2="94" gradientUnits="userSpaceOnUse">
<stop stop-color="white"/>
<stop offset="1" stop-color="#999999"/>
</linearGradient>
<clipPath id="clip0_1095_1164">
<rect width="125" height="125" fill="white"/>
</clipPath>
</defs>
</svg>
