<svg width="100" height="100" viewBox="0 0 100 100" fill="none" xmlns="http://www.w3.org/2000/svg">
<rect width="100" height="100" fill="url(#paint0_linear_104_88)"/>
<path d="M27.7643 50.8335L35.1809 56.2502L32.3643 64.9731C31.9091 66.326 31.9033 67.7898 32.3478 69.1462C32.7923 70.5026 33.6633 71.6791 34.8309 72.5002C35.9785 73.3477 37.3692 73.8016 38.7958 73.7945C40.2224 73.7874 41.6085 73.3195 42.7476 72.4606L49.9997 67.1231L57.2538 72.4544C58.3994 73.297 59.7826 73.7546 61.2046 73.7616C62.6266 73.7685 64.0142 73.3243 65.1679 72.4929C66.3216 71.6615 67.182 70.4857 67.6253 69.1345C68.0686 67.7833 68.072 66.3264 67.6351 64.9731L64.8184 56.2502L72.2351 50.8335C73.3791 49.9971 74.2296 48.8205 74.665 47.4718C75.1004 46.1232 75.0984 44.6714 74.6594 43.3239C74.2204 41.9764 73.3668 40.8021 72.2205 39.9687C71.0743 39.1354 69.694 38.6855 68.2768 38.6835H59.1663L56.4018 30.0669C55.967 28.7105 55.1127 27.5273 53.9621 26.6878C52.8115 25.8483 51.424 25.396 49.9997 25.396C48.5754 25.396 47.1879 25.8483 46.0372 26.6878C44.8866 27.5273 44.0323 28.7105 43.5976 30.0669L40.833 38.6835H31.7309C30.3137 38.6855 28.9334 39.1354 27.7871 39.9687C26.6409 40.8021 25.7873 41.9764 25.3483 43.3239C24.9093 44.6714 24.9073 46.1232 25.3427 47.4718C25.7781 48.8205 26.6285 49.9971 27.7726 50.8335H27.7643Z" fill="url(#paint1_linear_104_88)"/>
<defs>
<linearGradient id="paint0_linear_104_88" x1="50" y1="1.49012e-06" x2="100" y2="100" gradientUnits="userSpaceOnUse">
<stop stop-color="#FFF2D7"/>
<stop offset="1" stop-color="#FCDEB1"/>
</linearGradient>
<linearGradient id="paint1_linear_104_88" x1="50.0038" y1="25.396" x2="50.0038" y2="73.7946" gradientUnits="userSpaceOnUse">
<stop stop-color="#FF7E4B"/>
<stop offset="1" stop-color="#FFC329"/>
</linearGradient>
</defs>
</svg>
