<svg width="105" height="106" viewBox="0 0 105 106" fill="none" xmlns="http://www.w3.org/2000/svg">
<g clip-path="url(#clip0_1009_1861)">
<rect y="0.5" width="105" height="105" fill="url(#paint0_linear_1009_1861)"/>
<rect y="0.5" width="105" height="105" fill="url(#paint1_radial_1009_1861)"/>
<g style="mix-blend-mode:soft-light" filter="url(#filter0_f_1009_1861)">
<rect x="1.5" y="2" width="102" height="102" stroke="url(#paint2_linear_1009_1861)" stroke-width="3"/>
</g>
<g style="mix-blend-mode:soft-light" filter="url(#filter1_f_1009_1861)">
<rect x="2" y="2.5" width="101" height="101" stroke="url(#paint3_linear_1009_1861)" stroke-width="4"/>
</g>
<rect y="0.5" width="105" height="105" fill="url(#paint4_linear_1009_1861)"/>
<path d="M14.9992 55.8125V24.5625L42.7075 40.1875V50.6042L24.2353 40.1875V61.0208L14.9992 55.8125Z" fill="white"/>
<path d="M42.7075 40.4219L70.4158 24.5625V56.2812L51.9436 66.8542L42.7075 61.5677L61.1797 50.9948V40.4219L42.7075 50.9948V40.4219Z" fill="#EBEBEB"/>
<path d="M42.7075 61.0208V71.9583L61.6659 82.8957V71.9583L42.7075 61.0208Z" fill="white"/>
<path d="M61.6658 82.8958L89.3742 66.9867V45.7746L80.138 51.0776V61.6837L61.6658 72.2898V82.8958ZM80.138 40.4716V29.8655L89.3742 24.5625V35.1686L80.138 40.4716Z" fill="#EBEBEB"/>
</g>
<defs>
<filter id="filter0_f_1009_1861" x="-2" y="-1.5" width="109" height="109" filterUnits="userSpaceOnUse" color-interpolation-filters="sRGB">
<feFlood flood-opacity="0" result="BackgroundImageFix"/>
<feBlend mode="normal" in="SourceGraphic" in2="BackgroundImageFix" result="shape"/>
<feGaussianBlur stdDeviation="1" result="effect1_foregroundBlur_1009_1861"/>
</filter>
<filter id="filter1_f_1009_1861" x="-6" y="-5.5" width="117" height="117" filterUnits="userSpaceOnUse" color-interpolation-filters="sRGB">
<feFlood flood-opacity="0" result="BackgroundImageFix"/>
<feBlend mode="normal" in="SourceGraphic" in2="BackgroundImageFix" result="shape"/>
<feGaussianBlur stdDeviation="3" result="effect1_foregroundBlur_1009_1861"/>
</filter>
<linearGradient id="paint0_linear_1009_1861" x1="52.5" y1="0.5" x2="52.5" y2="105.5" gradientUnits="userSpaceOnUse">
<stop offset="0.14" stop-color="white" stop-opacity="0.26"/>
<stop offset="0.64" stop-color="white" stop-opacity="0.08"/>
<stop offset="1" stop-color="white" stop-opacity="0"/>
</linearGradient>
<radialGradient id="paint1_radial_1009_1861" cx="0" cy="0" r="1" gradientUnits="userSpaceOnUse" gradientTransform="translate(52.5 53) rotate(90) scale(52.5)">
<stop stop-color="#017EFE"/>
<stop offset="1" stop-color="#015BBC"/>
</radialGradient>
<linearGradient id="paint2_linear_1009_1861" x1="52.5" y1="105.5" x2="52.5" y2="94.5625" gradientUnits="userSpaceOnUse">
<stop/>
<stop offset="1" stop-opacity="0"/>
</linearGradient>
<linearGradient id="paint3_linear_1009_1861" x1="52.5" y1="0.5" x2="52.5" y2="57.375" gradientUnits="userSpaceOnUse">
<stop stop-color="white"/>
<stop offset="1" stop-color="white" stop-opacity="0"/>
</linearGradient>
<linearGradient id="paint4_linear_1009_1861" x1="52.5" y1="0.5" x2="52.5" y2="105.5" gradientUnits="userSpaceOnUse">
<stop stop-opacity="0"/>
<stop offset="0.6" stop-opacity="0.08"/>
<stop offset="1" stop-opacity="0.26"/>
</linearGradient>
<clipPath id="clip0_1009_1861">
<rect width="105" height="105" fill="white" transform="translate(0 0.5)"/>
</clipPath>
</defs>
</svg>
