<svg width="105" height="106" viewBox="0 0 105 106" fill="none" xmlns="http://www.w3.org/2000/svg">
<g clip-path="url(#clip0_1015_1731)">
<rect y="0.5" width="105" height="105" fill="url(#paint0_radial_1015_1731)"/>
<g style="mix-blend-mode:overlay">
<rect y="0.5" width="105" height="105" fill="url(#paint1_linear_1015_1731)"/>
</g>
<rect y="0.5" width="105" height="105" fill="url(#paint2_linear_1015_1731)"/>
<g style="mix-blend-mode:soft-light" filter="url(#filter0_f_1015_1731)">
<rect x="0.5" y="1" width="104" height="104" stroke="url(#paint3_linear_1015_1731)"/>
</g>
<g style="mix-blend-mode:soft-light" filter="url(#filter1_f_1015_1731)">
<rect x="1" y="1.5" width="103" height="103" stroke="url(#paint4_linear_1015_1731)" stroke-width="2"/>
</g>
<path d="M24.0408 74.8639V28.6908C24.0408 28.3767 24.1721 28.1972 24.4783 28.1972C25.2221 28.1972 25.9221 28.1972 26.9283 28.1523C27.9783 28.1075 29.0721 28.1075 30.2533 28.0626C31.4346 28.0177 32.7033 28.0177 34.0596 27.9728C35.4158 27.928 36.7283 27.928 38.0408 27.928C41.6283 27.928 44.6033 28.3767 47.0533 29.319C49.2408 30.0818 51.2533 31.3382 52.9158 32.9985C54.3158 34.4344 55.4096 36.1844 56.1096 38.1139C56.7658 39.9985 57.1158 41.928 57.1158 43.9472C57.1158 47.8062 56.2408 50.9921 54.4908 53.5049C52.7408 56.0177 50.2908 57.9023 47.4471 58.9793C44.4721 60.101 41.1908 60.5049 37.6033 60.5049C36.5533 60.5049 35.8533 60.5049 35.4158 60.46C34.9783 60.4152 34.3658 60.4151 33.5346 60.4151V74.819C33.5783 75.1331 33.3596 75.4023 33.0533 75.4472C33.0096 75.4472 32.9658 75.4472 32.8783 75.4472H24.5658C24.2158 75.4472 24.0408 75.2677 24.0408 74.8639ZM33.5783 36.8575V51.9344C34.1908 51.9793 34.7596 52.0241 35.2846 52.0241H37.6033C39.3096 52.0241 41.0158 51.7549 42.6346 51.2164C44.0346 50.8126 45.2596 49.96 46.2221 48.8382C47.1408 47.7164 47.5783 46.1908 47.5783 44.2164C47.6221 42.8254 47.2721 41.4344 46.5721 40.2228C45.8283 39.0562 44.7783 38.1587 43.5096 37.6652C41.8908 36.9921 40.1408 36.7228 38.3471 36.7677C37.2096 36.7677 36.2033 36.7677 35.3721 36.8126C34.4971 36.7677 33.8846 36.8126 33.5783 36.8575Z" fill="#31A8FF"/>
<path d="M84.4158 49.1972C83.1033 48.4792 81.7033 47.9856 80.2158 47.6715C78.5971 47.3126 76.9783 47.0882 75.3158 47.0882C74.4408 47.0433 73.5221 47.1779 72.6908 47.4023C72.1221 47.5369 71.6408 47.851 71.3346 48.2997C71.1158 48.6587 70.9846 49.1074 70.9846 49.5113C70.9846 49.9151 71.1596 50.319 71.4221 50.6779C71.8158 51.1715 72.3408 51.5754 72.9096 51.8895C73.9158 52.4279 74.9658 52.9215 76.0158 53.3703C78.3783 54.1779 80.6533 55.2997 82.7533 56.6459C84.1971 57.5882 85.3783 58.8446 86.2096 60.3703C86.9096 61.8062 87.2596 63.3767 87.2158 64.9921C87.2596 67.101 86.6471 69.21 85.5096 70.96C84.2846 72.7549 82.5783 74.1459 80.6096 74.9536C78.4658 75.8959 75.8408 76.3895 72.6908 76.3895C70.6783 76.3895 68.7096 76.21 66.7408 75.8062C65.2096 75.5369 63.6783 75.0433 62.2783 74.3703C61.9721 74.1908 61.7533 73.8767 61.7971 73.5177V65.71C61.7971 65.5754 61.8408 65.3959 61.9721 65.3062C62.1033 65.2164 62.2346 65.2613 62.3658 65.351C64.0721 66.3831 65.8658 67.101 67.7908 67.5497C69.4533 67.9985 71.2033 68.2228 72.9533 68.2228C74.6158 68.2228 75.7971 67.9985 76.5846 67.5946C77.2846 67.2805 77.7658 66.5177 77.7658 65.71C77.7658 65.0818 77.4158 64.4985 76.7158 63.9151C76.0158 63.3318 74.5721 62.6587 72.4283 61.8062C70.1971 60.9985 68.1408 59.9215 66.2158 58.5754C64.8596 57.5882 63.7221 56.2869 62.8908 54.7613C62.1908 53.3254 61.8408 51.7549 61.8846 50.1844C61.8846 48.2549 62.4096 46.4151 63.3721 44.7549C64.4658 42.96 66.0846 41.5241 67.9658 40.6267C70.0221 39.5497 72.6033 39.0562 75.7096 39.0562C77.5033 39.0562 79.3408 39.1908 81.1346 39.46C82.4471 39.6395 83.7158 39.9985 84.8971 40.492C85.0721 40.5369 85.2471 40.7164 85.3346 40.8959C85.3783 41.0754 85.4221 41.2549 85.4221 41.4344V48.7485C85.4221 48.9279 85.3346 49.1074 85.2033 49.1972C84.8096 49.2869 84.5908 49.2869 84.4158 49.1972Z" fill="#31A8FF"/>
</g>
<defs>
<filter id="filter0_f_1015_1731" x="-2" y="-1.5" width="109" height="109" filterUnits="userSpaceOnUse" color-interpolation-filters="sRGB">
<feFlood flood-opacity="0" result="BackgroundImageFix"/>
<feBlend mode="normal" in="SourceGraphic" in2="BackgroundImageFix" result="shape"/>
<feGaussianBlur stdDeviation="1" result="effect1_foregroundBlur_1015_1731"/>
</filter>
<filter id="filter1_f_1015_1731" x="-6" y="-5.5" width="117" height="117" filterUnits="userSpaceOnUse" color-interpolation-filters="sRGB">
<feFlood flood-opacity="0" result="BackgroundImageFix"/>
<feBlend mode="normal" in="SourceGraphic" in2="BackgroundImageFix" result="shape"/>
<feGaussianBlur stdDeviation="3" result="effect1_foregroundBlur_1015_1731"/>
</filter>
<radialGradient id="paint0_radial_1015_1731" cx="0" cy="0" r="1" gradientUnits="userSpaceOnUse" gradientTransform="translate(52.5 53) rotate(90) scale(52.5)">
<stop stop-color="#1C3556"/>
<stop offset="1" stop-color="#032337"/>
</radialGradient>
<linearGradient id="paint1_linear_1015_1731" x1="52.5" y1="0.5" x2="52.5" y2="105.5" gradientUnits="userSpaceOnUse">
<stop stop-opacity="0"/>
<stop offset="0.6" stop-opacity="0.08"/>
<stop offset="1" stop-opacity="0.26"/>
</linearGradient>
<linearGradient id="paint2_linear_1015_1731" x1="52.5" y1="0.5" x2="52.5" y2="105.5" gradientUnits="userSpaceOnUse">
<stop offset="0.14" stop-color="white" stop-opacity="0.26"/>
<stop offset="0.64" stop-color="white" stop-opacity="0.08"/>
<stop offset="1" stop-color="white" stop-opacity="0"/>
</linearGradient>
<linearGradient id="paint3_linear_1015_1731" x1="52.5" y1="105.5" x2="52.5" y2="94.5625" gradientUnits="userSpaceOnUse">
<stop/>
<stop offset="1" stop-opacity="0"/>
</linearGradient>
<linearGradient id="paint4_linear_1015_1731" x1="52.5" y1="0.5" x2="52.5" y2="57.375" gradientUnits="userSpaceOnUse">
<stop stop-color="white"/>
<stop offset="1" stop-color="white" stop-opacity="0"/>
</linearGradient>
<clipPath id="clip0_1015_1731">
<rect width="105" height="105" fill="white" transform="translate(0 0.5)"/>
</clipPath>
</defs>
</svg>
