<svg width="105" height="106" viewBox="0 0 105 106" fill="none" xmlns="http://www.w3.org/2000/svg">
<g clip-path="url(#clip0_1025_1266)">
<rect width="105" height="105" transform="translate(0 0.5)" fill="url(#paint0_linear_1025_1266)"/>
<rect y="0.5" width="105" height="105" fill="url(#paint1_linear_1025_1266)"/>
<rect y="0.5" width="105" height="105" fill="url(#paint2_radial_1025_1266)"/>
<g style="mix-blend-mode:soft-light" filter="url(#filter0_f_1025_1266)">
<rect x="1.5" y="2" width="102" height="102" stroke="url(#paint3_linear_1025_1266)" stroke-width="3"/>
</g>
<g style="mix-blend-mode:soft-light" filter="url(#filter1_f_1025_1266)">
<rect x="2" y="2.5" width="101" height="101" stroke="url(#paint4_linear_1025_1266)" stroke-width="4"/>
</g>
<rect y="0.5" width="105" height="105" fill="url(#paint5_linear_1025_1266)"/>
<path d="M52.916 24.5625C41.249 24.5625 33.9575 30.558 31.0405 42.5479C35.416 36.5524 40.5203 34.3049 46.3533 35.8032C49.6817 36.6581 52.0604 39.1407 54.6941 41.8876C58.9832 46.3623 63.9474 51.5411 74.7916 51.5411C86.4575 51.5411 93.7501 45.5456 96.666 33.5546C92.2916 39.5501 87.1873 41.7987 81.3533 40.3004C78.0259 39.4455 75.6472 36.9629 73.0136 34.216C68.7245 29.7413 63.7592 24.5625 52.916 24.5625V24.5625ZM31.0405 51.5411C19.3746 51.5411 12.082 57.5366 9.16605 69.5276C13.5405 63.5321 18.6448 61.2835 24.4788 62.7829C27.8062 63.639 30.1849 66.1204 32.8185 68.8662C37.1076 73.3409 42.0729 78.5208 52.916 78.5208C64.5831 78.5208 71.8746 72.5253 74.7916 60.5343C70.416 66.5298 65.3118 68.7784 59.4788 67.279C56.1504 66.4252 53.7717 63.9415 51.138 61.1958C46.8489 56.7211 41.8847 51.5411 31.0405 51.5411V51.5411Z" fill="white"/>
</g>
<defs>
<filter id="filter0_f_1025_1266" x="-2" y="-1.5" width="109" height="109" filterUnits="userSpaceOnUse" color-interpolation-filters="sRGB">
<feFlood flood-opacity="0" result="BackgroundImageFix"/>
<feBlend mode="normal" in="SourceGraphic" in2="BackgroundImageFix" result="shape"/>
<feGaussianBlur stdDeviation="1" result="effect1_foregroundBlur_1025_1266"/>
</filter>
<filter id="filter1_f_1025_1266" x="-6" y="-5.5" width="117" height="117" filterUnits="userSpaceOnUse" color-interpolation-filters="sRGB">
<feFlood flood-opacity="0" result="BackgroundImageFix"/>
<feBlend mode="normal" in="SourceGraphic" in2="BackgroundImageFix" result="shape"/>
<feGaussianBlur stdDeviation="3" result="effect1_foregroundBlur_1025_1266"/>
</filter>
<linearGradient id="paint0_linear_1025_1266" x1="52.5" y1="0" x2="52.5" y2="105" gradientUnits="userSpaceOnUse">
<stop stop-color="#38BDF8"/>
<stop offset="1" stop-color="#0EA5E9"/>
</linearGradient>
<linearGradient id="paint1_linear_1025_1266" x1="52.5" y1="0.5" x2="52.5" y2="105.5" gradientUnits="userSpaceOnUse">
<stop offset="0.14" stop-color="white" stop-opacity="0.26"/>
<stop offset="0.64" stop-color="white" stop-opacity="0.08"/>
<stop offset="1" stop-color="white" stop-opacity="0"/>
</linearGradient>
<radialGradient id="paint2_radial_1025_1266" cx="0" cy="0" r="1" gradientUnits="userSpaceOnUse" gradientTransform="translate(52.5 53) rotate(90) scale(52.5)">
<stop stop-color="#37BDF8"/>
<stop offset="1" stop-color="#0EA5E9"/>
</radialGradient>
<linearGradient id="paint3_linear_1025_1266" x1="52.5" y1="105.5" x2="52.5" y2="94.5625" gradientUnits="userSpaceOnUse">
<stop/>
<stop offset="1" stop-opacity="0"/>
</linearGradient>
<linearGradient id="paint4_linear_1025_1266" x1="52.5" y1="0.5" x2="52.5" y2="57.375" gradientUnits="userSpaceOnUse">
<stop stop-color="white"/>
<stop offset="1" stop-color="white" stop-opacity="0"/>
</linearGradient>
<linearGradient id="paint5_linear_1025_1266" x1="52.5" y1="0.5" x2="52.5" y2="105.5" gradientUnits="userSpaceOnUse">
<stop stop-opacity="0"/>
<stop offset="0.6" stop-opacity="0.08"/>
<stop offset="1" stop-opacity="0.26"/>
</linearGradient>
<clipPath id="clip0_1025_1266">
<rect width="105" height="105" fill="white" transform="translate(0 0.5)"/>
</clipPath>
</defs>
</svg>
