<svg width="105" height="106" viewBox="0 0 105 106" fill="none" xmlns="http://www.w3.org/2000/svg">
<g clip-path="url(#clip0_1015_1880)">
<rect width="105" height="105" transform="translate(0 0.5)" fill="url(#paint0_linear_1015_1880)"/>
<rect y="0.5" width="105" height="105" fill="url(#paint1_radial_1015_1880)"/>
<g style="mix-blend-mode:overlay">
<rect y="0.5" width="105" height="105" fill="url(#paint2_linear_1015_1880)"/>
</g>
<rect y="0.5" width="105" height="105" fill="url(#paint3_linear_1015_1880)"/>
<g style="mix-blend-mode:soft-light" filter="url(#filter0_f_1015_1880)">
<rect x="0.5" y="1" width="104" height="104" stroke="url(#paint4_linear_1015_1880)"/>
</g>
<g style="mix-blend-mode:soft-light" filter="url(#filter1_f_1015_1880)">
<rect x="1" y="1.5" width="103" height="103" stroke="url(#paint5_linear_1015_1880)" stroke-width="2"/>
</g>
<path d="M16.5319 52.9983C16.5319 67.1118 24.7334 79.3075 36.6261 85.0878L19.6188 38.4878C17.58 43.0535 16.5281 47.9981 16.5319 52.9983ZM76.2547 51.1991C76.2547 46.7926 74.6719 43.741 73.3144 41.3658C71.5071 38.4288 69.8137 35.9417 69.8137 33.0047C69.8137 29.7272 72.2988 26.6762 75.8001 26.6762C75.9582 26.6762 76.1081 26.6959 76.2628 26.7047C69.9189 20.8932 61.4678 17.345 52.1857 17.345C39.7299 17.345 28.7713 23.7359 22.3962 33.4158C23.2327 33.4409 24.0217 33.4579 24.6906 33.4579C28.4199 33.4579 34.1926 33.0054 34.1926 33.0054C36.1146 32.8921 36.3411 35.7151 34.4219 35.9423C34.4219 35.9423 32.4898 36.1696 30.3405 36.2822L43.3241 74.9024L51.1273 51.501L45.5717 36.2816C43.6518 36.1689 41.833 35.9417 41.833 35.9417C39.9117 35.829 40.1369 32.8914 42.0582 33.0047C42.0582 33.0047 47.9462 33.4572 51.4496 33.4572C55.1782 33.4572 60.9515 33.0047 60.9515 33.0047C62.8749 32.8914 63.1008 35.7144 61.1802 35.9417C61.1802 35.9417 59.2446 36.1689 57.0995 36.2816L69.984 74.6093L73.5396 62.7251C75.0817 57.7935 76.2547 54.2514 76.2547 51.1991Z" fill="white"/>
<path d="M52.8112 56.1173L42.1138 87.2019C45.3843 88.1658 48.7761 88.6552 52.1857 88.6551C56.3376 88.6551 60.3193 87.9367 64.0255 86.6341C63.9261 86.4785 63.8411 86.314 63.7717 86.1429L52.8112 56.1173ZM83.4704 35.8923C83.6237 37.028 83.7106 38.2479 83.7106 39.5586C83.7106 43.1767 83.0349 47.244 80.9996 52.3295L70.1089 83.8179C80.7085 77.6366 87.8381 66.1527 87.8381 52.9985C87.8476 47.0194 86.3451 41.135 83.4704 35.8923Z" fill="white"/>
<path d="M52.1857 11.4373C29.2693 11.4373 10.6242 30.0814 10.6242 52.9984C10.6242 75.9181 29.2686 94.5623 52.1857 94.5623C75.1014 94.5623 93.7492 75.9188 93.7492 52.9984C93.7485 30.0814 75.1014 11.4373 52.1857 11.4373ZM52.1857 92.6565C30.3201 92.6565 12.5299 74.8658 12.5299 52.9984C12.5299 31.133 30.3195 13.3437 52.1857 13.3437C74.0505 13.3437 91.8394 31.133 91.8394 52.9984C91.8394 74.8658 74.0499 92.6565 52.1857 92.6565Z" fill="white"/>
</g>
<defs>
<filter id="filter0_f_1015_1880" x="-2" y="-1.5" width="109" height="109" filterUnits="userSpaceOnUse" color-interpolation-filters="sRGB">
<feFlood flood-opacity="0" result="BackgroundImageFix"/>
<feBlend mode="normal" in="SourceGraphic" in2="BackgroundImageFix" result="shape"/>
<feGaussianBlur stdDeviation="1" result="effect1_foregroundBlur_1015_1880"/>
</filter>
<filter id="filter1_f_1015_1880" x="-6" y="-5.5" width="117" height="117" filterUnits="userSpaceOnUse" color-interpolation-filters="sRGB">
<feFlood flood-opacity="0" result="BackgroundImageFix"/>
<feBlend mode="normal" in="SourceGraphic" in2="BackgroundImageFix" result="shape"/>
<feGaussianBlur stdDeviation="3" result="effect1_foregroundBlur_1015_1880"/>
</filter>
<linearGradient id="paint0_linear_1015_1880" x1="52.5" y1="0" x2="52.5" y2="105" gradientUnits="userSpaceOnUse">
<stop stop-color="#21759B"/>
<stop offset="1" stop-color="#2B6CB0"/>
</linearGradient>
<radialGradient id="paint1_radial_1015_1880" cx="0" cy="0" r="1" gradientUnits="userSpaceOnUse" gradientTransform="translate(52.5 53) rotate(90) scale(52.5)">
<stop stop-color="#21759B"/>
<stop offset="1" stop-color="#2B6CAF"/>
</radialGradient>
<linearGradient id="paint2_linear_1015_1880" x1="52.5" y1="0.5" x2="52.5" y2="105.5" gradientUnits="userSpaceOnUse">
<stop stop-opacity="0"/>
<stop offset="0.6" stop-opacity="0.08"/>
<stop offset="1" stop-opacity="0.26"/>
</linearGradient>
<linearGradient id="paint3_linear_1015_1880" x1="52.5" y1="0.5" x2="52.5" y2="105.5" gradientUnits="userSpaceOnUse">
<stop offset="0.14" stop-color="white" stop-opacity="0.26"/>
<stop offset="0.64" stop-color="white" stop-opacity="0.08"/>
<stop offset="1" stop-color="white" stop-opacity="0"/>
</linearGradient>
<linearGradient id="paint4_linear_1015_1880" x1="52.5" y1="105.5" x2="52.5" y2="94.5625" gradientUnits="userSpaceOnUse">
<stop/>
<stop offset="1" stop-opacity="0"/>
</linearGradient>
<linearGradient id="paint5_linear_1015_1880" x1="52.5" y1="0.5" x2="52.5" y2="57.375" gradientUnits="userSpaceOnUse">
<stop stop-color="white"/>
<stop offset="1" stop-color="white" stop-opacity="0"/>
</linearGradient>
<clipPath id="clip0_1015_1880">
<rect width="105" height="105" fill="white" transform="translate(0 0.5)"/>
</clipPath>
</defs>
</svg>
