<svg width="59" height="82" viewBox="0 0 59 82" fill="none" xmlns="http://www.w3.org/2000/svg">
<path d="M33.6673 17.043C25.8131 17.043 19.8651 20.2602 15.8231 26.8149V26.8358H0V53.7504C0 72.6979 9.8751 82.1141 29.5052 81.999C49.0152 81.6432 58.7754 71.0343 58.7754 50.0572C58.7754 29.08 50.4461 17.6393 33.6725 17.043H33.6673ZM29.0248 68.5286C19.9852 68.5286 15.6978 62.0942 15.8179 49.3405C16.2931 37.1831 20.6954 31.2248 29.2598 31.2248C37.8241 31.2248 42.2264 37.1831 42.5867 49.3405C42.5867 62.0942 38.0643 68.5286 29.0248 68.5286Z" fill="white"/>
<path d="M15.8127 80.0264V25.5067C15.8127 20.3853 13.3165 17.8848 8.20401 17.8848H0V53.7553C0 67.618 5.29005 76.375 15.8179 80.0317L15.8127 80.0264Z" fill="white"/>
<path d="M15.8127 7.78386C15.7448 2.67308 13.1337 0 7.96902 0H0V12.2826H15.8179V7.78386H15.8127Z" fill="white"/>
</svg>
