<svg width="105" height="106" viewBox="0 0 105 106" fill="none" xmlns="http://www.w3.org/2000/svg">
<g clip-path="url(#clip0_1009_1879)">
<rect y="0.5" width="105" height="105" fill="url(#paint0_radial_1009_1879)"/>
<g style="mix-blend-mode:overlay">
<rect y="0.5" width="105" height="105" fill="url(#paint1_linear_1009_1879)"/>
</g>
<rect y="0.5" width="105" height="105" fill="url(#paint2_linear_1009_1879)"/>
<g style="mix-blend-mode:soft-light" filter="url(#filter0_f_1009_1879)">
<rect x="1.5" y="2" width="102" height="102" stroke="url(#paint3_linear_1009_1879)" stroke-width="3"/>
</g>
<g style="mix-blend-mode:soft-light" filter="url(#filter1_f_1009_1879)">
<rect x="2" y="2.5" width="101" height="101" stroke="url(#paint4_linear_1009_1879)" stroke-width="4"/>
</g>
<path d="M39.3047 91.6459C46.4156 91.6459 52.1867 85.8748 52.1867 78.764V65.8821H39.3047C32.1939 65.8821 26.4228 71.6532 26.4228 78.764C26.4228 85.8748 32.1939 91.6459 39.3047 91.6459Z" fill="#0ACF83"/>
<path d="M26.4228 53.0001C26.4228 45.8893 32.1939 40.1182 39.3047 40.1182H52.1867V65.882H39.3047C32.1939 65.882 26.4228 60.1109 26.4228 53.0001Z" fill="#A259FF"/>
<path d="M26.4228 27.2362C26.4228 20.1254 32.1939 14.3542 39.3047 14.3542H52.1867V40.1181H39.3047C32.1939 40.1181 26.4228 34.347 26.4228 27.2362Z" fill="#F24E1E"/>
<path d="M52.1866 14.3542H65.0686C72.1794 14.3542 77.9506 20.1254 77.9506 27.2362C77.9506 34.347 72.1794 40.1181 65.0686 40.1181H52.1866V14.3542Z" fill="#FF7262"/>
<path d="M77.9506 53.0001C77.9506 60.1109 72.1794 65.882 65.0686 65.882C57.9578 65.882 52.1866 60.1109 52.1866 53.0001C52.1866 45.8893 57.9578 40.1182 65.0686 40.1182C72.1794 40.1182 77.9506 45.8893 77.9506 53.0001Z" fill="#1ABCFE"/>
</g>
<defs>
<filter id="filter0_f_1009_1879" x="-2" y="-1.5" width="109" height="109" filterUnits="userSpaceOnUse" color-interpolation-filters="sRGB">
<feFlood flood-opacity="0" result="BackgroundImageFix"/>
<feBlend mode="normal" in="SourceGraphic" in2="BackgroundImageFix" result="shape"/>
<feGaussianBlur stdDeviation="1" result="effect1_foregroundBlur_1009_1879"/>
</filter>
<filter id="filter1_f_1009_1879" x="-6" y="-5.5" width="117" height="117" filterUnits="userSpaceOnUse" color-interpolation-filters="sRGB">
<feFlood flood-opacity="0" result="BackgroundImageFix"/>
<feBlend mode="normal" in="SourceGraphic" in2="BackgroundImageFix" result="shape"/>
<feGaussianBlur stdDeviation="3" result="effect1_foregroundBlur_1009_1879"/>
</filter>
<radialGradient id="paint0_radial_1009_1879" cx="0" cy="0" r="1" gradientUnits="userSpaceOnUse" gradientTransform="translate(52.5 53) rotate(90) scale(52.5)">
<stop stop-color="#212121"/>
<stop offset="1" stop-color="#010101"/>
</radialGradient>
<linearGradient id="paint1_linear_1009_1879" x1="52.5" y1="0.5" x2="52.5" y2="105.5" gradientUnits="userSpaceOnUse">
<stop stop-opacity="0"/>
<stop offset="0.6" stop-opacity="0.08"/>
<stop offset="1" stop-opacity="0.26"/>
</linearGradient>
<linearGradient id="paint2_linear_1009_1879" x1="52.5" y1="0.5" x2="52.5" y2="105.5" gradientUnits="userSpaceOnUse">
<stop offset="0.14" stop-color="white" stop-opacity="0.26"/>
<stop offset="0.64" stop-color="white" stop-opacity="0.08"/>
<stop offset="1" stop-color="white" stop-opacity="0"/>
</linearGradient>
<linearGradient id="paint3_linear_1009_1879" x1="52.5" y1="105.5" x2="52.5" y2="94.5625" gradientUnits="userSpaceOnUse">
<stop/>
<stop offset="1" stop-opacity="0"/>
</linearGradient>
<linearGradient id="paint4_linear_1009_1879" x1="52.5" y1="0.5" x2="52.5" y2="57.375" gradientUnits="userSpaceOnUse">
<stop stop-color="white"/>
<stop offset="1" stop-color="white" stop-opacity="0"/>
</linearGradient>
<clipPath id="clip0_1009_1879">
<rect width="105" height="105" fill="white" transform="translate(0 0.5)"/>
</clipPath>
</defs>
</svg>
