<svg width="108" height="108" viewBox="0 0 108 108" fill="none" xmlns="http://www.w3.org/2000/svg">
<g clip-path="url(#clip0_178_3073)">
<rect x="4" y="4" width="100" height="100" rx="12" fill="url(#paint0_radial_178_3073)"/>
<g style="mix-blend-mode:overlay">
<rect x="4" y="4" width="100" height="100" rx="12" fill="url(#paint1_linear_178_3073)"/>
</g>
<rect x="4" y="4" width="100" height="100" rx="12" fill="url(#paint2_linear_178_3073)"/>
<g style="mix-blend-mode:soft-light" filter="url(#filter0_f_178_3073)">
<rect x="5.5" y="5.5" width="97" height="97" rx="10.5" stroke="url(#paint3_linear_178_3073)" stroke-width="3"/>
</g>
<g style="mix-blend-mode:soft-light" filter="url(#filter1_f_178_3073)">
<rect x="6" y="6" width="96" height="96" rx="10" stroke="url(#paint4_linear_178_3073)" stroke-width="4"/>
</g>
<path d="M42.6654 86C48.6454 86 53.4987 81.1467 53.4987 75.1667V64.3334H42.6654C36.6854 64.3334 31.832 69.1867 31.832 75.1667C31.832 81.1467 36.6854 86 42.6654 86Z" fill="#0ACF83"/>
<path d="M31.832 53.4999C31.832 47.52 36.6854 42.6666 42.6654 42.6666H53.4987V64.3333H42.6654C36.6854 64.3333 31.832 59.4799 31.832 53.4999Z" fill="#A259FF"/>
<path d="M31.832 31.8333C31.832 25.8533 36.6854 21 42.6654 21H53.4987V42.6666H42.6654C36.6854 42.6666 31.832 37.8133 31.832 31.8333Z" fill="#F24E1E"/>
<path d="M53.5 21H64.3334C70.3134 21 75.1667 25.8533 75.1667 31.8333C75.1667 37.8133 70.3134 42.6666 64.3334 42.6666H53.5V21Z" fill="#FF7262"/>
<path d="M75.1667 53.4999C75.1667 59.4799 70.3134 64.3333 64.3334 64.3333C58.3533 64.3333 53.5 59.4799 53.5 53.4999C53.5 47.52 58.3533 42.6666 64.3334 42.6666C70.3134 42.6666 75.1667 47.52 75.1667 53.4999Z" fill="#1ABCFE"/>
</g>
<rect x="2" y="2" width="104" height="104" rx="14" stroke="#3A3A3A" stroke-width="4"/>
<defs>
<filter id="filter0_f_178_3073" x="2" y="2" width="104" height="104" filterUnits="userSpaceOnUse" color-interpolation-filters="sRGB">
<feFlood flood-opacity="0" result="BackgroundImageFix"/>
<feBlend mode="normal" in="SourceGraphic" in2="BackgroundImageFix" result="shape"/>
<feGaussianBlur stdDeviation="1" result="effect1_foregroundBlur_178_3073"/>
</filter>
<filter id="filter1_f_178_3073" x="-2" y="-2" width="112" height="112" filterUnits="userSpaceOnUse" color-interpolation-filters="sRGB">
<feFlood flood-opacity="0" result="BackgroundImageFix"/>
<feBlend mode="normal" in="SourceGraphic" in2="BackgroundImageFix" result="shape"/>
<feGaussianBlur stdDeviation="3" result="effect1_foregroundBlur_178_3073"/>
</filter>
<radialGradient id="paint0_radial_178_3073" cx="0" cy="0" r="1" gradientUnits="userSpaceOnUse" gradientTransform="translate(54 54) rotate(90) scale(50)">
<stop stop-color="#212121"/>
<stop offset="1" stop-color="#010101"/>
</radialGradient>
<linearGradient id="paint1_linear_178_3073" x1="54" y1="4" x2="54" y2="104" gradientUnits="userSpaceOnUse">
<stop stop-opacity="0"/>
<stop offset="0.6" stop-opacity="0.08"/>
<stop offset="1" stop-opacity="0.26"/>
</linearGradient>
<linearGradient id="paint2_linear_178_3073" x1="54" y1="4" x2="54" y2="104" gradientUnits="userSpaceOnUse">
<stop offset="0.14" stop-color="white" stop-opacity="0.26"/>
<stop offset="0.64" stop-color="white" stop-opacity="0.08"/>
<stop offset="1" stop-color="white" stop-opacity="0"/>
</linearGradient>
<linearGradient id="paint3_linear_178_3073" x1="54" y1="104" x2="54" y2="93.5833" gradientUnits="userSpaceOnUse">
<stop/>
<stop offset="1" stop-opacity="0"/>
</linearGradient>
<linearGradient id="paint4_linear_178_3073" x1="54" y1="4" x2="54" y2="58.1667" gradientUnits="userSpaceOnUse">
<stop stop-color="white"/>
<stop offset="1" stop-color="white" stop-opacity="0"/>
</linearGradient>
<clipPath id="clip0_178_3073">
<rect x="4" y="4" width="100" height="100" rx="12" fill="white"/>
</clipPath>
</defs>
</svg>
