<svg width="112" height="112" viewBox="0 0 112 112" fill="none" xmlns="http://www.w3.org/2000/svg">
<rect x="4" y="4" width="104" height="104" rx="14" fill="url(#paint0_linear_178_3116)"/>
<rect x="4" y="4" width="104" height="104" rx="14" stroke="#3A3A3A" stroke-width="4"/>
<rect x="6" y="6" width="100" height="100" rx="12" fill="url(#paint1_radial_178_3116)"/>
<g style="mix-blend-mode:overlay">
<rect x="6" y="6" width="100" height="100" rx="12" fill="url(#paint2_linear_178_3116)"/>
</g>
<rect x="6" y="6" width="100" height="100" rx="12" fill="url(#paint3_linear_178_3116)"/>
<g style="mix-blend-mode:soft-light" filter="url(#filter0_f_178_3116)">
<rect x="6.5" y="6.5" width="99" height="99" rx="11.5" stroke="url(#paint4_linear_178_3116)"/>
</g>
<g style="mix-blend-mode:soft-light" filter="url(#filter1_f_178_3116)">
<rect x="7" y="7" width="98" height="98" rx="11" stroke="url(#paint5_linear_178_3116)" stroke-width="2"/>
</g>
<path d="M92.5668 52.159L59.3844 19.4144C57.4746 17.5285 54.3753 17.5285 52.4631 19.4144L45.5726 26.2143L54.3135 34.8404C56.3447 34.163 58.674 34.6174 60.2932 36.2153C61.9201 37.8234 62.3773 40.1417 61.6743 42.1527L70.0981 50.4662C72.1361 49.7733 74.4877 50.2215 76.1155 51.8305C78.3904 54.0747 78.3904 57.712 76.1155 59.9576C73.8399 62.2036 70.1542 62.2036 67.8775 59.9576C66.1663 58.2672 65.7435 55.7871 66.6098 53.7067L58.7539 45.9541L58.753 66.3559C59.3225 66.6338 59.8426 67.0008 60.2932 67.4428C62.5681 69.687 62.5681 73.3246 60.2932 75.572C58.0176 77.8168 54.3301 77.8168 52.0579 75.572C49.7829 73.3246 49.7829 69.6873 52.0579 67.4431C52.603 66.9048 53.2509 66.4786 53.9641 66.1889V45.5969C53.2499 45.3092 52.6016 44.8827 52.0579 44.3427C50.3342 42.644 49.9198 40.1482 50.803 38.0596L42.1865 29.5554L19.4339 52.0075C17.522 53.8951 17.522 56.9541 19.4339 58.8402L52.6169 91.5854C54.5273 93.4715 57.6261 93.4715 59.5388 91.5854L92.5665 58.9923C94.4778 57.1055 94.4781 54.0448 92.5668 52.159Z" fill="white"/>
<defs>
<filter id="filter0_f_178_3116" x="4" y="4" width="104" height="104" filterUnits="userSpaceOnUse" color-interpolation-filters="sRGB">
<feFlood flood-opacity="0" result="BackgroundImageFix"/>
<feBlend mode="normal" in="SourceGraphic" in2="BackgroundImageFix" result="shape"/>
<feGaussianBlur stdDeviation="1" result="effect1_foregroundBlur_178_3116"/>
</filter>
<filter id="filter1_f_178_3116" x="0" y="0" width="112" height="112" filterUnits="userSpaceOnUse" color-interpolation-filters="sRGB">
<feFlood flood-opacity="0" result="BackgroundImageFix"/>
<feBlend mode="normal" in="SourceGraphic" in2="BackgroundImageFix" result="shape"/>
<feGaussianBlur stdDeviation="3" result="effect1_foregroundBlur_178_3116"/>
</filter>
<linearGradient id="paint0_linear_178_3116" x1="56" y1="6" x2="56" y2="106" gradientUnits="userSpaceOnUse">
<stop stop-color="#F05033"/>
<stop offset="1" stop-color="#FF7043"/>
</linearGradient>
<radialGradient id="paint1_radial_178_3116" cx="0" cy="0" r="1" gradientUnits="userSpaceOnUse" gradientTransform="translate(56 56) rotate(90) scale(50)">
<stop stop-color="#FF7043"/>
<stop offset="1" stop-color="#F05033"/>
</radialGradient>
<linearGradient id="paint2_linear_178_3116" x1="56" y1="6" x2="56" y2="106" gradientUnits="userSpaceOnUse">
<stop stop-opacity="0"/>
<stop offset="0.6" stop-opacity="0.08"/>
<stop offset="1" stop-opacity="0.26"/>
</linearGradient>
<linearGradient id="paint3_linear_178_3116" x1="56" y1="6" x2="56" y2="106" gradientUnits="userSpaceOnUse">
<stop offset="0.14" stop-color="white" stop-opacity="0.26"/>
<stop offset="0.64" stop-color="white" stop-opacity="0.08"/>
<stop offset="1" stop-color="white" stop-opacity="0"/>
</linearGradient>
<linearGradient id="paint4_linear_178_3116" x1="56" y1="106" x2="56" y2="95.5833" gradientUnits="userSpaceOnUse">
<stop/>
<stop offset="1" stop-opacity="0"/>
</linearGradient>
<linearGradient id="paint5_linear_178_3116" x1="56" y1="6" x2="56" y2="60.1667" gradientUnits="userSpaceOnUse">
<stop stop-color="white"/>
<stop offset="1" stop-color="white" stop-opacity="0"/>
</linearGradient>
</defs>
</svg>
