<svg width="105" height="106" viewBox="0 0 105 106" fill="none" xmlns="http://www.w3.org/2000/svg">
<g clip-path="url(#clip0_1015_1799)">
<rect width="105" height="105" transform="translate(0 0.5)" fill="url(#paint0_linear_1015_1799)"/>
<rect y="0.5" width="105" height="105" fill="url(#paint1_radial_1015_1799)"/>
<g style="mix-blend-mode:overlay">
<rect y="0.5" width="105" height="105" fill="url(#paint2_linear_1015_1799)"/>
</g>
<rect y="0.5" width="105" height="105" fill="url(#paint3_linear_1015_1799)"/>
<g style="mix-blend-mode:soft-light" filter="url(#filter0_f_1015_1799)">
<rect x="0.5" y="1" width="104" height="104" stroke="url(#paint4_linear_1015_1799)"/>
</g>
<g style="mix-blend-mode:soft-light" filter="url(#filter1_f_1015_1799)">
<rect x="1" y="1.5" width="103" height="103" stroke="url(#paint5_linear_1015_1799)" stroke-width="2"/>
</g>
<path d="M90.8058 48.7628L56.4228 14.3811C54.4439 12.401 51.2323 12.401 49.251 14.3811L42.1112 21.521L51.1684 30.5783C53.2731 29.8671 55.6866 30.3442 57.3644 32.022C59.0501 33.7106 59.5239 36.1448 58.7954 38.2563L67.5241 46.9854C69.6359 46.2578 72.0725 46.7285 73.7592 48.418C76.1165 50.7743 76.1165 54.5935 73.7592 56.9514C71.4013 59.3096 67.5822 59.3096 65.2231 56.9514C63.45 55.1764 63.012 52.5724 63.9096 50.388L55.7694 42.2477L55.7685 63.6696C56.3586 63.9613 56.8975 64.3468 57.3644 64.8108C59.7217 67.1672 59.7217 70.9867 57.3644 73.3464C55.0065 75.7034 51.1856 75.7034 48.8311 73.3464C46.4738 70.9867 46.4738 67.1675 48.8311 64.8111C49.396 64.246 50.0673 63.7983 50.8063 63.4942V41.8727C50.0663 41.5706 49.3945 41.1227 48.8311 40.5558C47.0451 38.7722 46.6156 36.1515 47.5308 33.9585L38.6025 25.0292L15.0267 48.6038C13.0456 50.5858 13.0456 53.7977 15.0267 55.7781L49.4103 90.1604C51.3898 92.1409 54.6008 92.1409 56.5827 90.1604L90.8055 55.9378C92.786 53.9567 92.7863 50.743 90.8058 48.7628Z" fill="white"/>
</g>
<defs>
<filter id="filter0_f_1015_1799" x="-2" y="-1.5" width="109" height="109" filterUnits="userSpaceOnUse" color-interpolation-filters="sRGB">
<feFlood flood-opacity="0" result="BackgroundImageFix"/>
<feBlend mode="normal" in="SourceGraphic" in2="BackgroundImageFix" result="shape"/>
<feGaussianBlur stdDeviation="1" result="effect1_foregroundBlur_1015_1799"/>
</filter>
<filter id="filter1_f_1015_1799" x="-6" y="-5.5" width="117" height="117" filterUnits="userSpaceOnUse" color-interpolation-filters="sRGB">
<feFlood flood-opacity="0" result="BackgroundImageFix"/>
<feBlend mode="normal" in="SourceGraphic" in2="BackgroundImageFix" result="shape"/>
<feGaussianBlur stdDeviation="3" result="effect1_foregroundBlur_1015_1799"/>
</filter>
<linearGradient id="paint0_linear_1015_1799" x1="52.5" y1="0" x2="52.5" y2="105" gradientUnits="userSpaceOnUse">
<stop stop-color="#F05033"/>
<stop offset="1" stop-color="#FF7043"/>
</linearGradient>
<radialGradient id="paint1_radial_1015_1799" cx="0" cy="0" r="1" gradientUnits="userSpaceOnUse" gradientTransform="translate(52.5 52.9999) rotate(90) scale(52.4999 52.5)">
<stop stop-color="#FF7043"/>
<stop offset="1" stop-color="#F05033"/>
</radialGradient>
<linearGradient id="paint2_linear_1015_1799" x1="52.5" y1="0.5" x2="52.5" y2="105.5" gradientUnits="userSpaceOnUse">
<stop stop-opacity="0"/>
<stop offset="0.6" stop-opacity="0.08"/>
<stop offset="1" stop-opacity="0.26"/>
</linearGradient>
<linearGradient id="paint3_linear_1015_1799" x1="52.5" y1="0.5" x2="52.5" y2="105.5" gradientUnits="userSpaceOnUse">
<stop offset="0.14" stop-color="white" stop-opacity="0.26"/>
<stop offset="0.64" stop-color="white" stop-opacity="0.08"/>
<stop offset="1" stop-color="white" stop-opacity="0"/>
</linearGradient>
<linearGradient id="paint4_linear_1015_1799" x1="52.5" y1="105.5" x2="52.5" y2="94.5623" gradientUnits="userSpaceOnUse">
<stop/>
<stop offset="1" stop-opacity="0"/>
</linearGradient>
<linearGradient id="paint5_linear_1015_1799" x1="52.5" y1="0.5" x2="52.5" y2="57.3749" gradientUnits="userSpaceOnUse">
<stop stop-color="white"/>
<stop offset="1" stop-color="white" stop-opacity="0"/>
</linearGradient>
<clipPath id="clip0_1015_1799">
<rect width="105" height="105" fill="white" transform="translate(0 0.5)"/>
</clipPath>
</defs>
</svg>
