<svg width="105" height="105" viewBox="0 0 105 105" fill="none" xmlns="http://www.w3.org/2000/svg">
<g clip-path="url(#clip0_1026_1276)">
<rect width="105" height="105" fill="url(#paint0_linear_1026_1276)"/>
<rect width="105" height="105" fill="url(#paint1_radial_1026_1276)"/>
<g style="mix-blend-mode:overlay">
<rect width="105" height="105" fill="url(#paint2_linear_1026_1276)"/>
</g>
<rect width="105" height="105" fill="url(#paint3_linear_1026_1276)"/>
<g style="mix-blend-mode:soft-light" filter="url(#filter0_f_1026_1276)">
<rect x="0.5" y="0.5" width="104" height="104" stroke="url(#paint4_linear_1026_1276)"/>
</g>
<g style="mix-blend-mode:soft-light" filter="url(#filter1_f_1026_1276)">
<rect x="1" y="1" width="103" height="103" stroke="url(#paint5_linear_1026_1276)" stroke-width="2"/>
</g>
<path d="M52.916 9.479C28.7566 9.479 9.16586 29.2273 9.16586 53.5889C9.16586 73.0781 21.7016 89.6122 39.085 95.4449C41.2714 95.8531 42.0743 94.488 42.0743 93.3229C42.0743 92.2712 42.0335 88.7962 42.0149 85.1105C29.8433 87.7787 27.275 79.906 27.275 79.906C25.2848 74.8075 22.4173 73.4521 22.4173 73.4521C18.4481 70.7142 22.7166 70.7703 22.7166 70.7703C27.1099 71.0816 29.4233 75.316 29.4233 75.316C33.3253 82.0596 39.658 80.1098 42.1546 78.9831C42.5471 76.1318 43.6812 74.1862 44.9322 73.0847C35.2149 71.969 24.9994 68.1868 24.9994 51.2852C24.9994 46.4696 26.7085 42.5345 29.5073 39.4456C29.053 38.3344 27.5556 33.8481 29.9311 27.7723C29.9311 27.7723 33.6049 26.5867 41.9655 32.2938C45.4551 31.3162 49.1979 30.8263 52.916 30.8097C56.6341 30.8263 60.3797 31.3162 63.8761 32.2938C72.2268 26.5867 75.8955 27.7723 75.8955 27.7723C78.2767 33.8481 76.7787 38.3344 76.3244 39.4456C79.1294 42.5345 80.8269 46.4693 80.8269 51.2852C80.8269 68.2269 70.5921 71.9576 60.8501 73.0494C62.4192 74.4183 63.8175 77.1028 63.8175 81.2179C63.8175 87.1197 63.7667 91.8699 63.7667 93.3229C63.7667 94.4967 64.5541 95.8721 66.7721 95.439C84.1459 89.5998 96.6659 73.0715 96.6659 53.5889C96.6659 29.2273 77.0779 9.479 52.916 9.479Z" fill="white"/>
<path d="M25.5517 72.3149C25.4556 72.5339 25.1131 72.5996 24.8019 72.4495C24.4845 72.3055 24.3061 72.0066 24.4091 71.7866C24.5034 71.5611 24.8458 71.4981 25.1626 71.6496C25.4806 71.7932 25.6618 72.0949 25.5517 72.3149V72.3149ZM27.7037 74.2508C27.4951 74.4459 27.0871 74.3553 26.8102 74.047C26.5241 73.7395 26.4705 73.3285 26.6823 73.1303C26.8974 72.9355 27.293 73.0265 27.5799 73.3344C27.866 73.6454 27.9216 74.054 27.7034 74.2511L27.7037 74.2508ZM29.1802 76.7278C28.9119 76.9156 28.4734 76.7395 28.2026 76.3472C27.9347 75.9553 27.9347 75.4848 28.2085 75.2962C28.4802 75.1077 28.9119 75.2772 29.1864 75.6664C29.454 76.0653 29.454 76.5358 29.1799 76.7281L29.1802 76.7278ZM31.6768 79.5967C31.437 79.8631 30.9264 79.7918 30.5524 79.4279C30.1701 79.0722 30.0634 78.5675 30.3039 78.3008C30.5465 78.0337 31.0602 78.1088 31.4369 78.4696C31.8168 78.8245 31.9328 79.3331 31.6771 79.5967H31.6768ZM34.9035 80.5653C34.7982 80.9106 34.3062 81.0677 33.8107 80.921C33.3159 80.7698 32.992 80.365 33.0918 80.016C33.1948 79.6683 33.6889 79.5047 34.1881 79.6617C34.6822 79.8122 35.0068 80.2139 34.9039 80.5653H34.9035ZM38.5764 80.976C38.5887 81.3399 38.1684 81.6416 37.6482 81.6482C37.1249 81.6596 36.7019 81.3652 36.6964 81.0075C36.6964 80.6401 37.1071 80.3412 37.63 80.3325C38.1502 80.3221 38.5764 80.6145 38.5764 80.976V80.976ZM42.184 80.8366C42.2464 81.1915 41.8848 81.5561 41.3684 81.653C40.8605 81.7464 40.3905 81.5274 40.3256 81.1756C40.2625 80.8117 40.631 80.4474 41.1378 80.3529C41.6552 80.2623 42.1181 80.4757 42.184 80.8366" fill="white"/>
</g>
<defs>
<filter id="filter0_f_1026_1276" x="-2" y="-2" width="109" height="109" filterUnits="userSpaceOnUse" color-interpolation-filters="sRGB">
<feFlood flood-opacity="0" result="BackgroundImageFix"/>
<feBlend mode="normal" in="SourceGraphic" in2="BackgroundImageFix" result="shape"/>
<feGaussianBlur stdDeviation="1" result="effect1_foregroundBlur_1026_1276"/>
</filter>
<filter id="filter1_f_1026_1276" x="-6" y="-6" width="117" height="117" filterUnits="userSpaceOnUse" color-interpolation-filters="sRGB">
<feFlood flood-opacity="0" result="BackgroundImageFix"/>
<feBlend mode="normal" in="SourceGraphic" in2="BackgroundImageFix" result="shape"/>
<feGaussianBlur stdDeviation="3" result="effect1_foregroundBlur_1026_1276"/>
</filter>
<linearGradient id="paint0_linear_1026_1276" x1="52.5" y1="0" x2="52.5" y2="105" gradientUnits="userSpaceOnUse">
<stop stop-color="#24292E"/>
<stop offset="1" stop-color="#6A737D"/>
</linearGradient>
<radialGradient id="paint1_radial_1026_1276" cx="0" cy="0" r="1" gradientUnits="userSpaceOnUse" gradientTransform="translate(52.5 52.5) rotate(90) scale(52.5)">
<stop stop-color="#69727C"/>
<stop offset="1" stop-color="#24292E"/>
</radialGradient>
<linearGradient id="paint2_linear_1026_1276" x1="52.5" y1="0" x2="52.5" y2="105" gradientUnits="userSpaceOnUse">
<stop stop-opacity="0"/>
<stop offset="0.6" stop-opacity="0.08"/>
<stop offset="1" stop-opacity="0.26"/>
</linearGradient>
<linearGradient id="paint3_linear_1026_1276" x1="52.5" y1="0" x2="52.5" y2="105" gradientUnits="userSpaceOnUse">
<stop offset="0.14" stop-color="white" stop-opacity="0.26"/>
<stop offset="0.64" stop-color="white" stop-opacity="0.08"/>
<stop offset="1" stop-color="white" stop-opacity="0"/>
</linearGradient>
<linearGradient id="paint4_linear_1026_1276" x1="52.5" y1="105" x2="52.5" y2="94.0625" gradientUnits="userSpaceOnUse">
<stop/>
<stop offset="1" stop-opacity="0"/>
</linearGradient>
<linearGradient id="paint5_linear_1026_1276" x1="52.5" y1="0" x2="52.5" y2="56.875" gradientUnits="userSpaceOnUse">
<stop stop-color="white"/>
<stop offset="1" stop-color="white" stop-opacity="0"/>
</linearGradient>
<clipPath id="clip0_1026_1276">
<rect width="105" height="105" fill="white"/>
</clipPath>
</defs>
</svg>
