<svg width="112" height="112" viewBox="0 0 112 112" fill="none" xmlns="http://www.w3.org/2000/svg">
<rect x="4" y="4" width="104" height="104" rx="14" fill="url(#paint0_linear_178_3106)"/>
<rect x="4" y="4" width="104" height="104" rx="14" stroke="#3A3A3A" stroke-width="4"/>
<rect x="6" y="6" width="100" height="100" rx="12" fill="url(#paint1_radial_178_3106)"/>
<g style="mix-blend-mode:overlay">
<rect x="6" y="6" width="100" height="100" rx="12" fill="url(#paint2_linear_178_3106)"/>
</g>
<rect x="6" y="6" width="100" height="100" rx="12" fill="url(#paint3_linear_178_3106)"/>
<g style="mix-blend-mode:soft-light" filter="url(#filter0_f_178_3106)">
<rect x="6.5" y="6.5" width="99" height="99" rx="11.5" stroke="url(#paint4_linear_178_3106)"/>
</g>
<g style="mix-blend-mode:soft-light" filter="url(#filter1_f_178_3106)">
<rect x="7" y="7" width="98" height="98" rx="11" stroke="url(#paint5_linear_178_3106)" stroke-width="2"/>
</g>
<path d="M56.0001 18C35.0159 18 18 35.4436 18 56.9619C18 74.1766 28.8882 88.7811 43.9869 93.9331C45.8859 94.2937 46.5833 93.0879 46.5833 92.0587C46.5833 91.1298 46.5479 88.0603 46.5318 84.8047C35.9598 87.1616 33.7291 80.2077 33.7291 80.2077C32.0005 75.7042 29.5099 74.507 29.5099 74.507C26.0623 72.0887 29.7697 72.1382 29.7697 72.1382C33.5857 72.4132 35.595 76.1534 35.595 76.1534C38.9842 82.1099 44.4846 80.3877 46.6531 79.3924C46.994 76.8739 47.979 75.1554 49.0656 74.1824C40.6254 73.197 31.7525 69.8562 31.7525 54.9271C31.7525 50.6736 33.237 47.1977 35.668 44.4692C35.2734 43.4877 33.9728 39.5251 36.0361 34.1583C36.0361 34.1583 39.2271 33.1111 46.4889 38.1522C49.5198 37.2886 52.7707 36.8559 56.0001 36.8413C59.2296 36.8559 62.4829 37.2886 65.5198 38.1522C72.7729 33.1111 75.9594 34.1583 75.9594 34.1583C78.0277 39.5251 76.7266 43.4877 76.332 44.4692C78.7684 47.1977 80.2427 50.6733 80.2427 54.9271C80.2427 69.8916 71.3531 73.1869 62.8915 74.1513C64.2544 75.3604 65.4688 77.7317 65.4688 81.3664C65.4688 86.5795 65.4247 90.7753 65.4247 92.0587C65.4247 93.0955 66.1087 94.3105 68.0351 93.9279C83.1255 88.7701 94 74.1708 94 56.9619C94 35.4436 76.9864 18 56.0001 18Z" fill="white"/>
<path d="M32.2326 73.5022C32.1492 73.6957 31.8517 73.7537 31.5814 73.6211C31.3058 73.494 31.1508 73.23 31.2402 73.0356C31.3221 72.8364 31.6196 72.7808 31.8947 72.9146C32.1709 73.0414 32.3283 73.3079 32.2326 73.5022V73.5022ZM34.1019 75.2122C33.9207 75.3846 33.5663 75.3045 33.3258 75.0322C33.0772 74.7606 33.0307 74.3976 33.2146 74.2225C33.4015 74.0504 33.7451 74.1308 33.9943 74.4028C34.2428 74.6775 34.2911 75.0384 34.1016 75.2125L34.1019 75.2122ZM35.3843 77.4001C35.1512 77.566 34.7703 77.4105 34.5352 77.064C34.3024 76.7178 34.3024 76.3022 34.5403 76.1357C34.7763 75.9691 35.1512 76.1189 35.3896 76.4626C35.6221 76.8149 35.6221 77.2305 35.384 77.4004L35.3843 77.4001ZM37.5527 79.9342C37.3444 80.1695 36.901 80.1066 36.5761 79.7851C36.2441 79.471 36.1514 79.0251 36.3603 78.7896C36.571 78.5537 37.0172 78.62 37.3444 78.9387C37.6743 79.2522 37.7751 79.7014 37.553 79.9342H37.5527ZM40.3554 80.7898C40.2639 81.0948 39.8365 81.2335 39.4062 81.104C38.9764 80.9704 38.6951 80.6129 38.7818 80.3046C38.8712 79.9975 39.3004 79.8529 39.734 79.9917C40.1632 80.1246 40.4451 80.4794 40.3557 80.7898H40.3554ZM43.5455 81.1525C43.5562 81.474 43.1912 81.7405 42.7393 81.7463C42.2848 81.7564 41.9174 81.4963 41.9126 81.1803C41.9126 80.8558 42.2694 80.5918 42.7235 80.5842C43.1754 80.575 43.5455 80.8332 43.5455 81.1525V81.1525ZM46.679 81.0294C46.7332 81.3429 46.4191 81.665 45.9706 81.7505C45.5295 81.833 45.1212 81.6396 45.0649 81.3289C45.01 81.0074 45.3301 80.6856 45.7703 80.6022C46.2197 80.5221 46.6218 80.7107 46.679 81.0294" fill="white"/>
<defs>
<filter id="filter0_f_178_3106" x="4" y="4" width="104" height="104" filterUnits="userSpaceOnUse" color-interpolation-filters="sRGB">
<feFlood flood-opacity="0" result="BackgroundImageFix"/>
<feBlend mode="normal" in="SourceGraphic" in2="BackgroundImageFix" result="shape"/>
<feGaussianBlur stdDeviation="1" result="effect1_foregroundBlur_178_3106"/>
</filter>
<filter id="filter1_f_178_3106" x="0" y="0" width="112" height="112" filterUnits="userSpaceOnUse" color-interpolation-filters="sRGB">
<feFlood flood-opacity="0" result="BackgroundImageFix"/>
<feBlend mode="normal" in="SourceGraphic" in2="BackgroundImageFix" result="shape"/>
<feGaussianBlur stdDeviation="3" result="effect1_foregroundBlur_178_3106"/>
</filter>
<linearGradient id="paint0_linear_178_3106" x1="56" y1="6" x2="56" y2="106" gradientUnits="userSpaceOnUse">
<stop stop-color="#24292E"/>
<stop offset="1" stop-color="#6A737D"/>
</linearGradient>
<radialGradient id="paint1_radial_178_3106" cx="0" cy="0" r="1" gradientUnits="userSpaceOnUse" gradientTransform="translate(56 56) rotate(90) scale(50)">
<stop stop-color="#69727C"/>
<stop offset="1" stop-color="#24292E"/>
</radialGradient>
<linearGradient id="paint2_linear_178_3106" x1="56" y1="6" x2="56" y2="106" gradientUnits="userSpaceOnUse">
<stop stop-opacity="0"/>
<stop offset="0.6" stop-opacity="0.08"/>
<stop offset="1" stop-opacity="0.26"/>
</linearGradient>
<linearGradient id="paint3_linear_178_3106" x1="56" y1="6" x2="56" y2="106" gradientUnits="userSpaceOnUse">
<stop offset="0.14" stop-color="white" stop-opacity="0.26"/>
<stop offset="0.64" stop-color="white" stop-opacity="0.08"/>
<stop offset="1" stop-color="white" stop-opacity="0"/>
</linearGradient>
<linearGradient id="paint4_linear_178_3106" x1="56" y1="106" x2="56" y2="95.5833" gradientUnits="userSpaceOnUse">
<stop/>
<stop offset="1" stop-opacity="0"/>
</linearGradient>
<linearGradient id="paint5_linear_178_3106" x1="56" y1="6" x2="56" y2="60.1667" gradientUnits="userSpaceOnUse">
<stop stop-color="white"/>
<stop offset="1" stop-color="white" stop-opacity="0"/>
</linearGradient>
</defs>
</svg>
