<svg width="108" height="108" viewBox="0 0 108 108" fill="none" xmlns="http://www.w3.org/2000/svg">
<g clip-path="url(#clip0_178_3001)">
<rect x="4" y="4" width="100" height="100" rx="12" fill="url(#paint0_linear_178_3001)"/>
<rect x="4" y="4" width="100" height="100" rx="12" fill="url(#paint1_radial_178_3001)"/>
<g style="mix-blend-mode:soft-light" filter="url(#filter0_f_178_3001)">
<rect x="5.5" y="5.5" width="97" height="97" rx="10.5" stroke="url(#paint2_linear_178_3001)" stroke-width="3"/>
</g>
<g style="mix-blend-mode:soft-light" filter="url(#filter1_f_178_3001)">
<rect x="6" y="6" width="96" height="96" rx="10" stroke="url(#paint3_linear_178_3001)" stroke-width="4"/>
</g>
<rect x="4" y="4" width="100" height="100" rx="12" fill="url(#paint4_linear_178_3001)"/>
<path d="M24 20H54.0499V31.822H37.1271L38.2342 43.9304H54.0499V55.7264H27.2686L24 20ZM27.7958 61.6634H39.8157L40.6592 71.1158L54.0499 74.6572V87L29.4828 80.2297" fill="#EBEBEB"/>
<path d="M84.001 20H54.0039V31.822H82.8939L84.001 20ZM81.8132 43.9304H54.0039V55.7524H68.7652L67.3682 71.1158L54.0039 74.6572V86.948L78.5182 80.2297" fill="white"/>
</g>
<rect x="2" y="2" width="104" height="104" rx="14" stroke="#3A3A3A" stroke-width="4"/>
<defs>
<filter id="filter0_f_178_3001" x="2" y="2" width="104" height="104" filterUnits="userSpaceOnUse" color-interpolation-filters="sRGB">
<feFlood flood-opacity="0" result="BackgroundImageFix"/>
<feBlend mode="normal" in="SourceGraphic" in2="BackgroundImageFix" result="shape"/>
<feGaussianBlur stdDeviation="1" result="effect1_foregroundBlur_178_3001"/>
</filter>
<filter id="filter1_f_178_3001" x="-2" y="-2" width="112" height="112" filterUnits="userSpaceOnUse" color-interpolation-filters="sRGB">
<feFlood flood-opacity="0" result="BackgroundImageFix"/>
<feBlend mode="normal" in="SourceGraphic" in2="BackgroundImageFix" result="shape"/>
<feGaussianBlur stdDeviation="3" result="effect1_foregroundBlur_178_3001"/>
</filter>
<linearGradient id="paint0_linear_178_3001" x1="54" y1="4" x2="54" y2="104" gradientUnits="userSpaceOnUse">
<stop offset="0.14" stop-color="white" stop-opacity="0.26"/>
<stop offset="0.64" stop-color="white" stop-opacity="0.08"/>
<stop offset="1" stop-color="white" stop-opacity="0"/>
</linearGradient>
<radialGradient id="paint1_radial_178_3001" cx="0" cy="0" r="1" gradientUnits="userSpaceOnUse" gradientTransform="translate(54 54) rotate(90) scale(50)">
<stop stop-color="#FF6B01"/>
<stop offset="1" stop-color="#FF8B01"/>
</radialGradient>
<linearGradient id="paint2_linear_178_3001" x1="54" y1="104" x2="54" y2="93.5833" gradientUnits="userSpaceOnUse">
<stop/>
<stop offset="1" stop-opacity="0"/>
</linearGradient>
<linearGradient id="paint3_linear_178_3001" x1="54" y1="4" x2="54" y2="58.1667" gradientUnits="userSpaceOnUse">
<stop stop-color="white"/>
<stop offset="1" stop-color="white" stop-opacity="0"/>
</linearGradient>
<linearGradient id="paint4_linear_178_3001" x1="54" y1="4" x2="54" y2="104" gradientUnits="userSpaceOnUse">
<stop stop-opacity="0"/>
<stop offset="0.6" stop-opacity="0.08"/>
<stop offset="1" stop-opacity="0.26"/>
</linearGradient>
<clipPath id="clip0_178_3001">
<rect x="4" y="4" width="100" height="100" rx="12" fill="white"/>
</clipPath>
</defs>
</svg>
