<svg width="105" height="106" viewBox="0 0 105 106" fill="none" xmlns="http://www.w3.org/2000/svg">
<g clip-path="url(#clip0_1009_1827)">
<rect y="0.5" width="105" height="105" fill="url(#paint0_linear_1009_1827)"/>
<rect y="0.5" width="105" height="105" fill="url(#paint1_radial_1009_1827)"/>
<g style="mix-blend-mode:soft-light" filter="url(#filter0_f_1009_1827)">
<rect x="1.5" y="2" width="102" height="102" stroke="url(#paint2_linear_1009_1827)" stroke-width="3"/>
</g>
<g style="mix-blend-mode:soft-light" filter="url(#filter1_f_1009_1827)">
<rect x="2" y="2.5" width="101" height="101" stroke="url(#paint3_linear_1009_1827)" stroke-width="4"/>
</g>
<rect y="0.5" width="105" height="105" fill="url(#paint4_linear_1009_1827)"/>
<path d="M20 18H51.5892V30.2949H33.7995L34.9633 42.8878H51.5892V55.1556H23.436L20 18ZM23.9902 61.3302H36.6259L37.5126 71.1607L51.5892 74.8438V87.6803L25.7636 80.6392" fill="#EBEBEB"/>
<path d="M83.0686 18H51.5349V30.2949H81.9048L83.0686 18ZM80.7687 42.8878H51.5349V55.1827H67.0524L65.5838 71.1607L51.5349 74.8438V87.6262L77.305 80.6392" fill="white"/>
</g>
<defs>
<filter id="filter0_f_1009_1827" x="-2" y="-1.5" width="109" height="109" filterUnits="userSpaceOnUse" color-interpolation-filters="sRGB">
<feFlood flood-opacity="0" result="BackgroundImageFix"/>
<feBlend mode="normal" in="SourceGraphic" in2="BackgroundImageFix" result="shape"/>
<feGaussianBlur stdDeviation="1" result="effect1_foregroundBlur_1009_1827"/>
</filter>
<filter id="filter1_f_1009_1827" x="-6" y="-5.5" width="117" height="117" filterUnits="userSpaceOnUse" color-interpolation-filters="sRGB">
<feFlood flood-opacity="0" result="BackgroundImageFix"/>
<feBlend mode="normal" in="SourceGraphic" in2="BackgroundImageFix" result="shape"/>
<feGaussianBlur stdDeviation="3" result="effect1_foregroundBlur_1009_1827"/>
</filter>
<linearGradient id="paint0_linear_1009_1827" x1="52.5" y1="0.5" x2="52.5" y2="105.5" gradientUnits="userSpaceOnUse">
<stop offset="0.14" stop-color="white" stop-opacity="0.26"/>
<stop offset="0.64" stop-color="white" stop-opacity="0.08"/>
<stop offset="1" stop-color="white" stop-opacity="0"/>
</linearGradient>
<radialGradient id="paint1_radial_1009_1827" cx="0" cy="0" r="1" gradientUnits="userSpaceOnUse" gradientTransform="translate(52.5 53) rotate(90) scale(52.5)">
<stop stop-color="#FF6B01"/>
<stop offset="1" stop-color="#FF8B01"/>
</radialGradient>
<linearGradient id="paint2_linear_1009_1827" x1="52.5" y1="105.5" x2="52.5" y2="94.5625" gradientUnits="userSpaceOnUse">
<stop/>
<stop offset="1" stop-opacity="0"/>
</linearGradient>
<linearGradient id="paint3_linear_1009_1827" x1="52.5" y1="0.5" x2="52.5" y2="57.375" gradientUnits="userSpaceOnUse">
<stop stop-color="white"/>
<stop offset="1" stop-color="white" stop-opacity="0"/>
</linearGradient>
<linearGradient id="paint4_linear_1009_1827" x1="52.5" y1="0.5" x2="52.5" y2="105.5" gradientUnits="userSpaceOnUse">
<stop stop-opacity="0"/>
<stop offset="0.6" stop-opacity="0.08"/>
<stop offset="1" stop-opacity="0.26"/>
</linearGradient>
<clipPath id="clip0_1009_1827">
<rect width="105" height="105" fill="white" transform="translate(0 0.5)"/>
</clipPath>
</defs>
</svg>
