<svg width="108" height="108" viewBox="0 0 108 108" fill="none" xmlns="http://www.w3.org/2000/svg">
<g clip-path="url(#clip0_178_3086)">
<path d="M4.39453 4.69446L104.393 4.69446C104.393 4.69446 104.393 94.6517 104.393 104.694H4.39633L4.39453 4.69446Z" fill="url(#paint0_linear_178_3086)"/>
<rect x="4" y="4" width="100" height="100" rx="12" fill="url(#paint1_radial_178_3086)"/>
<g style="mix-blend-mode:overlay">
<rect x="4" y="4" width="100" height="100" rx="12" fill="url(#paint2_linear_178_3086)"/>
</g>
<rect x="4" y="4" width="100" height="100" rx="12" fill="url(#paint3_linear_178_3086)"/>
<g style="mix-blend-mode:soft-light" filter="url(#filter0_f_178_3086)">
<rect x="4.5" y="4.5" width="99" height="99" rx="11.5" stroke="url(#paint4_linear_178_3086)"/>
</g>
<g style="mix-blend-mode:soft-light" filter="url(#filter1_f_178_3086)">
<rect x="5" y="5" width="98" height="98" rx="11" stroke="url(#paint5_linear_178_3086)" stroke-width="2"/>
</g>
<path d="M26.8945 74.8227V30.8483C26.8945 30.5492 27.0195 30.3782 27.3112 30.3782C28.0195 30.3782 28.6862 30.3782 29.6445 30.3355C30.6445 30.2928 31.6862 30.2928 32.8112 30.25C33.9362 30.2073 35.1445 30.2073 36.4362 30.1646C37.7279 30.1218 38.9779 30.1218 40.2279 30.1218C43.6445 30.1218 46.4779 30.5492 48.8112 31.4466C50.8945 32.1731 52.8112 33.3697 54.3945 34.9509C55.7279 36.3184 56.7695 37.9851 57.4362 39.8227C58.0612 41.6176 58.3945 43.4552 58.3945 45.3782C58.3945 49.0534 57.5612 52.0876 55.8945 54.4808C54.2279 56.874 51.8945 58.6688 49.1862 59.6945C46.3529 60.7628 43.2279 61.1475 39.8112 61.1475C38.8112 61.1475 38.1445 61.1475 37.7279 61.1047C37.3112 61.062 36.7279 61.062 35.9362 61.062V74.7799C35.9779 75.0791 35.7695 75.3355 35.4779 75.3782C35.4362 75.3782 35.3945 75.3782 35.3112 75.3782H27.3945C27.0612 75.3782 26.8945 75.2073 26.8945 74.8227ZM35.9779 38.6261V52.9851C36.5612 53.0278 37.1029 53.0705 37.6029 53.0705H39.8112C41.4362 53.0705 43.0612 52.8141 44.6029 52.3013C45.9362 51.9167 47.1029 51.1047 48.0195 50.0364C48.8945 48.968 49.3112 47.515 49.3112 45.6346C49.3529 44.3099 49.0195 42.9851 48.3529 41.8312C47.6445 40.7201 46.6445 39.8654 45.4362 39.3953C43.8945 38.7543 42.2279 38.4979 40.5195 38.5406C39.4362 38.5406 38.4779 38.5406 37.6862 38.5834C36.8529 38.5406 36.2695 38.5834 35.9779 38.6261Z" fill="#31A8FF"/>
<path d="M84.3947 50.3782C83.1447 49.6945 81.8113 49.2244 80.3947 48.9252C78.853 48.5833 77.3113 48.3697 75.728 48.3697C74.8946 48.3269 74.0196 48.4551 73.228 48.6688C72.6863 48.797 72.228 49.0962 71.9363 49.5235C71.728 49.8654 71.603 50.2927 71.603 50.6774C71.603 51.062 71.7696 51.4466 72.0196 51.7885C72.3946 52.2586 72.8946 52.6432 73.4363 52.9423C74.3946 53.4551 75.3946 53.9252 76.3946 54.3526C78.6447 55.1218 80.8113 56.1902 82.8113 57.4722C84.1863 58.3697 85.3113 59.5663 86.103 61.0193C86.7697 62.3868 87.103 63.8825 87.0613 65.421C87.103 67.4295 86.5197 69.4381 85.4363 71.1047C84.2697 72.8141 82.6447 74.1389 80.7697 74.9081C78.728 75.8056 76.228 76.2757 73.228 76.2757C71.3113 76.2757 69.4363 76.1047 67.5613 75.7201C66.103 75.4637 64.6446 74.9936 63.3113 74.3526C63.0196 74.1817 62.8113 73.8825 62.853 73.5406V66.1047C62.853 65.9765 62.8946 65.8056 63.0196 65.7201C63.1446 65.6346 63.2696 65.6774 63.3946 65.7628C65.0196 66.7457 66.728 67.4295 68.5613 67.8569C70.1446 68.2842 71.8113 68.4979 73.478 68.4979C75.0613 68.4979 76.1863 68.2842 76.9363 67.8996C77.603 67.6004 78.0613 66.874 78.0613 66.1047C78.0613 65.5064 77.728 64.9509 77.0613 64.3953C76.3946 63.8398 75.0196 63.1987 72.978 62.3868C70.853 61.6175 68.8946 60.5919 67.0613 59.3098C65.7696 58.3697 64.6863 57.1304 63.8946 55.6774C63.228 54.3098 62.8946 52.8141 62.9363 51.3184C62.9363 49.4808 63.4363 47.7286 64.353 46.1474C65.3946 44.438 66.9363 43.0705 68.728 42.2158C70.6863 41.1902 73.1446 40.7201 76.103 40.7201C77.8113 40.7201 79.5613 40.8483 81.2697 41.1047C82.5197 41.2756 83.728 41.6175 84.853 42.0876C85.0197 42.1303 85.1863 42.3013 85.2697 42.4722C85.3113 42.6432 85.353 42.8141 85.353 42.985V49.9509C85.353 50.1218 85.2697 50.2927 85.1447 50.3782C84.7697 50.4637 84.5613 50.4637 84.3947 50.3782Z" fill="#31A8FF"/>
</g>
<rect x="2" y="2" width="104" height="104" rx="14" stroke="#3A3A3A" stroke-width="4"/>
<defs>
<filter id="filter0_f_178_3086" x="2" y="2" width="104" height="104" filterUnits="userSpaceOnUse" color-interpolation-filters="sRGB">
<feFlood flood-opacity="0" result="BackgroundImageFix"/>
<feBlend mode="normal" in="SourceGraphic" in2="BackgroundImageFix" result="shape"/>
<feGaussianBlur stdDeviation="1" result="effect1_foregroundBlur_178_3086"/>
</filter>
<filter id="filter1_f_178_3086" x="-2" y="-2" width="112" height="112" filterUnits="userSpaceOnUse" color-interpolation-filters="sRGB">
<feFlood flood-opacity="0" result="BackgroundImageFix"/>
<feBlend mode="normal" in="SourceGraphic" in2="BackgroundImageFix" result="shape"/>
<feGaussianBlur stdDeviation="3" result="effect1_foregroundBlur_178_3086"/>
</filter>
<linearGradient id="paint0_linear_178_3086" x1="54.3939" y1="4.69446" x2="54.3939" y2="104.694" gradientUnits="userSpaceOnUse">
<stop stop-color="#1D3557"/>
<stop offset="1" stop-color="#032336"/>
</linearGradient>
<radialGradient id="paint1_radial_178_3086" cx="0" cy="0" r="1" gradientUnits="userSpaceOnUse" gradientTransform="translate(54 54) rotate(90) scale(50)">
<stop stop-color="#1C3556"/>
<stop offset="1" stop-color="#032337"/>
</radialGradient>
<linearGradient id="paint2_linear_178_3086" x1="54" y1="4" x2="54" y2="104" gradientUnits="userSpaceOnUse">
<stop stop-opacity="0"/>
<stop offset="0.6" stop-opacity="0.08"/>
<stop offset="1" stop-opacity="0.26"/>
</linearGradient>
<linearGradient id="paint3_linear_178_3086" x1="54" y1="4" x2="54" y2="104" gradientUnits="userSpaceOnUse">
<stop offset="0.14" stop-color="white" stop-opacity="0.26"/>
<stop offset="0.64" stop-color="white" stop-opacity="0.08"/>
<stop offset="1" stop-color="white" stop-opacity="0"/>
</linearGradient>
<linearGradient id="paint4_linear_178_3086" x1="54" y1="104" x2="54" y2="93.5833" gradientUnits="userSpaceOnUse">
<stop/>
<stop offset="1" stop-opacity="0"/>
</linearGradient>
<linearGradient id="paint5_linear_178_3086" x1="54" y1="4" x2="54" y2="58.1667" gradientUnits="userSpaceOnUse">
<stop stop-color="white"/>
<stop offset="1" stop-color="white" stop-opacity="0"/>
</linearGradient>
<clipPath id="clip0_178_3086">
<rect x="4" y="4" width="100" height="100" rx="12" fill="white"/>
</clipPath>
</defs>
</svg>
