<svg width="105" height="106" viewBox="0 0 105 106" fill="none" xmlns="http://www.w3.org/2000/svg">
<g clip-path="url(#clip0_1009_1838)">
<rect y="0.5" width="105" height="105" fill="url(#paint0_linear_1009_1838)"/>
<rect y="0.5" width="105" height="105" fill="url(#paint1_radial_1009_1838)"/>
<g style="mix-blend-mode:soft-light" filter="url(#filter0_f_1009_1838)">
<rect x="1.5" y="2" width="102" height="102" stroke="url(#paint2_linear_1009_1838)" stroke-width="3"/>
</g>
<g style="mix-blend-mode:soft-light" filter="url(#filter1_f_1009_1838)">
<rect x="2" y="2.5" width="101" height="101" stroke="url(#paint3_linear_1009_1838)" stroke-width="4"/>
</g>
<rect y="0.5" width="105" height="105" fill="url(#paint4_linear_1009_1838)"/>
<path d="M53.2083 62.6632C57.2354 62.6632 60.5 59.0722 60.5 54.6424C60.5 50.2126 57.2354 46.6216 53.2083 46.6216C49.1812 46.6216 45.9167 50.2126 45.9167 54.6424C45.9167 59.0722 49.1812 62.6632 53.2083 62.6632Z" fill="white"/>
<path d="M53.2083 69.9551C75.76 69.9551 94.0417 63.0994 94.0417 54.6426C94.0417 46.1857 75.76 39.3301 53.2083 39.3301C30.6567 39.3301 12.375 46.1857 12.375 54.6426C12.375 63.0994 30.6567 69.9551 53.2083 69.9551Z" stroke="white" stroke-width="3"/>
<path d="M39.7051 62.3748C50.9809 81.7471 66.1668 93.9896 73.6238 89.7191C81.0808 85.4486 77.9851 66.2823 66.7093 46.91C55.4335 27.5376 40.2475 15.2952 32.7905 19.5657C25.3335 23.8362 28.4292 43.0024 39.7051 62.3748Z" stroke="white" stroke-width="3"/>
<path d="M39.705 46.91C28.4292 66.2823 25.3335 85.4486 32.7905 89.7191C40.2475 93.9896 55.4334 81.7471 66.7093 62.3748C77.9851 43.0025 81.0808 23.8362 73.6238 19.5657C66.1668 15.2952 50.9808 27.5377 39.705 46.91Z" stroke="white" stroke-width="3"/>
</g>
<defs>
<filter id="filter0_f_1009_1838" x="-2" y="-1.5" width="109" height="109" filterUnits="userSpaceOnUse" color-interpolation-filters="sRGB">
<feFlood flood-opacity="0" result="BackgroundImageFix"/>
<feBlend mode="normal" in="SourceGraphic" in2="BackgroundImageFix" result="shape"/>
<feGaussianBlur stdDeviation="1" result="effect1_foregroundBlur_1009_1838"/>
</filter>
<filter id="filter1_f_1009_1838" x="-6" y="-5.5" width="117" height="117" filterUnits="userSpaceOnUse" color-interpolation-filters="sRGB">
<feFlood flood-opacity="0" result="BackgroundImageFix"/>
<feBlend mode="normal" in="SourceGraphic" in2="BackgroundImageFix" result="shape"/>
<feGaussianBlur stdDeviation="3" result="effect1_foregroundBlur_1009_1838"/>
</filter>
<linearGradient id="paint0_linear_1009_1838" x1="52.5" y1="0.5" x2="52.5" y2="105.5" gradientUnits="userSpaceOnUse">
<stop offset="0.14" stop-color="white" stop-opacity="0.26"/>
<stop offset="0.64" stop-color="white" stop-opacity="0.08"/>
<stop offset="1" stop-color="white" stop-opacity="0"/>
</linearGradient>
<radialGradient id="paint1_radial_1009_1838" cx="0" cy="0" r="1" gradientUnits="userSpaceOnUse" gradientTransform="translate(52.5 53) rotate(90) scale(52.5 52.5)">
<stop stop-color="#60DAFA"/>
<stop offset="1" stop-color="#21A1C4"/>
</radialGradient>
<linearGradient id="paint2_linear_1009_1838" x1="52.5" y1="105.5" x2="52.5" y2="94.5625" gradientUnits="userSpaceOnUse">
<stop/>
<stop offset="1" stop-opacity="0"/>
</linearGradient>
<linearGradient id="paint3_linear_1009_1838" x1="52.5" y1="0.5" x2="52.5" y2="57.375" gradientUnits="userSpaceOnUse">
<stop stop-color="white"/>
<stop offset="1" stop-color="white" stop-opacity="0"/>
</linearGradient>
<linearGradient id="paint4_linear_1009_1838" x1="52.5" y1="0.5" x2="52.5" y2="105.5" gradientUnits="userSpaceOnUse">
<stop stop-opacity="0"/>
<stop offset="0.6" stop-opacity="0.08"/>
<stop offset="1" stop-opacity="0.26"/>
</linearGradient>
<clipPath id="clip0_1009_1838">
<rect width="105" height="105" fill="white" transform="translate(0 0.5)"/>
</clipPath>
</defs>
</svg>
