<svg width="105" height="106" viewBox="0 0 105 106" fill="none" xmlns="http://www.w3.org/2000/svg">
<g clip-path="url(#clip0_1015_1677)">
<rect width="105" height="105" transform="translate(0 0.5)" fill="url(#paint0_linear_1015_1677)"/>
<rect y="0.5" width="105" height="105" fill="url(#paint1_linear_1015_1677)"/>
<rect y="0.5" width="105" height="105" fill="url(#paint2_radial_1015_1677)"/>
<g style="mix-blend-mode:soft-light" filter="url(#filter0_f_1015_1677)">
<rect x="1.5" y="2" width="102" height="102" stroke="url(#paint3_linear_1015_1677)" stroke-width="3"/>
</g>
<g style="mix-blend-mode:soft-light" filter="url(#filter1_f_1015_1677)">
<rect x="2" y="2.5" width="101" height="101" stroke="url(#paint4_linear_1015_1677)" stroke-width="4"/>
</g>
<rect y="0.5" width="105" height="105" fill="url(#paint5_linear_1015_1677)"/>
<path d="M83.457 58.5327C80.5062 58.5483 77.9416 59.2672 75.7941 60.3299C75.0062 58.7515 74.2183 57.3449 74.0792 56.3134C73.9247 55.1101 73.7393 54.3755 73.9247 52.9377C74.1101 51.4999 74.9444 49.4526 74.9289 49.2963C74.9135 49.1401 74.7435 48.4055 73.0441 48.3899C71.3447 48.3743 69.877 48.7181 69.707 49.1713C69.5371 49.6245 69.2126 50.656 68.9963 51.7187C68.7028 53.2816 65.5975 58.8609 63.8208 61.7833C63.2491 60.6425 62.7548 59.6423 62.6466 58.8452C62.4921 57.6418 62.3067 56.9073 62.4921 55.4695C62.6775 54.0317 63.5118 51.9844 63.4963 51.8281C63.4809 51.6718 63.3109 50.9373 61.6115 50.9217C59.912 50.9061 58.4443 51.2499 58.2744 51.7031C58.1045 52.1563 57.9191 53.219 57.5637 54.2505C57.2084 55.282 53.0834 64.5964 52.0019 67.0032C51.4457 68.2378 50.9668 69.2224 50.6269 69.8944C50.6269 69.8944 50.6115 69.9413 50.5651 70.0195C50.2716 70.5977 50.1016 70.9103 50.1016 70.9103C50.1016 70.9103 50.1016 70.9103 50.1016 70.9259C49.8699 71.3479 49.6227 71.7386 49.4991 71.7386C49.4064 71.7386 49.2365 70.6133 49.53 69.0818C50.148 65.8467 51.6157 60.8144 51.6002 60.6425C51.6002 60.5487 51.8783 59.6735 50.6424 59.2203C49.4373 58.7671 49.0047 59.5172 48.8966 59.5172C48.7884 59.5172 48.7112 59.7829 48.7112 59.7829C48.7112 59.7829 50.0553 54.1255 46.1466 54.1255C43.7056 54.1255 40.3376 56.8292 38.669 59.2672C37.6185 59.8454 35.3783 61.0801 32.9836 62.4085C32.0721 62.9242 31.1297 63.4399 30.2491 63.9244C30.1873 63.8619 30.1255 63.7838 30.0637 63.7213C25.3361 58.6108 16.5917 55.0007 16.9625 48.1398C17.1016 45.6393 17.9513 39.0754 33.7561 31.105C46.7645 24.6193 57.1157 26.4165 58.9078 30.4017C61.4724 36.0904 53.3615 46.6552 39.9204 48.1867C34.7912 48.765 32.103 46.7646 31.4232 46.0144C30.7125 45.233 30.6044 45.1861 30.3418 45.3424C29.9092 45.5768 30.1873 46.2801 30.3418 46.6864C30.7434 47.7491 32.3965 49.6245 35.1929 50.5466C37.6648 51.3593 43.6747 51.8125 50.9514 48.9681C59.0932 45.78 65.4584 36.9187 63.589 29.4953C61.7196 21.9624 49.3601 19.4775 37.6648 23.6816C30.7125 26.1821 23.1732 30.1204 17.7504 35.2465C11.308 41.3415 10.2883 46.6395 10.7055 48.8587C12.2041 56.7354 22.9415 61.8615 27.2364 65.6592C27.0201 65.7842 26.8193 65.8936 26.6493 65.9874C24.5019 67.0657 16.3136 71.3948 14.2743 75.9738C11.9569 81.1624 14.6451 84.882 16.4218 85.3821C21.9372 86.9293 27.6072 84.1474 30.6507 79.5527C33.6943 74.958 33.3235 68.988 31.9176 66.253C31.9022 66.2218 31.8867 66.1905 31.8558 66.1593C32.412 65.8311 32.9836 65.4873 33.5398 65.1591C34.6367 64.5027 35.7182 63.8932 36.6451 63.3931C36.1199 64.8465 35.7336 66.5812 35.5482 69.0818C35.3165 72.0199 36.5061 75.8332 38.0665 77.3335C38.7617 77.9899 39.5805 78.0055 40.1058 78.0055C41.9289 78.0055 42.7477 76.474 43.6592 74.6611C44.7716 72.4418 45.7758 69.8632 45.7758 69.8632C45.7758 69.8632 44.5244 76.8334 47.9233 76.8334C49.1592 76.8334 50.4106 75.2081 50.9668 74.3798C50.9668 74.3954 50.9668 74.3954 50.9668 74.3954C50.9668 74.3954 50.9977 74.3485 51.0595 74.2391C51.1831 74.0359 51.2603 73.9109 51.2603 73.9109C51.2603 73.9109 51.2603 73.8953 51.2603 73.8797C51.7547 73.0045 52.8671 71.0197 54.5202 67.7221C56.6522 63.4712 58.707 58.1576 58.707 58.1576C58.707 58.1576 58.8924 59.4547 59.5258 61.6114C59.8966 62.8773 60.6691 64.2682 61.287 65.6123C60.7927 66.3156 60.4837 66.7063 60.4837 66.7063C60.4837 66.7063 60.4837 66.7063 60.4991 66.7219C60.0974 67.2533 59.6649 67.8315 59.1859 68.3941C57.5019 70.4258 55.4935 72.7544 55.2154 73.4264C54.891 74.2235 54.9682 74.8017 55.5862 75.2706C56.0342 75.6144 56.8376 75.6613 57.6564 75.6144C59.1705 75.505 60.2365 75.1299 60.7618 74.8955C61.5806 74.5986 62.5385 74.1453 63.4345 73.4733C65.0876 72.2387 66.0918 70.4727 65.9991 68.1441C65.9528 66.8625 65.5357 65.581 65.0258 64.3776C65.1803 64.1588 65.3194 63.9401 65.4739 63.7213C68.0848 59.8611 70.1087 55.6258 70.1087 55.6258C70.1087 55.6258 70.2941 56.923 70.9275 59.0797C71.2365 60.1736 71.8699 61.3614 72.4261 62.5179C69.9697 64.5339 68.4556 66.8782 67.9149 68.4097C66.9416 71.2541 67.6986 72.5356 69.1354 72.8326C69.7843 72.9732 70.7112 72.6606 71.391 72.3637C72.2562 72.0824 73.2758 71.5979 74.2492 70.879C75.9023 69.6444 77.4935 67.9253 77.4009 65.5967C77.3545 64.5339 77.0764 63.4868 76.6902 62.471C78.7759 61.5958 81.4641 61.1113 84.8939 61.5177C92.2478 62.3929 93.7001 67.0345 93.422 68.988C93.1439 70.9415 91.5989 72.0043 91.0891 72.3324C90.5793 72.6606 90.4093 72.77 90.4557 73.0045C90.5175 73.3483 90.7647 73.3327 91.1972 73.2701C91.7998 73.1607 95.0596 71.6917 95.1987 68.0972C95.4304 63.5025 91.1045 58.4858 83.457 58.5327ZM26.7266 77.8805C24.2856 80.5686 20.8867 81.5844 19.419 80.7248C17.8431 79.8028 18.4611 75.8332 21.4583 72.9888C23.2813 71.2541 25.6297 69.6444 27.1901 68.6598C27.5454 68.441 28.0707 68.1284 28.7041 67.7377C28.8123 67.6752 28.8741 67.644 28.8741 67.644C28.9977 67.5658 29.1212 67.4877 29.2448 67.4095C30.3418 71.4729 29.2912 75.0518 26.7266 77.8805ZM44.4935 65.6592C43.6438 67.7534 41.8671 73.1139 40.7856 72.8169C39.8586 72.5669 39.287 68.5035 40.6002 64.487C41.2645 62.471 42.6704 60.0642 43.4893 59.1265C44.8179 57.6262 46.2856 57.1261 46.6409 57.7356C47.089 58.5327 45.0188 64.3464 44.4935 65.6592ZM59.155 72.7544C58.7997 72.942 58.4598 73.067 58.3053 72.9732C58.1972 72.9107 58.4598 72.6606 58.4598 72.6606C58.4598 72.6606 60.2983 70.6602 61.0244 69.7538C61.4415 69.2224 61.9359 68.5973 62.4612 67.894C62.4612 67.9565 62.4612 68.0347 62.4612 68.0972C62.4612 70.4883 60.1747 72.098 59.155 72.7544ZM70.464 70.1445C70.2014 69.9569 70.2477 69.3318 71.1284 67.3783C71.4683 66.6125 72.2716 65.331 73.6466 64.0963C73.8011 64.5964 73.9093 65.0809 73.8938 65.5341C73.8784 68.5504 71.7463 69.6756 70.464 70.1445Z" fill="white"/>
</g>
<defs>
<filter id="filter0_f_1015_1677" x="-2" y="-1.5" width="109" height="109" filterUnits="userSpaceOnUse" color-interpolation-filters="sRGB">
<feFlood flood-opacity="0" result="BackgroundImageFix"/>
<feBlend mode="normal" in="SourceGraphic" in2="BackgroundImageFix" result="shape"/>
<feGaussianBlur stdDeviation="1" result="effect1_foregroundBlur_1015_1677"/>
</filter>
<filter id="filter1_f_1015_1677" x="-6" y="-5.5" width="117" height="117" filterUnits="userSpaceOnUse" color-interpolation-filters="sRGB">
<feFlood flood-opacity="0" result="BackgroundImageFix"/>
<feBlend mode="normal" in="SourceGraphic" in2="BackgroundImageFix" result="shape"/>
<feGaussianBlur stdDeviation="3" result="effect1_foregroundBlur_1015_1677"/>
</filter>
<linearGradient id="paint0_linear_1015_1677" x1="52.5" y1="0" x2="52.5" y2="105" gradientUnits="userSpaceOnUse">
<stop stop-color="#FFB6C1"/>
<stop offset="0.595" stop-color="#E75480"/>
</linearGradient>
<linearGradient id="paint1_linear_1015_1677" x1="52.5" y1="0.5" x2="52.5" y2="105.5" gradientUnits="userSpaceOnUse">
<stop offset="0.14" stop-color="white" stop-opacity="0.26"/>
<stop offset="0.64" stop-color="white" stop-opacity="0.08"/>
<stop offset="1" stop-color="white" stop-opacity="0"/>
</linearGradient>
<radialGradient id="paint2_radial_1015_1677" cx="0" cy="0" r="1" gradientUnits="userSpaceOnUse" gradientTransform="translate(52.5 53) rotate(90) scale(52.5)">
<stop stop-color="#FEB3BF"/>
<stop offset="1" stop-color="#E75480"/>
</radialGradient>
<linearGradient id="paint3_linear_1015_1677" x1="52.5" y1="105.5" x2="52.5" y2="94.5625" gradientUnits="userSpaceOnUse">
<stop/>
<stop offset="1" stop-opacity="0"/>
</linearGradient>
<linearGradient id="paint4_linear_1015_1677" x1="52.5" y1="0.5" x2="52.5" y2="57.375" gradientUnits="userSpaceOnUse">
<stop stop-color="white"/>
<stop offset="1" stop-color="white" stop-opacity="0"/>
</linearGradient>
<linearGradient id="paint5_linear_1015_1677" x1="52.5" y1="0.5" x2="52.5" y2="105.5" gradientUnits="userSpaceOnUse">
<stop stop-opacity="0"/>
<stop offset="0.6" stop-opacity="0.08"/>
<stop offset="1" stop-opacity="0.26"/>
</linearGradient>
<clipPath id="clip0_1015_1677">
<rect width="105" height="105" fill="white" transform="translate(0 0.5)"/>
</clipPath>
</defs>
</svg>
