<svg width="108" height="108" viewBox="0 0 108 108" fill="none" xmlns="http://www.w3.org/2000/svg">
<g clip-path="url(#clip0_178_3136)">
<rect x="4" y="4" width="100" height="100" rx="12" fill="url(#paint0_linear_178_3136)"/>
<rect x="4" y="4" width="100" height="100" rx="12" fill="url(#paint1_radial_178_3136)"/>
<g style="mix-blend-mode:overlay">
<rect x="4" y="4" width="100" height="100" rx="12" fill="url(#paint2_linear_178_3136)"/>
</g>
<rect x="4" y="4" width="100" height="100" rx="12" fill="url(#paint3_linear_178_3136)"/>
<g style="mix-blend-mode:soft-light" filter="url(#filter0_f_178_3136)">
<rect x="4.5" y="4.5" width="99" height="99" rx="11.5" stroke="url(#paint4_linear_178_3136)"/>
</g>
<g style="mix-blend-mode:soft-light" filter="url(#filter1_f_178_3136)">
<rect x="5" y="5" width="98" height="98" rx="11" stroke="url(#paint5_linear_178_3136)" stroke-width="2"/>
</g>
<path d="M91.7485 27.2487L56.0475 91.008C55.3104 92.3244 53.4166 92.3322 52.6685 91.0222L16.2597 27.2547C15.4445 25.8273 16.6667 24.0981 18.2864 24.3875L54.0258 30.7673C54.2538 30.808 54.4873 30.8076 54.7151 30.7661L89.7069 24.3964C91.3213 24.1026 92.5492 25.8184 91.7485 27.2487V27.2487Z" fill="url(#paint6_linear_178_3136)"/>
<path d="M71.051 16.0187L44.6314 21.1891C44.4203 21.2304 44.229 21.3406 44.0874 21.5024C43.9459 21.6642 43.8622 21.8683 43.8495 22.0828L42.2244 49.4962C42.2154 49.6466 42.2417 49.797 42.3011 49.9354C42.3605 50.0738 42.4514 50.1965 42.5666 50.2937C42.6818 50.391 42.8181 50.46 42.9646 50.4954C43.1112 50.5309 43.264 50.5317 43.411 50.4978L50.7667 48.8024C51.4548 48.6438 52.0768 49.2493 51.9352 49.9404L49.7499 60.6284C49.6029 61.3478 50.2789 61.9627 50.9822 61.7492L55.5256 60.3708C56.2298 60.1573 56.9066 60.774 56.7576 61.4939L53.2848 78.2822C53.0674 79.3324 54.466 79.905 55.0491 79.0048L55.4389 78.4035L76.9671 35.4936C77.3278 34.7752 76.7059 33.9559 75.9162 34.1083L68.3444 35.5677C67.6331 35.7047 67.0277 35.0429 67.2284 34.3479L72.1702 17.2382C72.3712 16.5414 71.7635 15.8794 71.0513 16.0187H71.051Z" fill="url(#paint7_linear_178_3136)"/>
</g>
<rect x="2" y="2" width="104" height="104" rx="14" stroke="#3A3A3A" stroke-width="4"/>
<defs>
<filter id="filter0_f_178_3136" x="2" y="2" width="104" height="104" filterUnits="userSpaceOnUse" color-interpolation-filters="sRGB">
<feFlood flood-opacity="0" result="BackgroundImageFix"/>
<feBlend mode="normal" in="SourceGraphic" in2="BackgroundImageFix" result="shape"/>
<feGaussianBlur stdDeviation="1" result="effect1_foregroundBlur_178_3136"/>
</filter>
<filter id="filter1_f_178_3136" x="-2" y="-2" width="112" height="112" filterUnits="userSpaceOnUse" color-interpolation-filters="sRGB">
<feFlood flood-opacity="0" result="BackgroundImageFix"/>
<feBlend mode="normal" in="SourceGraphic" in2="BackgroundImageFix" result="shape"/>
<feGaussianBlur stdDeviation="3" result="effect1_foregroundBlur_178_3136"/>
</filter>
<linearGradient id="paint0_linear_178_3136" x1="54" y1="4" x2="54" y2="104" gradientUnits="userSpaceOnUse">
<stop stop-color="#646CFF"/>
<stop offset="1" stop-color="#07419F"/>
</linearGradient>
<radialGradient id="paint1_radial_178_3136" cx="0" cy="0" r="1" gradientUnits="userSpaceOnUse" gradientTransform="translate(54 54) rotate(90) scale(50)">
<stop stop-color="#636BFE"/>
<stop offset="1" stop-color="#0841A0"/>
</radialGradient>
<linearGradient id="paint2_linear_178_3136" x1="54" y1="4" x2="54" y2="104" gradientUnits="userSpaceOnUse">
<stop stop-opacity="0"/>
<stop offset="0.6" stop-opacity="0.08"/>
<stop offset="1" stop-opacity="0.26"/>
</linearGradient>
<linearGradient id="paint3_linear_178_3136" x1="54" y1="4" x2="54" y2="104" gradientUnits="userSpaceOnUse">
<stop offset="0.14" stop-color="white" stop-opacity="0.26"/>
<stop offset="0.64" stop-color="white" stop-opacity="0.08"/>
<stop offset="1" stop-color="white" stop-opacity="0"/>
</linearGradient>
<linearGradient id="paint4_linear_178_3136" x1="54" y1="104" x2="54" y2="93.5833" gradientUnits="userSpaceOnUse">
<stop/>
<stop offset="1" stop-opacity="0"/>
</linearGradient>
<linearGradient id="paint5_linear_178_3136" x1="54" y1="4" x2="54" y2="58.1667" gradientUnits="userSpaceOnUse">
<stop stop-color="white"/>
<stop offset="1" stop-color="white" stop-opacity="0"/>
</linearGradient>
<linearGradient id="paint6_linear_178_3136" x1="15.3707" y1="29.5316" x2="53.8112" y2="81.8029" gradientUnits="userSpaceOnUse">
<stop stop-color="#41D1FF"/>
<stop offset="1" stop-color="#BD34FE"/>
</linearGradient>
<linearGradient id="paint7_linear_178_3136" x1="57.339" y1="17.4226" x2="65.2404" y2="71.6926" gradientUnits="userSpaceOnUse">
<stop stop-color="#FFEA83"/>
<stop offset="0.083" stop-color="#FFDD35"/>
<stop offset="1" stop-color="#FFA800"/>
</linearGradient>
<clipPath id="clip0_178_3136">
<rect x="4" y="4" width="100" height="100" rx="12" fill="white"/>
</clipPath>
</defs>
</svg>
