<svg width="105" height="106" viewBox="0 0 105 106" fill="none" xmlns="http://www.w3.org/2000/svg">
<g clip-path="url(#clip0_1015_1820)">
<rect width="105" height="105" transform="translate(0 0.5)" fill="url(#paint0_linear_1015_1820)"/>
<rect y="0.5" width="105" height="105" fill="url(#paint1_radial_1015_1820)"/>
<g style="mix-blend-mode:overlay">
<rect y="0.5" width="105" height="105" fill="url(#paint2_linear_1015_1820)"/>
</g>
<rect y="0.5" width="105" height="105" fill="url(#paint3_linear_1015_1820)"/>
<g style="mix-blend-mode:soft-light" filter="url(#filter0_f_1015_1820)">
<rect x="0.5" y="1" width="104" height="104" stroke="url(#paint4_linear_1015_1820)"/>
</g>
<g style="mix-blend-mode:soft-light" filter="url(#filter1_f_1015_1820)">
<rect x="1" y="1.5" width="103" height="103" stroke="url(#paint5_linear_1015_1820)" stroke-width="2"/>
</g>
<path d="M93.4742 23.7407L54.4261 93.4773C53.6199 94.9172 51.5486 94.9257 50.7303 93.4929L10.9082 23.7472C10.0166 22.186 11.3534 20.2947 13.125 20.6112L52.2149 27.5891C52.4643 27.6337 52.7196 27.6332 52.9689 27.5879L91.2412 20.6209C93.0069 20.2996 94.3499 22.1763 93.4742 23.7407Z" fill="url(#paint6_linear_1015_1820)"/>
<path d="M70.8353 11.458L41.9389 17.1131C41.708 17.1583 41.4987 17.2788 41.3439 17.4557C41.1891 17.6327 41.0975 17.856 41.0836 18.0905L39.3062 48.074C39.2964 48.2385 39.3251 48.4029 39.3901 48.5543C39.4551 48.7058 39.5545 48.84 39.6805 48.9463C39.8065 49.0526 39.9555 49.1282 40.1158 49.1669C40.2761 49.2057 40.4433 49.2066 40.604 49.1695L48.6493 47.3152C49.402 47.1417 50.0822 47.8039 49.9273 48.5598L47.5372 60.2499C47.3764 61.0366 48.1158 61.7092 48.885 61.4757L53.8544 59.9681C54.6246 59.7346 55.3649 60.4091 55.2019 61.1965L51.4035 79.5587C51.1658 80.7074 52.6955 81.3336 53.3332 80.349L53.7595 79.6913L77.3061 32.7586C77.7006 31.9729 77.0203 31.0768 76.1566 31.2435L67.8749 32.8397C67.0969 32.9895 66.4348 32.2657 66.6543 31.5055L72.0594 12.7918C72.2793 12.0297 71.6146 11.3055 70.8356 11.458H70.8353Z" fill="url(#paint7_linear_1015_1820)"/>
</g>
<defs>
<filter id="filter0_f_1015_1820" x="-2" y="-1.5" width="109" height="109" filterUnits="userSpaceOnUse" color-interpolation-filters="sRGB">
<feFlood flood-opacity="0" result="BackgroundImageFix"/>
<feBlend mode="normal" in="SourceGraphic" in2="BackgroundImageFix" result="shape"/>
<feGaussianBlur stdDeviation="1" result="effect1_foregroundBlur_1015_1820"/>
</filter>
<filter id="filter1_f_1015_1820" x="-6" y="-5.5" width="117" height="117" filterUnits="userSpaceOnUse" color-interpolation-filters="sRGB">
<feFlood flood-opacity="0" result="BackgroundImageFix"/>
<feBlend mode="normal" in="SourceGraphic" in2="BackgroundImageFix" result="shape"/>
<feGaussianBlur stdDeviation="3" result="effect1_foregroundBlur_1015_1820"/>
</filter>
<linearGradient id="paint0_linear_1015_1820" x1="52.5" y1="0" x2="52.5" y2="105" gradientUnits="userSpaceOnUse">
<stop stop-color="#646CFF"/>
<stop offset="1" stop-color="#07419F"/>
</linearGradient>
<radialGradient id="paint1_radial_1015_1820" cx="0" cy="0" r="1" gradientUnits="userSpaceOnUse" gradientTransform="translate(52.5 53) rotate(90) scale(52.5)">
<stop stop-color="#636BFE"/>
<stop offset="1" stop-color="#0841A0"/>
</radialGradient>
<linearGradient id="paint2_linear_1015_1820" x1="52.5" y1="0.5" x2="52.5" y2="105.5" gradientUnits="userSpaceOnUse">
<stop stop-opacity="0"/>
<stop offset="0.6" stop-opacity="0.08"/>
<stop offset="1" stop-opacity="0.26"/>
</linearGradient>
<linearGradient id="paint3_linear_1015_1820" x1="52.5" y1="0.5" x2="52.5" y2="105.5" gradientUnits="userSpaceOnUse">
<stop offset="0.14" stop-color="white" stop-opacity="0.26"/>
<stop offset="0.64" stop-color="white" stop-opacity="0.08"/>
<stop offset="1" stop-color="white" stop-opacity="0"/>
</linearGradient>
<linearGradient id="paint4_linear_1015_1820" x1="52.5" y1="105.5" x2="52.5" y2="94.5625" gradientUnits="userSpaceOnUse">
<stop/>
<stop offset="1" stop-opacity="0"/>
</linearGradient>
<linearGradient id="paint5_linear_1015_1820" x1="52.5" y1="0.5" x2="52.5" y2="57.375" gradientUnits="userSpaceOnUse">
<stop stop-color="white"/>
<stop offset="1" stop-color="white" stop-opacity="0"/>
</linearGradient>
<linearGradient id="paint6_linear_1015_1820" x1="9.93592" y1="26.2376" x2="51.9802" y2="83.4093" gradientUnits="userSpaceOnUse">
<stop stop-color="#41D1FF"/>
<stop offset="1" stop-color="#BD34FE"/>
</linearGradient>
<linearGradient id="paint7_linear_1015_1820" x1="55.8378" y1="12.9934" x2="64.4799" y2="72.3513" gradientUnits="userSpaceOnUse">
<stop stop-color="#FFEA83"/>
<stop offset="0.083" stop-color="#FFDD35"/>
<stop offset="1" stop-color="#FFA800"/>
</linearGradient>
<clipPath id="clip0_1015_1820">
<rect width="105" height="105" fill="white" transform="translate(0 0.5)"/>
</clipPath>
</defs>
</svg>
