<svg width="105" height="106" viewBox="0 0 105 106" fill="none" xmlns="http://www.w3.org/2000/svg">
<g clip-path="url(#clip0_1015_1843)">
<rect width="105" height="105" transform="translate(0 0.5)" fill="url(#paint0_linear_1015_1843)"/>
<rect y="0.5" width="105" height="105" fill="url(#paint1_radial_1015_1843)"/>
<g style="mix-blend-mode:overlay">
<rect y="0.5" width="105" height="105" fill="url(#paint2_linear_1015_1843)"/>
</g>
<rect y="0.5" width="105" height="105" fill="url(#paint3_linear_1015_1843)"/>
<g style="mix-blend-mode:soft-light" filter="url(#filter0_f_1015_1843)">
<rect x="0.5" y="1" width="104" height="104" stroke="url(#paint4_linear_1015_1843)"/>
</g>
<g style="mix-blend-mode:soft-light" filter="url(#filter1_f_1015_1843)">
<rect x="1" y="1.5" width="103" height="103" stroke="url(#paint5_linear_1015_1843)" stroke-width="2"/>
</g>
<path d="M52.9159 12.8958L17.9159 32.9478V73.052L52.9159 93.1041L87.9159 73.052V32.9478L52.9159 12.8958Z" fill="white"/>
<path d="M24.1662 71.6684L51.7609 87.4761V75.1641L34.5678 65.5859L24.1662 71.6684ZM22.2785 69.9372V36.878L32.3766 42.78V64.0285L22.2785 69.9372ZM81.7779 71.6684L54.1831 87.4761V75.1641L71.3762 65.5859L81.7779 71.6684ZM83.6655 69.9372V36.878L73.5674 42.78V64.0285L83.6655 69.9372ZM82.4841 34.7391L54.1831 18.5237V30.4279L72.3134 40.5275L72.452 40.6077L82.4841 34.7391ZM23.4599 34.7391L51.7609 18.5237V30.4279L33.6306 40.5275L33.492 40.6077L23.4599 34.7391Z" fill="#8ED6FB"/>
<path d="M54.183 72.3635L71.1451 62.919V44.2037L54.183 54.1228V72.3635ZM51.7608 72.3635L34.7987 62.919V44.2037L51.7608 54.1228V72.3635ZM69.9967 42.0381L52.9686 32.5535L35.9405 42.0381L52.9686 51.9973L69.9967 42.0381Z" fill="#1C78C0"/>
</g>
<defs>
<filter id="filter0_f_1015_1843" x="-2" y="-1.5" width="109" height="109" filterUnits="userSpaceOnUse" color-interpolation-filters="sRGB">
<feFlood flood-opacity="0" result="BackgroundImageFix"/>
<feBlend mode="normal" in="SourceGraphic" in2="BackgroundImageFix" result="shape"/>
<feGaussianBlur stdDeviation="1" result="effect1_foregroundBlur_1015_1843"/>
</filter>
<filter id="filter1_f_1015_1843" x="-6" y="-5.5" width="117" height="117" filterUnits="userSpaceOnUse" color-interpolation-filters="sRGB">
<feFlood flood-opacity="0" result="BackgroundImageFix"/>
<feBlend mode="normal" in="SourceGraphic" in2="BackgroundImageFix" result="shape"/>
<feGaussianBlur stdDeviation="3" result="effect1_foregroundBlur_1015_1843"/>
</filter>
<linearGradient id="paint0_linear_1015_1843" x1="52.5" y1="0" x2="52.5" y2="105" gradientUnits="userSpaceOnUse">
<stop stop-color="#1C78C0"/>
<stop offset="1" stop-color="#8ED6FB"/>
</linearGradient>
<radialGradient id="paint1_radial_1015_1843" cx="0" cy="0" r="1" gradientUnits="userSpaceOnUse" gradientTransform="translate(52.5 53) rotate(90) scale(52.5 52.5)">
<stop stop-color="#8DD5FA"/>
<stop offset="1" stop-color="#1D79C0"/>
</radialGradient>
<linearGradient id="paint2_linear_1015_1843" x1="52.5" y1="0.5" x2="52.5" y2="105.5" gradientUnits="userSpaceOnUse">
<stop stop-opacity="0"/>
<stop offset="0.6" stop-opacity="0.08"/>
<stop offset="1" stop-opacity="0.26"/>
</linearGradient>
<linearGradient id="paint3_linear_1015_1843" x1="52.5" y1="0.5" x2="52.5" y2="105.5" gradientUnits="userSpaceOnUse">
<stop offset="0.14" stop-color="white" stop-opacity="0.26"/>
<stop offset="0.64" stop-color="white" stop-opacity="0.08"/>
<stop offset="1" stop-color="white" stop-opacity="0"/>
</linearGradient>
<linearGradient id="paint4_linear_1015_1843" x1="52.5" y1="105.5" x2="52.5" y2="94.5625" gradientUnits="userSpaceOnUse">
<stop/>
<stop offset="1" stop-opacity="0"/>
</linearGradient>
<linearGradient id="paint5_linear_1015_1843" x1="52.5" y1="0.5" x2="52.5" y2="57.375" gradientUnits="userSpaceOnUse">
<stop stop-color="white"/>
<stop offset="1" stop-color="white" stop-opacity="0"/>
</linearGradient>
<clipPath id="clip0_1015_1843">
<rect width="105" height="105" fill="white" transform="translate(0 0.5)"/>
</clipPath>
</defs>
</svg>
